<svg xmlns="http://www.w3.org/2000/svg" viewBox="0 0 19.19 89.87"><defs><style>.cls-1{fill:#999;}.cls-2{fill:#0d0;}</style></defs><title>1</title><g id="图层_2" data-name="图层 2"><g id="图层_2-2" data-name="图层 2"><rect class="cls-1" x="8.6" y="8.07" width="2" height="74"/><polygon class="cls-2" points="19.19 15.6 10.87 7.27 10.87 7.27 9.6 6 8.32 7.27 0 15.6 1.27 16.87 9.6 8.54 17.92 16.87 19.19 15.6"/><polygon class="cls-2" points="19.19 9.6 10.87 1.27 10.87 1.27 9.6 0 8.32 1.27 0 9.6 1.27 10.87 9.6 2.54 17.92 10.87 19.19 9.6"/><polygon class="cls-2" points="0 74.27 8.32 82.6 8.32 82.6 9.6 83.87 10.87 82.6 19.19 74.27 17.92 73 9.6 81.33 1.27 73 0 74.27"/><polygon class="cls-2" points="0 80.27 8.32 88.6 8.32 88.6 9.6 89.87 10.87 88.6 19.19 80.27 17.92 79 9.6 87.33 1.27 79 0 80.27"/></g></g></svg>