<svg xmlns="http://www.w3.org/2000/svg" width="406" height="62" viewBox="0 0 406 62">
  <g id="组_1292" data-name="组 1292" transform="translate(-15685 3402)">
    <rect id="矩形_6023" data-name="矩形 6023" width="30" height="14" transform="translate(15685 -3402)" fill="#2542bf"/>
    <rect id="矩形_6038" data-name="矩形 6038" width="30" height="14" transform="translate(15685 -3370)" fill="#2542bf"/>
    <rect id="矩形_6032" data-name="矩形 6032" width="47" height="14" transform="translate(15685 -3386)" fill="#2542bf"/>
    <rect id="矩形_6037" data-name="矩形 6037" width="47" height="14" transform="translate(15685 -3354)" fill="#2542bf"/>
    <rect id="矩形_6062" data-name="矩形 6062" width="30" height="14" transform="translate(16061 -3402)" fill="#2542bf"/>
    <rect id="矩形_6052" data-name="矩形 6052" width="30" height="14" transform="translate(16061 -3370)" fill="#2542bf"/>
    <rect id="矩形_6053" data-name="矩形 6053" width="13" height="14" transform="translate(16078 -3386)" fill="#2542bf"/>
    <rect id="矩形_6043" data-name="矩形 6043" width="13" height="14" transform="translate(16078 -3354)" fill="#2542bf"/>
    <rect id="矩形_6024" data-name="矩形 6024" width="45" height="14" transform="translate(15717 -3402)" fill="#2542bf"/>
    <rect id="矩形_6059" data-name="矩形 6059" width="45" height="14" transform="translate(15920 -3402)" fill="#2542bf"/>
    <rect id="矩形_6040" data-name="矩形 6040" width="45" height="14" transform="translate(15717 -3370)" fill="#2542bf"/>
    <rect id="矩形_6050" data-name="矩形 6050" width="45" height="14" transform="translate(15920 -3370)" fill="#2542bf"/>
    <rect id="矩形_6031" data-name="矩形 6031" width="45" height="14" transform="translate(15734 -3386)" fill="#2542bf"/>
    <rect id="矩形_6056" data-name="矩形 6056" width="45" height="14" transform="translate(15937 -3386)" fill="#2542bf"/>
    <rect id="矩形_6036" data-name="矩形 6036" width="45" height="14" transform="translate(15734 -3354)" fill="#2542bf"/>
    <rect id="矩形_6046" data-name="矩形 6046" width="45" height="14" transform="translate(15937 -3354)" fill="#2542bf"/>
    <rect id="矩形_6025" data-name="矩形 6025" width="45" height="14" transform="translate(15764 -3402)" fill="#2542bf"/>
    <rect id="矩形_6060" data-name="矩形 6060" width="45" height="14" transform="translate(15967 -3402)" fill="#2542bf"/>
    <rect id="矩形_6039" data-name="矩形 6039" width="45" height="14" transform="translate(15764 -3370)" fill="#2542bf"/>
    <rect id="矩形_6049" data-name="矩形 6049" width="45" height="14" transform="translate(15967 -3370)" fill="#2542bf"/>
    <rect id="矩形_6030" data-name="矩形 6030" width="45" height="14" transform="translate(15781 -3386)" fill="#2542bf"/>
    <rect id="矩形_6055" data-name="矩形 6055" width="45" height="14" transform="translate(15984 -3386)" fill="#2542bf"/>
    <rect id="矩形_6035" data-name="矩形 6035" width="45" height="14" transform="translate(15781 -3354)" fill="#2542bf"/>
    <rect id="矩形_6045" data-name="矩形 6045" width="45" height="14" transform="translate(15984 -3354)" fill="#2542bf"/>
    <rect id="矩形_6026" data-name="矩形 6026" width="45" height="14" transform="translate(15811 -3402)" fill="#2542bf"/>
    <rect id="矩形_6061" data-name="矩形 6061" width="45" height="14" transform="translate(16014 -3402)" fill="#2542bf"/>
    <rect id="矩形_6041" data-name="矩形 6041" width="45" height="14" transform="translate(15811 -3370)" fill="#2542bf"/>
    <rect id="矩形_6051" data-name="矩形 6051" width="45" height="14" transform="translate(16014 -3370)" fill="#2542bf"/>
    <rect id="矩形_6029" data-name="矩形 6029" width="45" height="14" transform="translate(15828 -3386)" fill="#2542bf"/>
    <rect id="矩形_6054" data-name="矩形 6054" width="45" height="14" transform="translate(16031 -3386)" fill="#2542bf"/>
    <rect id="矩形_6034" data-name="矩形 6034" width="45" height="14" transform="translate(15828 -3354)" fill="#2542bf"/>
    <rect id="矩形_6044" data-name="矩形 6044" width="45" height="14" transform="translate(16031 -3354)" fill="#2542bf"/>
    <rect id="矩形_6063" data-name="矩形 6063" width="60" height="14" transform="translate(15858 -3402)" fill="#283dbf"/>
    <rect id="矩形_6064" data-name="矩形 6064" width="60" height="14" transform="translate(15875 -3386)" fill="#283dbf"/>
    <rect id="矩形_6065" data-name="矩形 6065" width="60" height="14" transform="translate(15858 -3370)" fill="#283dbf"/>
    <rect id="矩形_6066" data-name="矩形 6066" width="60" height="14" transform="translate(15875 -3354)" fill="#283dbf"/>
  </g>
</svg>
