<svg xmlns="http://www.w3.org/2000/svg" width="98.922" height="186.923" viewBox="0 0 98.922 186.923">
  <g id="组_129" data-name="组 129" transform="translate(-2622.078 -1093.096)">
    <line id="直线_441" data-name="直线 441" y2="16" transform="translate(2673.5 1139.5)" fill="none" stroke="#892c03" stroke-width="1"/>
    <line id="直线_434" data-name="直线 434" x1="66" transform="translate(2646 1161.5)" fill="none" stroke="#892c03" stroke-width="1"/>
    <line id="直线_442" data-name="直线 442" x1="36" transform="translate(2634 1181.5)" fill="none" stroke="#892c03" stroke-width="1"/>
    <line id="直线_435" data-name="直线 435" y2="16" transform="translate(2693.5 1139.5)" fill="none" stroke="#892c03" stroke-width="1"/>
    <line id="直线_453" data-name="直线 453" y2="20" transform="translate(2646.5 1161.5)" fill="none" stroke="#892c03" stroke-width="1"/>
    <line id="直线_459" data-name="直线 459" x1="4" y2="14" transform="translate(2633.5 1210.5)" fill="none" stroke="#892c03" stroke-width="1"/>
    <line id="直线_469" data-name="直线 469" x1="4" y2="14" transform="translate(2668.5 1210.5)" fill="none" stroke="#892c03" stroke-width="1"/>
    <line id="直线_460" data-name="直线 460" x1="4" y2="13" transform="translate(2630.5 1214.5)" fill="none" stroke="#892c03" stroke-width="1"/>
    <line id="直线_468" data-name="直线 468" x1="4" y2="13" transform="translate(2665.5 1214.5)" fill="none" stroke="#892c03" stroke-width="1"/>
    <line id="直线_461" data-name="直线 461" y2="33" transform="translate(2634.5 1181.5)" fill="none" stroke="#892c03" stroke-width="1"/>
    <line id="直线_462" data-name="直线 462" y2="28" transform="translate(2634.5 1225.5)" fill="none" stroke="#892c03" stroke-width="1"/>
    <line id="直线_445" data-name="直线 445" y2="39" transform="translate(2668.5 1225.5)" fill="none" stroke="#892c03" stroke-width="1"/>
    <line id="直线_446" data-name="直线 446" y2="33" transform="translate(2669.5 1181.5)" fill="none" stroke="#892c03" stroke-width="1"/>
    <line id="直线_429" data-name="直线 429" y2="50" transform="translate(2711.5 1161.5)" fill="none" stroke="#892c03" stroke-width="1"/>
    <line id="直线_431" data-name="直线 431" y2="32" transform="translate(2711.5 1229)" fill="none" stroke="#892c03" stroke-width="1"/>
    <line id="直线_432" data-name="直线 432" x2="5" y2="5" transform="translate(2706.5 1210.5)" fill="none" stroke="#892c03" stroke-width="1"/>
    <line id="直线_450" data-name="直线 450" y2="12" transform="translate(2683.5 1096.5)" fill="none" stroke="#892c03" stroke-width="1"/>
    <line id="直线_437" data-name="直线 437" y2="14" transform="translate(2683.5 1116.5)" fill="none" stroke="#892c03" stroke-width="1"/>
    <line id="直线_436" data-name="直线 436" y2="28" transform="translate(2683.5 1133.5)" fill="none" stroke="#892c03" stroke-width="1"/>
    <path id="路径_109" data-name="路径 109" d="M0,0V5" transform="translate(2633.5 1271.5)" fill="#892c03" stroke="#892c03" stroke-width="1"/>
    <path id="路径_108" data-name="路径 108" d="M0,0V5" transform="translate(2635.5 1271.5)" fill="#892c03" stroke="#892c03" stroke-width="1"/>
    <path id="路径_105" data-name="路径 105" d="M0,0V6.692" transform="translate(2668.5 1266.808)" fill="#892c03" stroke="#892c03" stroke-width="1"/>
    <path id="路径_102" data-name="路径 102" d="M0,0V8" transform="translate(2674.5 1265.5)" fill="#892c03" stroke="#892c03" stroke-width="1"/>
    <path id="路径_101" data-name="路径 101" d="M0,0V12.58" transform="translate(2680.5 1260.92)" fill="#892c03" stroke="#892c03" stroke-width="1"/>
    <path id="路径_106" data-name="路径 106" d="M0,0V14.031" transform="translate(2652.5 1260.021)" fill="#892c03" stroke="#892c03" stroke-width="1"/>
    <path id="路径_103" data-name="路径 103" d="M0,0V4.942" transform="translate(2674.5 1258.986)" fill="#892c03" stroke="#892c03" stroke-width="1"/>
    <path id="路径_95" data-name="路径 95" d="M0,0V3.014" transform="translate(2709.5 1271.986)" fill="#892c03" stroke="#892c03" stroke-width="1"/>
    <path id="路径_98" data-name="路径 98" d="M0,0V3.014" transform="translate(2707.5 1268.986)" fill="#892c03" stroke="#892c03" stroke-width="1"/>
    <path id="路径_99" data-name="路径 99" d="M.08,0V1.979" transform="translate(2705.431 1267.007)" fill="#892c03" stroke="#892c03" stroke-width="1"/>
    <path id="路径_93" data-name="路径 93" d="M.1,0V2.371" transform="translate(2716.431 1274.616)" fill="#892c03" stroke="#892c03" stroke-width="1"/>
    <path id="路径_100" data-name="路径 100" d="M.1,0V4.4" transform="translate(2705.431 1274.616)" fill="#892c03" stroke="#892c03" stroke-width="1"/>
    <path id="路径_96" data-name="路径 96" d="M.1,0V4.028" transform="translate(2709.398 1275.99)" fill="#892c03" stroke="#892c03" stroke-width="1"/>
    <path id="路径_97" data-name="路径 97" d="M.1,0V4.028" transform="translate(2711.398 1275.99)" fill="#892c03" stroke="#892c03" stroke-width="1"/>
    <line id="直线_465" data-name="直线 465" x2="4" y2="5" transform="translate(2628.5 1258.5)" fill="none" stroke="#892c03" stroke-width="1"/>
    <line id="直线_457" data-name="直线 457" x1="4" y2="5" transform="translate(2636.5 1258.5)" fill="none" stroke="#892c03" stroke-width="1"/>
    <line id="直线_466" data-name="直线 466" x2="4" y2="5" transform="translate(2626.5 1260.5)" fill="none" stroke="#892c03" stroke-width="1"/>
    <line id="直线_456" data-name="直线 456" x1="4" y2="5" transform="translate(2638.5 1260.5)" fill="none" stroke="#892c03" stroke-width="1"/>
    <line id="直线_447" data-name="直线 447" x2="10" y2="7" transform="translate(2673.5 1109.5)" fill="none" stroke="#892c03" stroke-width="1"/>
    <g id="组_128" data-name="组 128" transform="translate(2756.514 324.975)">
      <line id="直线_114" data-name="直线 114" x1="4.486" y2="3.845" transform="translate(-77.5 768.5)" fill="none" stroke="#892c03" stroke-width="1"/>
      <line id="直线_343" data-name="直线 343" x1="4.486" y2="3.845" transform="translate(-77.5 771.704)" fill="none" stroke="#892c03" stroke-width="1"/>
      <line id="直线_113" data-name="直线 113" x2="4.486" y2="3.845" transform="translate(-73.014 768.5)" fill="none" stroke="#892c03" stroke-width="1"/>
      <line id="直线_344" data-name="直线 344" x2="4.486" y2="3.845" transform="translate(-73.014 771.704)" fill="none" stroke="#892c03" stroke-width="1"/>
    </g>
    <g id="组_127" data-name="组 127" transform="translate(2610.486 1902.025) rotate(-180)">
      <line id="直线_114-2" data-name="直线 114" x1="4.486" y2="3.845" transform="translate(-77.5 768.5)" fill="none" stroke="#892c03" stroke-width="1"/>
      <line id="直线_343-2" data-name="直线 343" x1="4.486" y2="3.845" transform="translate(-77.5 771.704)" fill="none" stroke="#892c03" stroke-width="1"/>
      <line id="直线_113-2" data-name="直线 113" x2="4.486" y2="3.845" transform="translate(-73.014 768.5)" fill="none" stroke="#892c03" stroke-width="1"/>
      <line id="直线_344-2" data-name="直线 344" x2="4.486" y2="3.845" transform="translate(-73.014 771.704)" fill="none" stroke="#892c03" stroke-width="1"/>
    </g>
    <g id="椭圆_107" data-name="椭圆 107" transform="translate(2669 1143)" fill="none" stroke="#892c03" stroke-width="1">
      <circle cx="4.5" cy="4.5" r="4.5" stroke="none"/>
      <circle cx="4.5" cy="4.5" r="4" fill="none"/>
    </g>
    <g id="椭圆_106" data-name="椭圆 106" transform="translate(2679 1143)" fill="none" stroke="#892c03" stroke-width="1">
      <circle cx="4.5" cy="4.5" r="4.5" stroke="none"/>
      <circle cx="4.5" cy="4.5" r="4" fill="none"/>
    </g>
    <g id="椭圆_105" data-name="椭圆 105" transform="translate(2689 1143)" fill="none" stroke="#892c03" stroke-width="1">
      <circle cx="4.5" cy="4.5" r="4.5" stroke="none"/>
      <circle cx="4.5" cy="4.5" r="4" fill="none"/>
    </g>
    <g id="矩形_82" data-name="矩形 82" transform="translate(2637 1202) rotate(180)" fill="none" stroke="#892c03" stroke-width="1">
      <rect width="5" height="13" stroke="none"/>
      <rect x="0.5" y="0.5" width="4" height="12" fill="none"/>
    </g>
    <g id="矩形_81" data-name="矩形 81" transform="translate(2645 1231) rotate(180)" fill="none" stroke="#892c03" stroke-width="1">
      <rect width="21" height="21" stroke="none"/>
      <rect x="0.5" y="0.5" width="20" height="20" fill="none"/>
    </g>
    <g id="矩形_84" data-name="矩形 84" transform="translate(2680 1231) rotate(180)" fill="none" stroke="#892c03" stroke-width="1">
      <rect width="21" height="21" stroke="none"/>
      <rect x="0.5" y="0.5" width="20" height="20" fill="none"/>
    </g>
    <g id="矩形_72" data-name="矩形 72" transform="translate(2721 1275) rotate(180)" fill="none" stroke="#892c03" stroke-width="1">
      <rect width="20" height="18" stroke="none"/>
      <rect x="0.5" y="0.5" width="19" height="17" fill="none"/>
    </g>
    <g id="矩形_79" data-name="矩形 79" transform="translate(2672 1203) rotate(180)" fill="none" stroke="#892c03" stroke-width="1">
      <rect width="5" height="13" stroke="none"/>
      <rect x="0.5" y="0.5" width="4" height="12" fill="none"/>
    </g>
    <g id="矩形_75" data-name="矩形 75" transform="translate(2714 1200) rotate(180)" fill="none" stroke="#892c03" stroke-width="1">
      <rect width="5" height="12" stroke="none"/>
      <rect x="0.5" y="0.5" width="4" height="11" fill="none"/>
    </g>
    <g id="矩形_74" data-name="矩形 74" transform="translate(2709 1208)" fill="none" stroke="#892c03" stroke-width="1">
      <rect width="3" height="4" stroke="none"/>
      <rect x="0.5" y="0.5" width="2" height="3" fill="none"/>
    </g>
    <g id="路径_107" data-name="路径 107" transform="translate(2628 1214)" fill="none">
      <path d="M0,0H8.653L12,12H3.242Z" stroke="none"/>
      <path d="M 1.305976867675781 1 L 4.007293224334717 11 L 10.68296432495117 11 L 7.894164562225342 1 L 1.305976867675781 1 M 0 0 L 8.653440475463867 0 L 12 12 L 3.241580009460449 12 L 0 0 Z" stroke="none" fill="#892c03"/>
    </g>
    <g id="路径_110" data-name="路径 110" transform="translate(2663 1214)" fill="none">
      <path d="M0,0H8.653L12,12H3.242Z" stroke="none"/>
      <path d="M 1.305976867675781 1 L 4.007293224334717 11 L 10.68296432495117 11 L 7.894164562225342 1 L 1.305976867675781 1 M 0 0 L 8.653440475463867 0 L 12 12 L 3.241580009460449 12 L 0 0 Z" stroke="none" fill="#892c03"/>
    </g>
    <g id="矩形_83" data-name="矩形 83" transform="translate(2629 1227)" fill="none" stroke="#892c03" stroke-width="1">
      <rect width="3" height="3" stroke="none"/>
      <rect x="0.5" y="0.5" width="2" height="2" fill="none"/>
    </g>
    <g id="矩形_85" data-name="矩形 85" transform="translate(2664 1227)" fill="none" stroke="#892c03" stroke-width="1">
      <rect width="3" height="3" stroke="none"/>
      <rect x="0.5" y="0.5" width="2" height="2" fill="none"/>
    </g>
    <line id="直线_458" data-name="直线 458" x2="4" y2="7" transform="translate(2634.5 1253.5)" fill="none" stroke="#892c03" stroke-width="1"/>
    <line id="直线_463" data-name="直线 463" x1="4" y2="7" transform="translate(2630.5 1253.5)" fill="none" stroke="#892c03" stroke-width="1"/>
    <line id="直线_454" data-name="直线 454" x2="7" y2="10" transform="translate(2639.5 1263.5)" fill="none" stroke="#892c03" stroke-width="1"/>
    <line id="直线_467" data-name="直线 467" y1="11" x2="7" transform="translate(2622.5 1263.5)" fill="none" stroke="#892c03" stroke-width="1"/>
    <line id="直线_464" data-name="直线 464" x2="11" transform="translate(2622.5 1274.5)" fill="none" stroke="#892c03" stroke-width="1"/>
    <line id="直线_455" data-name="直线 455" x2="11" transform="translate(2635.5 1274.5)" fill="none" stroke="#892c03" stroke-width="1"/>
    <line id="直线_448" data-name="直线 448" x2="3" transform="translate(2668 1264.5)" fill="none" stroke="#892c03" stroke-width="1"/>
    <line id="直线_439" data-name="直线 439" x2="3" transform="translate(2673 1263.5)" fill="none" stroke="#892c03" stroke-width="1"/>
    <line id="直线_427" data-name="直线 427" x2="5" transform="translate(2712 1229.5)" fill="none" stroke="#892c03" stroke-width="1"/>
    <line id="直线_449" data-name="直线 449" x2="3" transform="translate(2668 1266.5)" fill="none" stroke="#892c03" stroke-width="1"/>
    <line id="直线_451" data-name="直线 451" x2="3" transform="translate(2651 1264.5)" fill="none" stroke="#892c03" stroke-width="1"/>
    <line id="直线_438" data-name="直线 438" x2="29" transform="translate(2652 1273.5)" fill="none" stroke="#892c03" stroke-width="1"/>
    <line id="直线_452" data-name="直线 452" x2="3" transform="translate(2651 1265.5)" fill="none" stroke="#892c03" stroke-width="1"/>
    <line id="直线_440" data-name="直线 440" x2="3" transform="translate(2673 1265.5)" fill="none" stroke="#892c03" stroke-width="1"/>
    <line id="直线_433" data-name="直线 433" x2="3" transform="translate(2706 1278.5)" fill="none" stroke="#892c03" stroke-width="1"/>
    <line id="直线_428" data-name="直线 428" x2="5" transform="translate(2712 1278.5)" fill="none" stroke="#892c03" stroke-width="1"/>
    <g id="矩形_76" data-name="矩形 76" transform="translate(2679 1258)" fill="none" stroke="#892c03" stroke-width="1">
      <rect width="3" height="3" stroke="none"/>
      <rect x="0.5" y="0.5" width="2" height="2" fill="none"/>
    </g>
    <path id="减去_34" data-name="减去 34" d="M6,13A6,6,0,1,1,7,1.083V2.1A5,5,0,1,0,11,7h1A6.006,6.006,0,0,1,6,13Z" transform="translate(2705 1223)" fill="#892c03"/>
    <g id="路径_94" data-name="路径 94" transform="translate(2706 1261)" fill="none">
      <path d="M1.053,2.994H3.019V0H6.866V11H3.019V8.922H1.053V2.994Z" stroke="none"/>
      <path d="M 4.018917083740234 1 L 4.018917083740234 2.993900299072266 L 4.018917083740234 3.993899822235107 L 3.018916606903076 3.993899822235107 L 2.052976608276367 3.993899822235107 L 2.052976608276367 6.028260231018066 L 2.052976608276367 7.404419898986816 L 2.052976608276367 7.921629905700684 L 3.018916606903076 7.921629905700684 L 4.018917083740234 7.921629905700684 L 4.018917083740234 8.921629905700684 L 4.018917083740234 10 L 4.458256721496582 10 L 5.866456985473633 10 L 5.866456985473633 1 L 4.018917083740234 1 M 3.018916606903076 0 L 6.866456985473633 0 L 6.866456985473633 11 L 4.458256721496582 11 L 3.018916606903076 11 L 3.018916606903076 8.921629905700684 L 1.052976608276367 8.921629905700684 L 1.052976608276367 7.404419898986816 L 1.052976608276367 6.028260231018066 L 1.052976608276367 2.993900299072266 L 3.018916606903076 2.993900299072266 L 3.018916606903076 0 Z" stroke="none" fill="#892c03"/>
    </g>
  </g>
</svg>
