<svg xmlns="http://www.w3.org/2000/svg" width="24.397" height="103" viewBox="0 0 24.397 103">
  <g id="组_98" data-name="组 98" transform="translate(-623.252 -759.5)">
    <line id="直线_303" data-name="直线 303" y2="9" transform="translate(630.5 759.5)" fill="none" stroke="red" stroke-width="1"/>
    <line id="直线_304" data-name="直线 304" y2="26" transform="translate(630.5 770.5)" fill="none" stroke="red" stroke-width="1"/>
    <line id="直线_305" data-name="直线 305" y2="64" transform="translate(630.5 798.5)" fill="none" stroke="red" stroke-width="1"/>
    <line id="直线_310" data-name="直线 310" y2="3" transform="translate(643.5 838.5)" fill="none" stroke="red" stroke-width="1"/>
    <line id="直线_314" data-name="直线 314" y2="9" transform="translate(643.5 827.5)" fill="none" stroke="red" stroke-width="1"/>
    <line id="直线_309" data-name="直线 309" y2="5" transform="translate(643.5 848.5)" fill="none" stroke="red" stroke-width="1"/>
    <line id="直线_312" data-name="直线 312" x1="7.649" transform="translate(640 836.5)" fill="none" stroke="red" stroke-width="1"/>
    <line id="直线_313" data-name="直线 313" x1="13" transform="translate(631 827.5)" fill="none" stroke="red" stroke-width="1"/>
    <line id="直线_311" data-name="直线 311" x1="7.649" transform="translate(640 838.5)" fill="none" stroke="red" stroke-width="1"/>
    <line id="直线_307" data-name="直线 307" x1="3.5" transform="translate(642 855.5)" fill="none" stroke="red" stroke-width="1"/>
    <line id="直线_306" data-name="直线 306" x1="5.5" transform="translate(642 853.5)" fill="none" stroke="red" stroke-width="1"/>
    <line id="直线_308" data-name="直线 308" x1="2" transform="translate(642.5 858.5)" fill="none" stroke="red" stroke-width="1"/>
    <g id="组_94" data-name="组 94" transform="translate(701 -2)">
      <line id="直线_111" data-name="直线 111" x1="7" y2="4" transform="translate(-77.5 772.5)" fill="none" stroke="red" stroke-width="1"/>
      <line id="直线_114" data-name="直线 114" x1="7" y2="4" transform="translate(-77.5 770.5)" fill="none" stroke="red" stroke-width="1"/>
      <line id="直线_112" data-name="直线 112" x2="7" y2="4" transform="translate(-70.5 772.5)" fill="none" stroke="red" stroke-width="1"/>
      <line id="直线_113" data-name="直线 113" x2="7" y2="4" transform="translate(-70.5 770.5)" fill="none" stroke="red" stroke-width="1"/>
    </g>
    <g id="组_95" data-name="组 95" transform="translate(560 1569) rotate(-180)">
      <line id="直线_111-2" data-name="直线 111" x1="7" y2="4" transform="translate(-77.5 772.5)" fill="none" stroke="red" stroke-width="1"/>
      <line id="直线_114-2" data-name="直线 114" x1="7" y2="4" transform="translate(-77.5 770.5)" fill="none" stroke="red" stroke-width="1"/>
      <line id="直线_112-2" data-name="直线 112" x2="7" y2="4" transform="translate(-70.5 772.5)" fill="none" stroke="red" stroke-width="1"/>
      <line id="直线_113-2" data-name="直线 113" x2="7" y2="4" transform="translate(-70.5 770.5)" fill="none" stroke="red" stroke-width="1"/>
    </g>
    <g id="组_96" data-name="组 96" transform="translate(729.5 -6)">
      <g id="组_66" data-name="组 66" transform="translate(-88.863 848.311)">
        <path id="路径_72" data-name="路径 72" d="M.3.384,1.391,1.407l4,4" transform="translate(0.139 -0.384)" fill="none" stroke="red" stroke-width="1"/>
        <path id="路径_71" data-name="路径 71" d="M5.179-1.5-.295,3.562" transform="translate(0.295 1.524)" fill="none" stroke="red" stroke-width="1"/>
      </g>
      <g id="椭圆_29" data-name="椭圆 29" transform="translate(-90 847)" fill="none" stroke="red" stroke-width="1">
        <circle cx="4" cy="4" r="4" stroke="none"/>
        <circle cx="4" cy="4" r="3.5" fill="none"/>
      </g>
    </g>
  </g>
</svg>
