<svg xmlns="http://www.w3.org/2000/svg" width="36" height="122.5" viewBox="0 0 36 122.5">
  <g id="组_89" data-name="组 89" transform="translate(-173 -759.5)">
    <line id="直线_211" data-name="直线 211" y2="25" transform="translate(190.5 759.5)" fill="none" stroke="red" stroke-width="1"/>
    <line id="直线_212" data-name="直线 212" y2="9" transform="translate(190.5 792.5)" fill="none" stroke="red" stroke-width="1"/>
    <line id="直线_213" data-name="直线 213" y2="8" transform="translate(178.5 837.5)" fill="none" stroke="red" stroke-width="1"/>
    <line id="直线_215" data-name="直线 215" y2="3" transform="translate(178.5 847.5)" fill="none" stroke="red" stroke-width="1"/>
    <line id="直线_216" data-name="直线 216" y2="5" transform="translate(178.5 859.5)" fill="none" stroke="red" stroke-width="1"/>
    <line id="直线_217" data-name="直线 217" x1="11" transform="translate(173 845.5)" fill="none" stroke="red" stroke-width="1"/>
    <line id="直线_218" data-name="直线 218" x1="11" transform="translate(173 847.5)" fill="none" stroke="red" stroke-width="1"/>
    <line id="直线_222" data-name="直线 222" x1="4" transform="translate(202.5 860.5)" fill="none" stroke="red" stroke-width="1"/>
    <line id="直线_223" data-name="直线 223" x1="4" transform="translate(176.5 866.5)" fill="none" stroke="red" stroke-width="1"/>
    <line id="直线_219" data-name="直线 219" x1="7" transform="translate(201 858.5)" fill="none" stroke="red" stroke-width="1"/>
    <line id="直线_220" data-name="直线 220" x1="7" transform="translate(175 864.5)" fill="none" stroke="red" stroke-width="1"/>
    <line id="直线_224" data-name="直线 224" x1="2" transform="translate(203.5 862.5)" fill="none" stroke="red" stroke-width="1"/>
    <line id="直线_225" data-name="直线 225" x1="2" transform="translate(177.5 868.5)" fill="none" stroke="red" stroke-width="1"/>
    <line id="直线_226" data-name="直线 226" y2="9" transform="translate(204.5 837.5)" fill="none" stroke="red" stroke-width="1"/>
    <line id="直线_227" data-name="直线 227" y2="5" transform="translate(204.5 853.5)" fill="none" stroke="red" stroke-width="1"/>
    <line id="直线_221" data-name="直线 221" x2="5" y2="6" transform="translate(199.5 847.5)" fill="none" stroke="red" stroke-width="1"/>
    <line id="直线_214" data-name="直线 214" x1="27" transform="translate(178 837.5)" fill="none" stroke="red" stroke-width="1"/>
    <line id="直线_209" data-name="直线 209" y2="33" transform="translate(178.5 801.5)" fill="none" stroke="red" stroke-width="1"/>
    <line id="直线_229" data-name="直线 229" y2="71" transform="translate(190.5 801.5)" fill="none" stroke="red" stroke-width="1"/>
    <line id="直线_228" data-name="直线 228" y2="33" transform="translate(204.5 801.5)" fill="none" stroke="red" stroke-width="1"/>
    <line id="直线_210" data-name="直线 210" x2="12" y2="8" transform="translate(178.5 785.5)" fill="none" stroke="red" stroke-width="1"/>
    <g id="组_83" data-name="组 83" transform="translate(261 2)">
      <line id="直线_109" data-name="直线 109" x2="6" y2="5" transform="translate(-73.5 779.5)" fill="none" stroke="red" stroke-width="1"/>
      <line id="直线_110" data-name="直线 110" x1="6" y2="5" transform="translate(-73.5 779.5)" fill="none" stroke="red" stroke-width="1"/>
    </g>
    <g id="组_81" data-name="组 81" transform="translate(261 2)">
      <line id="直线_111" data-name="直线 111" x1="7" y2="4" transform="translate(-77.5 772.5)" fill="none" stroke="red" stroke-width="1"/>
      <line id="直线_114" data-name="直线 114" x1="7" y2="4" transform="translate(-77.5 770.5)" fill="none" stroke="red" stroke-width="1"/>
      <line id="直线_112" data-name="直线 112" x2="7" y2="4" transform="translate(-70.5 772.5)" fill="none" stroke="red" stroke-width="1"/>
      <line id="直线_113" data-name="直线 113" x2="7" y2="4" transform="translate(-70.5 770.5)" fill="none" stroke="red" stroke-width="1"/>
    </g>
    <g id="组_82" data-name="组 82" transform="translate(120 1574) rotate(-180)">
      <line id="直线_111-2" data-name="直线 111" x1="7" y2="4" transform="translate(-77.5 772.5)" fill="none" stroke="red" stroke-width="1"/>
      <line id="直线_114-2" data-name="直线 114" x1="7" y2="4" transform="translate(-77.5 770.5)" fill="none" stroke="red" stroke-width="1"/>
      <line id="直线_112-2" data-name="直线 112" x2="7" y2="4" transform="translate(-70.5 772.5)" fill="none" stroke="red" stroke-width="1"/>
      <line id="直线_113-2" data-name="直线 113" x2="7" y2="4" transform="translate(-70.5 770.5)" fill="none" stroke="red" stroke-width="1"/>
    </g>
    <g id="椭圆_42" data-name="椭圆 42" transform="translate(174 803)" fill="none" stroke="red" stroke-width="1">
      <circle cx="4.5" cy="4.5" r="4.5" stroke="none"/>
      <circle cx="4.5" cy="4.5" r="4" fill="none"/>
    </g>
    <g id="椭圆_44" data-name="椭圆 44" transform="translate(186 803)" fill="none" stroke="red" stroke-width="1">
      <circle cx="4.5" cy="4.5" r="4.5" stroke="none"/>
      <circle cx="4.5" cy="4.5" r="4" fill="none"/>
    </g>
    <g id="椭圆_47" data-name="椭圆 47" transform="translate(200 803)" fill="none" stroke="red" stroke-width="1">
      <circle cx="4.5" cy="4.5" r="4.5" stroke="none"/>
      <circle cx="4.5" cy="4.5" r="4" fill="none"/>
    </g>
    <g id="椭圆_43" data-name="椭圆 43" transform="translate(174 813)" fill="none" stroke="red" stroke-width="1">
      <circle cx="4.5" cy="4.5" r="4.5" stroke="none"/>
      <circle cx="4.5" cy="4.5" r="4" fill="none"/>
    </g>
    <g id="椭圆_45" data-name="椭圆 45" transform="translate(186 813)" fill="none" stroke="red" stroke-width="1">
      <circle cx="4.5" cy="4.5" r="4.5" stroke="none"/>
      <circle cx="4.5" cy="4.5" r="4" fill="none"/>
    </g>
    <g id="椭圆_50" data-name="椭圆 50" transform="translate(186 823)" fill="none" stroke="red" stroke-width="1">
      <circle cx="4.5" cy="4.5" r="4.5" stroke="none"/>
      <circle cx="4.5" cy="4.5" r="4" fill="none"/>
    </g>
    <g id="椭圆_48" data-name="椭圆 48" transform="translate(200 813)" fill="none" stroke="red" stroke-width="1">
      <circle cx="4.5" cy="4.5" r="4.5" stroke="none"/>
      <circle cx="4.5" cy="4.5" r="4" fill="none"/>
    </g>
    <g id="椭圆_46" data-name="椭圆 46" transform="translate(174 823)" fill="none" stroke="red" stroke-width="1">
      <circle cx="4.5" cy="4.5" r="4.5" stroke="none"/>
      <circle cx="4.5" cy="4.5" r="4" fill="none"/>
    </g>
    <g id="椭圆_51" data-name="椭圆 51" transform="translate(176 839)" fill="none" stroke="red" stroke-width="1">
      <circle cx="5.5" cy="5.5" r="5.5" stroke="none"/>
      <circle cx="5.5" cy="5.5" r="5" fill="none"/>
    </g>
    <g id="组_84" data-name="组 84" transform="translate(263.558 3.058)">
      <g id="组_66" data-name="组 66" transform="translate(-88.595 848.236)">
        <path id="路径_72" data-name="路径 72" d="M.3.384,1.647,1.647,6.59,6.59" transform="translate(0.243)" fill="red" stroke="red" stroke-width="1"/>
        <path id="路径_71" data-name="路径 71" d="M6.468-1.5-.295,4.756" transform="translate(0.295 1.913)" fill="red" stroke="red" stroke-width="1"/>
      </g>
      <g id="椭圆_29" data-name="椭圆 29" transform="translate(-90 847)" fill="none" stroke="red" stroke-width="1">
        <circle cx="4.942" cy="4.942" r="4.942" stroke="none"/>
        <circle cx="4.942" cy="4.942" r="4.442" fill="none"/>
      </g>
    </g>
    <g id="椭圆_49" data-name="椭圆 49" transform="translate(200 823)" fill="none" stroke="red" stroke-width="1">
      <circle cx="4.5" cy="4.5" r="4.5" stroke="none"/>
      <circle cx="4.5" cy="4.5" r="4" fill="none"/>
    </g>
    <g id="多边形_12" data-name="多边形 12" transform="translate(196 879) rotate(180)" fill="none">
      <path d="M6,0l6,7H0Z" stroke="none"/>
      <path d="M 6 1.536593437194824 L 2.174222946166992 6 L 9.825777053833008 6 L 6 1.536593437194824 M 6 0 L 12 7 L 0 7 L 6 0 Z" stroke="none" fill="red"/>
    </g>
    <path id="减去_26" data-name="减去 26" d="M7,16H3a3,3,0,0,1-3-3V6A3,3,0,0,1,3,3H7V4H3A2,2,0,0,0,1,6v7a2,2,0,0,0,2,2H7v1Z" transform="translate(198 885) rotate(180)" fill="red"/>
  </g>
</svg>
