<svg xmlns="http://www.w3.org/2000/svg" width="98.922" height="196.518" viewBox="0 0 98.922 196.518">
  <g id="组_133" data-name="组 133" transform="translate(-1148.078 -1056.5)">
    <line id="直线_358" data-name="直线 358" y2="16" transform="translate(1199.5 1112.5)" fill="none" stroke="#892c03" stroke-width="1"/>
    <line id="直线_361" data-name="直线 361" x1="66" transform="translate(1172 1134.5)" fill="none" stroke="#892c03" stroke-width="1"/>
    <line id="直线_364" data-name="直线 364" x1="36" transform="translate(1160 1154.5)" fill="none" stroke="#892c03" stroke-width="1"/>
    <line id="直线_360" data-name="直线 360" y2="16" transform="translate(1219.5 1112.5)" fill="none" stroke="#892c03" stroke-width="1"/>
    <line id="直线_362" data-name="直线 362" y2="20" transform="translate(1172.5 1134.5)" fill="none" stroke="#892c03" stroke-width="1"/>
    <line id="直线_367" data-name="直线 367" x1="4" y2="14" transform="translate(1159.5 1183.5)" fill="none" stroke="#892c03" stroke-width="1"/>
    <line id="直线_370" data-name="直线 370" x1="3" y2="11" transform="translate(1194.5 1186.5)" fill="none" stroke="#892c03" stroke-width="1"/>
    <line id="直线_371" data-name="直线 371" x1="4" y2="13" transform="translate(1191.5 1187.5)" fill="none" stroke="#892c03" stroke-width="1"/>
    <line id="直线_368" data-name="直线 368" x1="4" y2="13" transform="translate(1156.5 1187.5)" fill="none" stroke="#892c03" stroke-width="1"/>
    <line id="直线_365" data-name="直线 365" y2="33" transform="translate(1160.5 1154.5)" fill="none" stroke="#892c03" stroke-width="1"/>
    <line id="直线_369" data-name="直线 369" y2="28" transform="translate(1160.5 1198.5)" fill="none" stroke="#892c03" stroke-width="1"/>
    <line id="直线_382" data-name="直线 382" y2="39" transform="translate(1194.5 1198.5)" fill="none" stroke="#892c03" stroke-width="1"/>
    <line id="直线_366" data-name="直线 366" y2="33" transform="translate(1195.5 1154.5)" fill="none" stroke="#892c03" stroke-width="1"/>
    <line id="直线_363" data-name="直线 363" y2="50" transform="translate(1237.5 1134.5)" fill="none" stroke="#892c03" stroke-width="1"/>
    <line id="直线_390" data-name="直线 390" y2="9" transform="translate(1237.5 1188.5)" fill="none" stroke="#892c03" stroke-width="1"/>
    <line id="直线_392" data-name="直线 392" y2="32" transform="translate(1237.5 1202)" fill="none" stroke="#892c03" stroke-width="1"/>
    <line id="直线_391" data-name="直线 391" x2="5" y2="5" transform="translate(1232.5 1183.5)" fill="none" stroke="#892c03" stroke-width="1"/>
    <line id="直线_354" data-name="直线 354" y2="12" transform="translate(1209.5 1069.5)" fill="none" stroke="#892c03" stroke-width="1"/>
    <line id="直线_355" data-name="直线 355" y2="10" transform="translate(1209.5 1056.5)" fill="none" stroke="#892c03" stroke-width="1"/>
    <line id="直线_357" data-name="直线 357" y2="14" transform="translate(1209.5 1089.5)" fill="none" stroke="#892c03" stroke-width="1"/>
    <line id="直线_359" data-name="直线 359" y2="28" transform="translate(1209.5 1106.5)" fill="none" stroke="#892c03" stroke-width="1"/>
    <path id="路径_77" data-name="路径 77" d="M0,0V5" transform="translate(1159.5 1244.5)" fill="#892c03" stroke="#892c03" stroke-width="1"/>
    <path id="路径_78" data-name="路径 78" d="M0,0V5" transform="translate(1161.5 1244.5)" fill="#892c03" stroke="#892c03" stroke-width="1"/>
    <path id="路径_79" data-name="路径 79" d="M0,0V6.692" transform="translate(1194.5 1239.808)" fill="#892c03" stroke="#892c03" stroke-width="1"/>
    <path id="路径_80" data-name="路径 80" d="M0,0V8" transform="translate(1200.5 1238.5)" fill="#892c03" stroke="#892c03" stroke-width="1"/>
    <path id="路径_83" data-name="路径 83" d="M0,0V12.58" transform="translate(1206.5 1233.92)" fill="#892c03" stroke="#892c03" stroke-width="1"/>
    <path id="路径_82" data-name="路径 82" d="M0,0V14.031" transform="translate(1178.5 1233.021)" fill="#892c03" stroke="#892c03" stroke-width="1"/>
    <path id="路径_81" data-name="路径 81" d="M0,0V4.942" transform="translate(1200.5 1231.986)" fill="#892c03" stroke="#892c03" stroke-width="1"/>
    <path id="路径_85" data-name="路径 85" d="M0,0V3.014" transform="translate(1235.5 1244.986)" fill="#892c03" stroke="#892c03" stroke-width="1"/>
    <path id="路径_86" data-name="路径 86" d="M0,0V3.014" transform="translate(1233.5 1241.986)" fill="#892c03" stroke="#892c03" stroke-width="1"/>
    <path id="路径_87" data-name="路径 87" d="M.08,0V1.979" transform="translate(1231.431 1240.007)" fill="#892c03" stroke="#892c03" stroke-width="1"/>
    <path id="路径_88" data-name="路径 88" d="M.1,0V2.371" transform="translate(1242.431 1247.616)" fill="#892c03" stroke="#892c03" stroke-width="1"/>
    <path id="路径_89" data-name="路径 89" d="M.1,0V4.4" transform="translate(1231.431 1247.616)" fill="#892c03" stroke="#892c03" stroke-width="1"/>
    <path id="路径_90" data-name="路径 90" d="M.1,0V4.028" transform="translate(1235.398 1248.99)" fill="#892c03" stroke="#892c03" stroke-width="1"/>
    <path id="路径_91" data-name="路径 91" d="M.1,0V4.028" transform="translate(1237.398 1248.99)" fill="#892c03" stroke="#892c03" stroke-width="1"/>
    <line id="直线_376" data-name="直线 376" x2="4" y2="5" transform="translate(1154.5 1231.5)" fill="none" stroke="#892c03" stroke-width="1"/>
    <line id="直线_378" data-name="直线 378" x1="4" y2="5" transform="translate(1162.5 1231.5)" fill="none" stroke="#892c03" stroke-width="1"/>
    <line id="直线_377" data-name="直线 377" x2="4" y2="5" transform="translate(1152.5 1233.5)" fill="none" stroke="#892c03" stroke-width="1"/>
    <line id="直线_379" data-name="直线 379" x1="4" y2="5" transform="translate(1164.5 1233.5)" fill="none" stroke="#892c03" stroke-width="1"/>
    <line id="直线_356" data-name="直线 356" x2="10" y2="7" transform="translate(1199.5 1082.5)" fill="none" stroke="#892c03" stroke-width="1"/>
    <g id="组_110" data-name="组 110" transform="translate(1282.514 297.975)">
      <line id="直线_114" data-name="直线 114" x1="4.486" y2="3.845" transform="translate(-77.5 768.5)" fill="none" stroke="#892c03" stroke-width="1"/>
      <line id="直线_343" data-name="直线 343" x1="4.486" y2="3.845" transform="translate(-77.5 771.704)" fill="none" stroke="#892c03" stroke-width="1"/>
      <line id="直线_113" data-name="直线 113" x2="4.486" y2="3.845" transform="translate(-73.014 768.5)" fill="none" stroke="#892c03" stroke-width="1"/>
      <line id="直线_344" data-name="直线 344" x2="4.486" y2="3.845" transform="translate(-73.014 771.704)" fill="none" stroke="#892c03" stroke-width="1"/>
    </g>
    <g id="组_111" data-name="组 111" transform="translate(1136.486 1875.025) rotate(-180)">
      <line id="直线_114-2" data-name="直线 114" x1="4.486" y2="3.845" transform="translate(-77.5 768.5)" fill="none" stroke="#892c03" stroke-width="1"/>
      <line id="直线_343-2" data-name="直线 343" x1="4.486" y2="3.845" transform="translate(-77.5 771.704)" fill="none" stroke="#892c03" stroke-width="1"/>
      <line id="直线_113-2" data-name="直线 113" x2="4.486" y2="3.845" transform="translate(-73.014 768.5)" fill="none" stroke="#892c03" stroke-width="1"/>
      <line id="直线_344-2" data-name="直线 344" x2="4.486" y2="3.845" transform="translate(-73.014 771.704)" fill="none" stroke="#892c03" stroke-width="1"/>
    </g>
    <g id="椭圆_85" data-name="椭圆 85" transform="translate(1195 1116)" fill="none" stroke="#892c03" stroke-width="1">
      <circle cx="4.5" cy="4.5" r="4.5" stroke="none"/>
      <circle cx="4.5" cy="4.5" r="4" fill="none"/>
    </g>
    <g id="椭圆_86" data-name="椭圆 86" transform="translate(1205 1116)" fill="none" stroke="#892c03" stroke-width="1">
      <circle cx="4.5" cy="4.5" r="4.5" stroke="none"/>
      <circle cx="4.5" cy="4.5" r="4" fill="none"/>
    </g>
    <g id="椭圆_87" data-name="椭圆 87" transform="translate(1215 1116)" fill="none" stroke="#892c03" stroke-width="1">
      <circle cx="4.5" cy="4.5" r="4.5" stroke="none"/>
      <circle cx="4.5" cy="4.5" r="4" fill="none"/>
    </g>
    <g id="矩形_58" data-name="矩形 58" transform="translate(1163 1175) rotate(180)" fill="none" stroke="#892c03" stroke-width="1">
      <rect width="5" height="13" stroke="none"/>
      <rect x="0.5" y="0.5" width="4" height="12" fill="none"/>
    </g>
    <g id="矩形_60" data-name="矩形 60" transform="translate(1171 1204) rotate(180)" fill="none" stroke="#892c03" stroke-width="1">
      <rect width="21" height="21" stroke="none"/>
      <rect x="0.5" y="0.5" width="20" height="20" fill="none"/>
    </g>
    <g id="矩形_69" data-name="矩形 69" transform="translate(1247 1248) rotate(180)" fill="none" stroke="#892c03" stroke-width="1">
      <rect width="20" height="18" stroke="none"/>
      <rect x="0.5" y="0.5" width="19" height="17" fill="none"/>
    </g>
    <g id="矩形_61" data-name="矩形 61" transform="translate(1206 1205) rotate(180)" fill="none" stroke="#892c03" stroke-width="1">
      <rect width="31" height="22" stroke="none"/>
      <rect x="0.5" y="0.5" width="30" height="21" fill="none"/>
    </g>
    <g id="矩形_59" data-name="矩形 59" transform="translate(1198 1176) rotate(180)" fill="none" stroke="#892c03" stroke-width="1">
      <rect width="5" height="13" stroke="none"/>
      <rect x="0.5" y="0.5" width="4" height="12" fill="none"/>
    </g>
    <g id="矩形_63" data-name="矩形 63" transform="translate(1240 1173) rotate(180)" fill="none" stroke="#892c03" stroke-width="1">
      <rect width="5" height="12" stroke="none"/>
      <rect x="0.5" y="0.5" width="4" height="11" fill="none"/>
    </g>
    <g id="矩形_62" data-name="矩形 62" transform="translate(1235 1181)" fill="none" stroke="#892c03" stroke-width="1">
      <rect width="3" height="4" stroke="none"/>
      <rect x="0.5" y="0.5" width="2" height="3" fill="none"/>
    </g>
    <g id="路径_74" data-name="路径 74" transform="translate(1154 1187)" fill="none">
      <path d="M0,0H8.653L12,12H3.242Z" stroke="none"/>
      <path d="M 1.305976867675781 1 L 4.007293224334717 11 L 10.68296432495117 11 L 7.894164562225342 1 L 1.305976867675781 1 M 0 0 L 8.653440475463867 0 L 12 12 L 3.241580009460449 12 L 0 0 Z" stroke="none" fill="#892c03"/>
    </g>
    <g id="路径_75" data-name="路径 75" transform="translate(1189 1187)" fill="none">
      <path d="M-11.372,0H8.653L12,12H3.242Z" stroke="none"/>
      <path d="M -8.578393936157227 1 L 3.599539756774902 11 L 10.68296146392822 11 L 7.894169807434082 1 L -8.578393936157227 1 M -11.37194442749023 0 L 8.653446197509766 0 L 11.99999618530273 12 L 3.241575956344604 12 L -11.37194442749023 0 Z" stroke="none" fill="#892c03"/>
    </g>
    <g id="矩形_64" data-name="矩形 64" transform="translate(1155 1200)" fill="none" stroke="#892c03" stroke-width="1">
      <rect width="3" height="3" stroke="none"/>
      <rect x="0.5" y="0.5" width="2" height="2" fill="none"/>
    </g>
    <g id="矩形_65" data-name="矩形 65" transform="translate(1197 1184)" fill="none" stroke="#892c03" stroke-width="1">
      <rect width="3" height="3" stroke="none"/>
      <rect x="0.5" y="0.5" width="2" height="2" fill="none"/>
    </g>
    <g id="矩形_66" data-name="矩形 66" transform="translate(1180 1200)" fill="none" stroke="#892c03" stroke-width="1">
      <rect width="13" height="3" rx="1.5" stroke="none"/>
      <rect x="0.5" y="0.5" width="12" height="2" rx="1" fill="none"/>
    </g>
    <line id="直线_372" data-name="直线 372" x2="4" y2="7" transform="translate(1160.5 1226.5)" fill="none" stroke="#892c03" stroke-width="1"/>
    <line id="直线_374" data-name="直线 374" x1="4" y2="7" transform="translate(1156.5 1226.5)" fill="none" stroke="#892c03" stroke-width="1"/>
    <line id="直线_373" data-name="直线 373" x2="7" y2="10" transform="translate(1165.5 1236.5)" fill="none" stroke="#892c03" stroke-width="1"/>
    <line id="直线_375" data-name="直线 375" y1="11" x2="7" transform="translate(1148.5 1236.5)" fill="none" stroke="#892c03" stroke-width="1"/>
    <line id="直线_380" data-name="直线 380" x2="11" transform="translate(1148.5 1247.5)" fill="none" stroke="#892c03" stroke-width="1"/>
    <line id="直线_381" data-name="直线 381" x2="11" transform="translate(1161.5 1247.5)" fill="none" stroke="#892c03" stroke-width="1"/>
    <line id="直线_383" data-name="直线 383" x2="3" transform="translate(1194 1237.5)" fill="none" stroke="#892c03" stroke-width="1"/>
    <line id="直线_386" data-name="直线 386" x2="3" transform="translate(1199 1236.5)" fill="none" stroke="#892c03" stroke-width="1"/>
    <line id="直线_393" data-name="直线 393" x2="5" transform="translate(1238 1202.5)" fill="none" stroke="#892c03" stroke-width="1"/>
    <line id="直线_384" data-name="直线 384" x2="3" transform="translate(1194 1239.5)" fill="none" stroke="#892c03" stroke-width="1"/>
    <line id="直线_387" data-name="直线 387" x2="3" transform="translate(1177 1237.5)" fill="none" stroke="#892c03" stroke-width="1"/>
    <line id="直线_389" data-name="直线 389" x2="29" transform="translate(1178 1246.5)" fill="none" stroke="#892c03" stroke-width="1"/>
    <line id="直线_388" data-name="直线 388" x2="3" transform="translate(1177 1238.5)" fill="none" stroke="#892c03" stroke-width="1"/>
    <line id="直线_385" data-name="直线 385" x2="3" transform="translate(1199 1238.5)" fill="none" stroke="#892c03" stroke-width="1"/>
    <line id="直线_394" data-name="直线 394" x2="3" transform="translate(1232 1251.5)" fill="none" stroke="#892c03" stroke-width="1"/>
    <line id="直线_395" data-name="直线 395" x2="5" transform="translate(1238 1251.5)" fill="none" stroke="#892c03" stroke-width="1"/>
    <g id="矩形_67" data-name="矩形 67" transform="translate(1205 1231)" fill="none" stroke="#892c03" stroke-width="1">
      <rect width="3" height="3" stroke="none"/>
      <rect x="0.5" y="0.5" width="2" height="2" fill="none"/>
    </g>
    <path id="减去_32" data-name="减去 32" d="M6,13A6,6,0,1,1,7,1.083V2.1A5,5,0,1,0,11,7h1A6.006,6.006,0,0,1,6,13Z" transform="translate(1231 1196)" fill="#892c03"/>
    <g id="路径_84" data-name="路径 84" transform="translate(1232 1234)" fill="none">
      <path d="M1.053,2.994H3.019V0H6.866V11H3.019V8.922H1.053V2.994Z" stroke="none"/>
      <path d="M 4.018917083740234 1 L 4.018917083740234 2.993900299072266 L 4.018917083740234 3.993899822235107 L 3.018916606903076 3.993899822235107 L 2.052976608276367 3.993899822235107 L 2.052976608276367 6.028260231018066 L 2.052976608276367 7.404419898986816 L 2.052976608276367 7.921629905700684 L 3.018916606903076 7.921629905700684 L 4.018917083740234 7.921629905700684 L 4.018917083740234 8.921629905700684 L 4.018917083740234 10 L 4.458256721496582 10 L 5.866456985473633 10 L 5.866456985473633 1 L 4.018917083740234 1 M 3.018916606903076 0 L 6.866456985473633 0 L 6.866456985473633 11 L 4.458256721496582 11 L 3.018916606903076 11 L 3.018916606903076 8.921629905700684 L 1.052976608276367 8.921629905700684 L 1.052976608276367 7.404419898986816 L 1.052976608276367 6.028260231018066 L 1.052976608276367 2.993900299072266 L 3.018916606903076 2.993900299072266 L 3.018916606903076 0 Z" stroke="none" fill="#892c03"/>
    </g>
  </g>
</svg>
