<svg xmlns="http://www.w3.org/2000/svg" width="46" height="107.5" viewBox="0 0 46 107.5">
  <g id="组_97" data-name="组 97" transform="translate(472 -700.5)">
    <line id="直线_301" data-name="直线 301" y2="13" transform="translate(-453.5 700.5)" fill="none" stroke="red" stroke-width="1"/>
    <line id="直线_302" data-name="直线 302" y2="10" transform="translate(-453.5 715.5)" fill="none" stroke="red" stroke-width="1"/>
    <line id="直线_293" data-name="直线 293" y2="9" transform="translate(-453.5 733.5)" fill="none" stroke="red" stroke-width="1"/>
    <line id="直线_294" data-name="直线 294" y2="8" transform="translate(-466.5 777.5)" fill="none" stroke="red" stroke-width="1"/>
    <line id="直线_295" data-name="直线 295" y2="3" transform="translate(-466.5 787.5)" fill="none" stroke="red" stroke-width="1"/>
    <line id="直线_296" data-name="直线 296" y2="5" transform="translate(-466.5 799.5)" fill="none" stroke="red" stroke-width="1"/>
    <line id="直线_290" data-name="直线 290" x1="11" transform="translate(-472 785.5)" fill="none" stroke="red" stroke-width="1"/>
    <line id="直线_291" data-name="直线 291" x1="11" transform="translate(-472 787.5)" fill="none" stroke="red" stroke-width="1"/>
    <line id="直线_297" data-name="直线 297" x1="5" transform="translate(-470.5 806.5)" fill="none" stroke="red" stroke-width="1"/>
    <line id="直线_292" data-name="直线 292" x1="7" transform="translate(-471 804.5)" fill="none" stroke="red" stroke-width="1"/>
    <line id="直线_277" data-name="直线 277" x1="7" transform="translate(-433 800.5)" fill="none" stroke="red" stroke-width="1"/>
    <line id="直线_298" data-name="直线 298" x1="4" transform="translate(-469.5 807.5)" fill="none" stroke="red" stroke-width="1"/>
    <line id="直线_281" data-name="直线 281" y2="12" transform="translate(-429.5 777.5)" fill="none" stroke="red" stroke-width="1"/>
    <line id="直线_279" data-name="直线 279" y2="5" transform="translate(-429.5 795.5)" fill="none" stroke="red" stroke-width="1"/>
    <line id="直线_287" data-name="直线 287" x1="38" transform="translate(-467 777.5)" fill="none" stroke="red" stroke-width="1"/>
    <line id="直线_299" data-name="直线 299" y2="31" transform="translate(-466.5 744.5)" fill="none" stroke="red" stroke-width="1"/>
    <line id="直线_288" data-name="直线 288" y2="33" transform="translate(-440.5 744.5)" fill="none" stroke="red" stroke-width="1"/>
    <line id="直线_289" data-name="直线 289" y2="33" transform="translate(-453.5 744.5)" fill="none" stroke="red" stroke-width="1"/>
    <line id="直线_300" data-name="直线 300" x2="12" y2="8" transform="translate(-465.5 726.5)" fill="none" stroke="red" stroke-width="1"/>
    <g id="组_92" data-name="组 92" transform="translate(-383 -57)">
      <line id="直线_109" data-name="直线 109" x2="6" y2="5" transform="translate(-73.5 779.5)" fill="none" stroke="red" stroke-width="1"/>
      <line id="直线_110" data-name="直线 110" x1="6" y2="5" transform="translate(-73.5 779.5)" fill="none" stroke="red" stroke-width="1"/>
    </g>
    <g id="组_93" data-name="组 93" transform="translate(-383 -57)">
      <line id="直线_111" data-name="直线 111" x1="7" y2="4" transform="translate(-77.5 772.5)" fill="none" stroke="red" stroke-width="1"/>
      <line id="直线_114" data-name="直线 114" x1="7" y2="4" transform="translate(-77.5 770.5)" fill="none" stroke="red" stroke-width="1"/>
      <line id="直线_112" data-name="直线 112" x2="7" y2="4" transform="translate(-70.5 772.5)" fill="none" stroke="red" stroke-width="1"/>
      <line id="直线_113" data-name="直线 113" x2="7" y2="4" transform="translate(-70.5 770.5)" fill="none" stroke="red" stroke-width="1"/>
    </g>
    <g id="组_91" data-name="组 91" transform="translate(-524 1515) rotate(-180)">
      <line id="直线_111-2" data-name="直线 111" x1="7" y2="4" transform="translate(-77.5 772.5)" fill="none" stroke="red" stroke-width="1"/>
      <line id="直线_114-2" data-name="直线 114" x1="7" y2="4" transform="translate(-77.5 770.5)" fill="none" stroke="red" stroke-width="1"/>
      <line id="直线_112-2" data-name="直线 112" x2="7" y2="4" transform="translate(-70.5 772.5)" fill="none" stroke="red" stroke-width="1"/>
      <line id="直线_113-2" data-name="直线 113" x2="7" y2="4" transform="translate(-70.5 770.5)" fill="none" stroke="red" stroke-width="1"/>
    </g>
    <g id="椭圆_69" data-name="椭圆 69" transform="translate(-471 746)" fill="none" stroke="red" stroke-width="1">
      <circle cx="4.5" cy="4.5" r="4.5" stroke="none"/>
      <circle cx="4.5" cy="4.5" r="4" fill="none"/>
    </g>
    <g id="椭圆_70" data-name="椭圆 70" transform="translate(-458 746)" fill="none" stroke="red" stroke-width="1">
      <circle cx="4.5" cy="4.5" r="4.5" stroke="none"/>
      <circle cx="4.5" cy="4.5" r="4" fill="none"/>
    </g>
    <g id="椭圆_71" data-name="椭圆 71" transform="translate(-445 746)" fill="none" stroke="red" stroke-width="1">
      <circle cx="4.5" cy="4.5" r="4.5" stroke="none"/>
      <circle cx="4.5" cy="4.5" r="4" fill="none"/>
    </g>
    <g id="椭圆_72" data-name="椭圆 72" transform="translate(-471 756)" fill="none" stroke="red" stroke-width="1">
      <circle cx="4.5" cy="4.5" r="4.5" stroke="none"/>
      <circle cx="4.5" cy="4.5" r="4" fill="none"/>
    </g>
    <g id="椭圆_66" data-name="椭圆 66" transform="translate(-458 756)" fill="none" stroke="red" stroke-width="1">
      <circle cx="4.5" cy="4.5" r="4.5" stroke="none"/>
      <circle cx="4.5" cy="4.5" r="4" fill="none"/>
    </g>
    <g id="椭圆_67" data-name="椭圆 67" transform="translate(-445 756)" fill="none" stroke="red" stroke-width="1">
      <circle cx="4.5" cy="4.5" r="4.5" stroke="none"/>
      <circle cx="4.5" cy="4.5" r="4" fill="none"/>
    </g>
    <g id="椭圆_73" data-name="椭圆 73" transform="translate(-471 766)" fill="none" stroke="red" stroke-width="1">
      <circle cx="4.5" cy="4.5" r="4.5" stroke="none"/>
      <circle cx="4.5" cy="4.5" r="4" fill="none"/>
    </g>
    <g id="组_90" data-name="组 90" transform="translate(-381.443 -56.942)">
      <g id="组_66" data-name="组 66" transform="translate(-88.595 848.236)">
        <path id="路径_72" data-name="路径 72" d="M.3.384,1.647,1.647,6.59,6.59" transform="translate(0.243)" fill="none" stroke="red" stroke-width="1"/>
        <path id="路径_71" data-name="路径 71" d="M6.468-1.5-.295,4.756" transform="translate(0.295 1.913)" fill="none" stroke="red" stroke-width="1"/>
      </g>
      <g id="椭圆_29" data-name="椭圆 29" transform="translate(-90 847)" fill="none" stroke="red" stroke-width="1">
        <circle cx="4.942" cy="4.942" r="4.942" stroke="none"/>
        <circle cx="4.942" cy="4.942" r="4.442" fill="none"/>
      </g>
    </g>
    <g id="椭圆_68" data-name="椭圆 68" transform="translate(-458 766)" fill="none" stroke="red" stroke-width="1">
      <circle cx="4.5" cy="4.5" r="4.5" stroke="none"/>
      <circle cx="4.5" cy="4.5" r="4" fill="none"/>
    </g>
    <g id="椭圆_65" data-name="椭圆 65" transform="translate(-445 766)" fill="none" stroke="red" stroke-width="1">
      <circle cx="4.5" cy="4.5" r="4.5" stroke="none"/>
      <circle cx="4.5" cy="4.5" r="4" fill="none"/>
    </g>
    <g id="矩形_54" data-name="矩形 54" transform="translate(-432 783)" fill="none" stroke="red" stroke-width="1">
      <rect width="5" height="13" stroke="none"/>
      <rect x="0.5" y="0.5" width="4" height="12" fill="none"/>
    </g>
    <g id="矩形_55" data-name="矩形 55" transform="translate(-431 789)" fill="none" stroke="red" stroke-width="1">
      <rect width="3" height="1" stroke="none"/>
      <rect x="0.5" y="0.5" width="2" fill="none"/>
    </g>
  </g>
</svg>
