<svg xmlns="http://www.w3.org/2000/svg" width="74.5" height="176" viewBox="0 0 74.5 176">
  <g id="组_130" data-name="组 130" transform="translate(-2770 -726.5)">
    <line id="直线_412" data-name="直线 412" y2="42" transform="translate(2791.5 726.5)" fill="none" stroke="#892c03" stroke-width="1"/>
    <line id="直线_413" data-name="直线 413" y2="15" transform="translate(2781.5 746.5)" fill="none" stroke="#892c03" stroke-width="1"/>
    <line id="直线_406" data-name="直线 406" x2="48" transform="translate(2792 733.5)" fill="none" stroke="#892c03" stroke-width="1"/>
    <line id="直线_407" data-name="直线 407" x2="33" transform="translate(2791 737.5)" fill="none" stroke="#892c03" stroke-width="1"/>
    <line id="直线_421" data-name="直线 421" y2="29.444" transform="translate(2781.5 826.5)" fill="none" stroke="#892c03" stroke-width="1"/>
    <line id="直线_414" data-name="直线 414" y2="15" transform="translate(2801.5 746.5)" fill="none" stroke="#892c03" stroke-width="1"/>
    <line id="直线_422" data-name="直线 422" y2="29.444" transform="translate(2801.5 826.5)" fill="none" stroke="#892c03" stroke-width="1"/>
    <line id="直线_425" data-name="直线 425" x1="48" transform="translate(2770.5 882.5)" fill="none" stroke="#892c03" stroke-width="1"/>
    <line id="直线_415" data-name="直线 415" y2="14" transform="translate(2791.5 770.5)" fill="none" stroke="#892c03" stroke-width="1"/>
    <line id="直线_408" data-name="直线 408" y2="34" transform="translate(2839.5 733.5)" fill="none" stroke="#892c03" stroke-width="1"/>
    <line id="直线_409" data-name="直线 409" y2="30" transform="translate(2823.5 737.5)" fill="none" stroke="#892c03" stroke-width="1"/>
    <line id="直线_416" data-name="直线 416" y2="14" transform="translate(2791.5 797.5)" fill="none" stroke="#892c03" stroke-width="1"/>
    <path id="路径_92" data-name="路径 92" d="M0,0V5" transform="translate(2770.5 879.5)" fill="none" stroke="#892c03" stroke-width="1"/>
    <line id="直线_417" data-name="直线 417" y2="36" transform="translate(2839.5 780.5)" fill="none" stroke="#892c03" stroke-width="1"/>
    <line id="直线_418" data-name="直线 418" y2="36" transform="translate(2824.5 780.5)" fill="none" stroke="#892c03" stroke-width="1"/>
    <line id="直线_419" data-name="直线 419" y2="89" transform="translate(2791.5 813.5)" fill="none" stroke="#892c03" stroke-width="1"/>
    <line id="直线_420" data-name="直线 420" x2="8" y2="9" transform="translate(2783.5 788.5)" fill="none" stroke="#892c03" stroke-width="1"/>
    <line id="直线_410" data-name="直线 410" x2="12" y2="12" transform="translate(2827.5 768.5)" fill="none" stroke="#892c03" stroke-width="1"/>
    <line id="直线_411" data-name="直线 411" x2="12" y2="12" transform="translate(2812.5 768.5)" fill="none" stroke="#892c03" stroke-width="1"/>
    <g id="组_122" data-name="组 122" transform="translate(2862 2)">
      <line id="直线_109" data-name="直线 109" x2="6" y2="5" transform="translate(-73.5 779.5)" fill="none" stroke="#892c03" stroke-width="1"/>
      <line id="直线_110" data-name="直线 110" x1="6" y2="5" transform="translate(-73.5 779.5)" fill="none" stroke="#892c03" stroke-width="1"/>
    </g>
    <g id="组_120" data-name="组 120" transform="translate(2910 -14)">
      <line id="直线_109-2" data-name="直线 109" x2="6" y2="5" transform="translate(-73.5 779.5)" fill="none" stroke="#892c03" stroke-width="1"/>
      <line id="直线_110-2" data-name="直线 110" x1="6" y2="5" transform="translate(-73.5 779.5)" fill="none" stroke="#892c03" stroke-width="1"/>
    </g>
    <g id="组_121" data-name="组 121" transform="translate(2894 -14)">
      <line id="直线_109-3" data-name="直线 109" x2="6" y2="5" transform="translate(-73.5 779.5)" fill="none" stroke="#892c03" stroke-width="1"/>
      <line id="直线_110-3" data-name="直线 110" x1="6" y2="5" transform="translate(-73.5 779.5)" fill="none" stroke="#892c03" stroke-width="1"/>
    </g>
    <g id="组_118" data-name="组 118" transform="translate(2912.514 -22.025)">
      <line id="直线_114" data-name="直线 114" x1="4.486" y2="3.845" transform="translate(-77.5 768.5)" fill="none" stroke="#892c03" stroke-width="1"/>
      <line id="直线_343" data-name="直线 343" x1="4.486" y2="3.845" transform="translate(-77.5 771.704)" fill="none" stroke="#892c03" stroke-width="1"/>
      <line id="直线_113" data-name="直线 113" x2="4.486" y2="3.845" transform="translate(-73.014 768.5)" fill="none" stroke="#892c03" stroke-width="1"/>
      <line id="直线_344" data-name="直线 344" x2="4.486" y2="3.845" transform="translate(-73.014 771.704)" fill="none" stroke="#892c03" stroke-width="1"/>
    </g>
    <g id="组_119" data-name="组 119" transform="translate(2896.514 -22.025)">
      <line id="直线_114-2" data-name="直线 114" x1="4.486" y2="3.845" transform="translate(-77.5 768.5)" fill="none" stroke="#892c03" stroke-width="1"/>
      <line id="直线_343-2" data-name="直线 343" x1="4.486" y2="3.845" transform="translate(-77.5 771.704)" fill="none" stroke="#892c03" stroke-width="1"/>
      <line id="直线_113-2" data-name="直线 113" x2="4.486" y2="3.845" transform="translate(-73.014 768.5)" fill="none" stroke="#892c03" stroke-width="1"/>
      <line id="直线_344-2" data-name="直线 344" x2="4.486" y2="3.845" transform="translate(-73.014 771.704)" fill="none" stroke="#892c03" stroke-width="1"/>
    </g>
    <g id="组_123" data-name="组 123" transform="translate(2864.514 -1.025)">
      <line id="直线_114-3" data-name="直线 114" x1="4.486" y2="3.845" transform="translate(-77.5 768.5)" fill="none" stroke="#892c03" stroke-width="1"/>
      <line id="直线_343-3" data-name="直线 343" x1="4.486" y2="3.845" transform="translate(-77.5 771.704)" fill="none" stroke="#892c03" stroke-width="1"/>
      <line id="直线_113-3" data-name="直线 113" x2="4.486" y2="3.845" transform="translate(-73.014 768.5)" fill="none" stroke="#892c03" stroke-width="1"/>
      <line id="直线_344-3" data-name="直线 344" x2="4.486" y2="3.845" transform="translate(-73.014 771.704)" fill="none" stroke="#892c03" stroke-width="1"/>
    </g>
    <g id="组_124" data-name="组 124" transform="translate(2718.486 1583.025) rotate(-180)">
      <line id="直线_114-4" data-name="直线 114" x1="4.486" y2="3.845" transform="translate(-77.5 768.5)" fill="none" stroke="#892c03" stroke-width="1"/>
      <line id="直线_343-4" data-name="直线 343" x1="4.486" y2="3.845" transform="translate(-77.5 771.704)" fill="none" stroke="#892c03" stroke-width="1"/>
      <line id="直线_113-4" data-name="直线 113" x2="4.486" y2="3.845" transform="translate(-73.014 768.5)" fill="none" stroke="#892c03" stroke-width="1"/>
      <line id="直线_344-4" data-name="直线 344" x2="4.486" y2="3.845" transform="translate(-73.014 771.704)" fill="none" stroke="#892c03" stroke-width="1"/>
    </g>
    <g id="组_125" data-name="组 125" transform="translate(2751.486 1566.025) rotate(-180)">
      <line id="直线_114-5" data-name="直线 114" x1="4.486" y2="3.845" transform="translate(-77.5 768.5)" fill="none" stroke="#892c03" stroke-width="1"/>
      <line id="直线_343-5" data-name="直线 343" x1="4.486" y2="3.845" transform="translate(-77.5 771.704)" fill="none" stroke="#892c03" stroke-width="1"/>
      <line id="直线_113-5" data-name="直线 113" x2="4.486" y2="3.845" transform="translate(-73.014 768.5)" fill="none" stroke="#892c03" stroke-width="1"/>
      <line id="直线_344-5" data-name="直线 344" x2="4.486" y2="3.845" transform="translate(-73.014 771.704)" fill="none" stroke="#892c03" stroke-width="1"/>
    </g>
    <g id="组_126" data-name="组 126" transform="translate(2766.486 1566.025) rotate(-180)">
      <line id="直线_114-6" data-name="直线 114" x1="4.486" y2="3.845" transform="translate(-77.5 768.5)" fill="none" stroke="#892c03" stroke-width="1"/>
      <line id="直线_343-6" data-name="直线 343" x1="4.486" y2="3.845" transform="translate(-77.5 771.704)" fill="none" stroke="#892c03" stroke-width="1"/>
      <line id="直线_113-6" data-name="直线 113" x2="4.486" y2="3.845" transform="translate(-73.014 768.5)" fill="none" stroke="#892c03" stroke-width="1"/>
      <line id="直线_344-6" data-name="直线 344" x2="4.486" y2="3.845" transform="translate(-73.014 771.704)" fill="none" stroke="#892c03" stroke-width="1"/>
    </g>
    <g id="椭圆_94" data-name="椭圆 94" transform="translate(2777 750)" fill="none" stroke="#892c03" stroke-width="1">
      <circle cx="4.5" cy="4.5" r="4.5" stroke="none"/>
      <circle cx="4.5" cy="4.5" r="4" fill="none"/>
    </g>
    <g id="椭圆_97" data-name="椭圆 97" transform="translate(2777 830)" fill="none" stroke="#892c03" stroke-width="1">
      <circle cx="4.5" cy="4.5" r="4.5" stroke="none"/>
      <circle cx="4.5" cy="4.5" r="4" fill="none"/>
    </g>
    <g id="椭圆_100" data-name="椭圆 100" transform="translate(2777 843)" fill="none" stroke="#892c03" stroke-width="1">
      <circle cx="4.5" cy="4.5" r="4.5" stroke="none"/>
      <circle cx="4.5" cy="4.5" r="4" fill="none"/>
    </g>
    <g id="椭圆_95" data-name="椭圆 95" transform="translate(2787 750)" fill="none" stroke="#892c03" stroke-width="1">
      <circle cx="4.5" cy="4.5" r="4.5" stroke="none"/>
      <circle cx="4.5" cy="4.5" r="4" fill="none"/>
    </g>
    <g id="椭圆_98" data-name="椭圆 98" transform="translate(2787 830)" fill="none" stroke="#892c03" stroke-width="1">
      <circle cx="4.5" cy="4.5" r="4.5" stroke="none"/>
      <circle cx="4.5" cy="4.5" r="4" fill="none"/>
    </g>
    <g id="椭圆_101" data-name="椭圆 101" transform="translate(2787 843)" fill="none" stroke="#892c03" stroke-width="1">
      <circle cx="4.5" cy="4.5" r="4.5" stroke="none"/>
      <circle cx="4.5" cy="4.5" r="4" fill="none"/>
    </g>
    <g id="椭圆_96" data-name="椭圆 96" transform="translate(2797 750)" fill="none" stroke="#892c03" stroke-width="1">
      <circle cx="4.5" cy="4.5" r="4.5" stroke="none"/>
      <circle cx="4.5" cy="4.5" r="4" fill="none"/>
    </g>
    <g id="椭圆_99" data-name="椭圆 99" transform="translate(2797 830)" fill="none" stroke="#892c03" stroke-width="1">
      <circle cx="4.5" cy="4.5" r="4.5" stroke="none"/>
      <circle cx="4.5" cy="4.5" r="4" fill="none"/>
    </g>
    <g id="椭圆_102" data-name="椭圆 102" transform="translate(2797 843)" fill="none" stroke="#892c03" stroke-width="1">
      <circle cx="4.5" cy="4.5" r="4.5" stroke="none"/>
      <circle cx="4.5" cy="4.5" r="4" fill="none"/>
    </g>
    <g id="多边形_21" data-name="多边形 21" transform="translate(2844.5 825) rotate(180)" fill="none">
      <path d="M5,0l5,9H0Z" stroke="none"/>
      <path d="M 5 2.059127807617188 L 1.699515342712402 8 L 8.300484657287598 8 L 5 2.059127807617188 M 5 0 L 10 9 L 0 9 L 5 0 Z" stroke="none" fill="#892c03"/>
    </g>
    <g id="多边形_22" data-name="多边形 22" transform="translate(2829.5 825) rotate(180)" fill="none">
      <path d="M5,0l5,9H0Z" stroke="none"/>
      <path d="M 5 2.059127807617188 L 1.699515342712402 8 L 8.300484657287598 8 L 5 2.059127807617188 M 5 0 L 10 9 L 0 9 L 5 0 Z" stroke="none" fill="#892c03"/>
    </g>
    <g id="矩形_71" data-name="矩形 71" transform="translate(2794 880) rotate(90)" fill="none" stroke="#892c03" stroke-width="1">
      <rect width="5" height="13" stroke="none"/>
      <rect x="0.5" y="0.5" width="4" height="12" fill="none"/>
    </g>
    <g id="矩形_70" data-name="矩形 70" transform="translate(2814 879) rotate(90)" fill="none" stroke="#892c03" stroke-width="1">
      <rect width="6" height="16" stroke="none"/>
      <rect x="0.5" y="0.5" width="5" height="15" fill="none"/>
    </g>
    <line id="直线_423" data-name="直线 423" x1="11" y1="11" transform="translate(2782 877)" fill="none" stroke="#892c03" stroke-width="1"/>
    <line id="直线_424" data-name="直线 424" x2="4" transform="translate(2792.5 887.5)" fill="none" stroke="#892c03" stroke-width="1"/>
    <line id="直线_426" data-name="直线 426" x2="4" transform="translate(2778.5 877.5)" fill="none" stroke="#892c03" stroke-width="1"/>
  </g>
</svg>
