<svg xmlns="http://www.w3.org/2000/svg" xmlns:xlink="http://www.w3.org/1999/xlink" width="303.447" height="238.835" viewBox="0 0 303.447 238.835">
  <defs>
    <filter id="减去_294" x="0" y="0" width="303.447" height="238.835" filterUnits="userSpaceOnUse">
      <feOffset input="SourceAlpha"/>
      <feGaussianBlur stdDeviation="7.5" result="blur"/>
      <feFlood flood-color="#003145"/>
      <feComposite operator="in" in2="blur"/>
      <feComposite in="SourceGraphic"/>
    </filter>
    <filter id="减去_295" x="13.5" y="13.5" width="276.447" height="211.835" filterUnits="userSpaceOnUse">
      <feOffset input="SourceAlpha"/>
      <feGaussianBlur stdDeviation="3" result="blur-2"/>
      <feFlood flood-color="#0e3bf7" flood-opacity="0.161"/>
      <feComposite operator="in" in2="blur-2"/>
      <feComposite in="SourceGraphic"/>
    </filter>
  </defs>
  <g id="组_534" data-name="组 534" transform="translate(-6077.009 -4756.033)">
    <g transform="matrix(1, 0, 0, 1, 6077.01, 4756.03)" filter="url(#减去_294)">
      <path id="减去_294-2" data-name="减去 294" d="M254.446,193.835H4a4,4,0,0,1-4-4V158.759l6.461-3.692c.76-.41,1.544-.814,2.3-1.205a34.53,34.53,0,0,0,7.326-4.557,10.27,10.27,0,0,0,2.391-3.086,9.047,9.047,0,0,0,.9-4.074V51.689c0-6.121-4.989-8.736-10.272-11.5-.872-.457-1.772-.929-2.65-1.417L0,35.075V4A4,4,0,0,1,4,0H254.446a4,4,0,0,1,4,4V35.075l-6.461,3.692c-.879.489-1.78.961-2.65,1.417-5.282,2.769-10.272,5.384-10.272,11.5v90.456a9.047,9.047,0,0,0,.9,4.074,10.27,10.27,0,0,0,2.391,3.086,34.514,34.514,0,0,0,7.322,4.555c.759.391,1.544.8,2.306,1.207l6.461,3.692v31.075A4.005,4.005,0,0,1,254.446,193.835Z" transform="translate(22.5 22.5)" fill="rgba(10,132,181,0.2)"/>
    </g>
    <path id="路径_1314" data-name="路径 1314" d="M0-2,12.922,4.461V94.917L0,101.379Z" transform="translate(6099.509 4825.761)" fill="#8cddfe"/>
    <path id="路径_1315" data-name="路径 1315" d="M13.006-2,0,4.461V94.917l13.006,6.461Z" transform="translate(6344.951 4825.761)" fill="#8cddfe"/>
    <g transform="matrix(1, 0, 0, 1, 6077.01, 4756.03)" filter="url(#减去_295)">
      <g id="减去_295-2" data-name="减去 295" transform="translate(22.5 22.5)" fill="none" opacity="0.625">
        <path d="M254.446,193.835H4a4,4,0,0,1-4-4V158.759l6.461-3.692c.76-.41,1.544-.814,2.3-1.205a34.53,34.53,0,0,0,7.326-4.557,10.27,10.27,0,0,0,2.391-3.086,9.047,9.047,0,0,0,.9-4.074V51.689c0-6.121-4.989-8.736-10.272-11.5-.872-.457-1.772-.929-2.65-1.417L0,35.075V4A4,4,0,0,1,4,0H254.446a4,4,0,0,1,4,4V35.075l-6.461,3.692c-.879.489-1.78.961-2.65,1.417-5.282,2.769-10.272,5.384-10.272,11.5v90.456a9.047,9.047,0,0,0,.9,4.074,10.27,10.27,0,0,0,2.391,3.086,34.514,34.514,0,0,0,7.322,4.555c.759.391,1.544.8,2.306,1.207l6.461,3.692v31.075A4.005,4.005,0,0,1,254.446,193.835Z" stroke="none"/>
        <path d="M 254.4461975097656 189.8347930908203 L 254.4437103271484 189.8347930908203 C 254.4447631835938 189.8338623046875 254.4458160400391 189.8328094482422 254.4467620849609 189.8317565917969 L 254.4467315673828 161.0806274414062 L 250.0429534912109 158.5642242431641 C 249.3267059326172 158.1782531738281 248.5745391845703 157.7904357910156 247.8465118408203 157.4150848388672 C 244.9915924072266 155.9430847167969 242.0394744873047 154.4209747314453 239.6673431396484 152.2645111083984 C 238.2210845947266 150.9498748779297 237.1442718505859 149.5482940673828 236.3754119873047 147.9798278808594 C 235.4925537109375 146.1789398193359 235.0634155273438 144.2704010009766 235.0634155273438 142.1451110839844 L 235.0634155273438 51.68879699707031 C 235.0634155273438 49.63290405273438 235.4854736328125 47.70908355712891 236.31787109375 45.97083282470703 C 237.0592651367188 44.4226188659668 238.1007690429688 43.03983306884766 239.5019073486328 41.74347686767578 C 241.7990875244141 39.61801147460938 244.6861877441406 38.10461807250977 247.4783782958984 36.64101028442383 C 248.3193664550781 36.20019912719727 249.1888732910156 35.74446105957031 250.0208740234375 35.28229522705078 L 254.4467620849609 32.75329971313477 L 254.4467010498047 4.002686977386475 C 254.4458312988281 4.001762390136719 254.4449005126953 4.000838756561279 254.4461975097656 4.000011444091797 L 4.002362728118896 4.000118255615234 C 4.001558303833008 4.000860691070557 4.000753879547119 4.001664638519287 4.000016212463379 4.002465724945068 L 4.000049114227295 32.75328826904297 L 8.42673397064209 35.28276824951172 C 9.253445625305176 35.74203872680664 10.1223840713501 36.19755172729492 10.96294498443604 36.63819122314453 L 10.96851634979248 36.64111709594727 C 13.76055240631104 38.10469055175781 16.64765930175781 39.61804580688477 18.94480133056641 41.74347686767578 C 20.34594535827637 43.03983306884766 21.3874454498291 44.4226188659668 22.12883758544922 45.97083282470703 C 22.96123123168945 47.70908355712891 23.38330268859863 49.63290405273438 23.38330268859863 51.68879699707031 L 23.38330268859863 142.1451110839844 C 23.38330268859863 144.2704010009766 22.95415878295898 146.1789398193359 22.07133674621582 147.9797210693359 C 21.30244445800781 149.5482940673828 20.22562408447266 150.9498748779297 18.77947998046875 152.264404296875 C 16.40680122375488 154.4213256835938 13.45276641845703 155.9443969726562 10.59598064422607 157.4172973632812 C 9.869893074035645 157.7916717529297 9.119612693786621 158.1784973144531 8.403341293334961 158.5644836425781 L 4.000024318695068 161.0806121826172 L 4.000123500823975 189.8321380615234 C 4.000940799713135 189.8330535888672 4.001846790313721 189.8339691162109 3.99962329864502 189.8347930908203 L 254.4461975097656 189.8347930908203 M 254.4461975097656 193.8347930908203 L 3.99962329864502 193.8347930908203 C 1.794230580329895 193.8347930908203 1.627022902539466e-05 192.0401916503906 1.627022902539466e-05 189.8342895507812 L 1.627022902539466e-05 158.7592926025391 L 6.461123466491699 155.0672912597656 C 7.220837593078613 154.6571960449219 8.004766464233398 154.2529449462891 8.762908935546875 153.8620452880859 C 11.39155197143555 152.5067596435547 14.10583782196045 151.1072998046875 16.08883857727051 149.3046112060547 C 17.15483856201172 148.3356170654297 17.93690872192383 147.3263397216797 18.47966003417969 146.2191162109375 C 19.08773040771484 144.9787292480469 19.38330268859863 143.6460876464844 19.38330268859863 142.1451110839844 L 19.38330268859863 51.68879699707031 C 19.38330268859863 45.56829833984375 14.39383792877197 42.9528694152832 9.111444473266602 40.18390274047852 C 8.239551544189453 39.72683334350586 7.339337825775146 39.25497436523438 6.461123466491699 38.76658248901367 L 5.198451617616229e-05 35.07461929321289 L 1.627022902539466e-05 3.999582767486572 C 1.627022902539466e-05 1.794225573539734 1.794230580329895 1.131766202888684e-05 3.99962329864502 1.131766202888684e-05 L 254.4461975097656 1.131766202888684e-05 C 256.652099609375 1.131766202888684e-05 258.44677734375 1.794225573539734 258.44677734375 3.999582767486572 L 258.44677734375 35.07461929321289 L 251.9856262207031 38.76658248901367 C 251.1063079833984 39.25554656982422 250.2059783935547 39.72751235961914 249.3352966308594 40.18386840820312 C 244.0528717041016 42.95283126831055 239.0634155273438 45.56829833984375 239.0634155273438 51.68879699707031 L 239.0634155273438 142.1451110839844 C 239.0634155273438 143.6460876464844 239.3589782714844 144.9787292480469 239.9670562744141 146.2191162109375 C 240.5097961425781 147.3263397216797 241.2918701171875 148.3356170654297 242.3578796386719 149.3046112060547 C 244.3405456542969 151.1070098876953 247.0547637939453 152.5064697265625 249.6796264648438 153.85986328125 C 250.4387664794922 154.2512664794922 251.2231903076172 154.6556854248047 251.9856262207031 155.0672912597656 L 258.4467163085938 158.7592926025391 L 258.44677734375 189.8342895507812 C 258.44677734375 192.0401916503906 256.652099609375 193.8347930908203 254.4461975097656 193.8347930908203 Z" stroke="none" fill="#8ddeff"/>
      </g>
    </g>
  </g>
</svg>
