<svg xmlns="http://www.w3.org/2000/svg" width="30" height="30" viewBox="0 0 30 30">
  <g id="组_868" data-name="组 868" transform="translate(-4335 186)">
    <g id="组_842" data-name="组 842" transform="translate(-10 -33)">
      <path id="减去_292" data-name="减去 292" d="M3-1157H1v-13a3,3,0,0,1,3-3,3,3,0,0,1,3,3v13H5v-13a1,1,0,0,0-1-1,1,1,0,0,0-1,1v13Z" transform="translate(4355 1023)" fill="#0393d6"/>
      <g id="椭圆_197" data-name="椭圆 197" transform="translate(4345 -153)" fill="none" stroke="#0393d6" stroke-width="1">
        <circle cx="15" cy="15" r="15" stroke="none"/>
        <circle cx="15" cy="15" r="14.5" fill="none"/>
      </g>
      <path id="减去_290" data-name="减去 290" d="M5-1163a5.006,5.006,0,0,1-5-5,5.016,5.016,0,0,1,4-4.9v2.071A3.007,3.007,0,0,0,2-1168a3,3,0,0,0,3,3,3,3,0,0,0,3-3,3.007,3.007,0,0,0-2-2.828v-2.071a5.016,5.016,0,0,1,4,4.9A5.006,5.006,0,0,1,5-1163Z" transform="translate(4354 1038)" fill="#0393d6"/>
      <path id="减去_293" data-name="减去 293" d="M3-1168a2,2,0,0,1-2-2H5A2,2,0,0,1,3-1168Z" transform="translate(4356 1040)" fill="#0393d6"/>
      <g id="路径_964" data-name="路径 964" transform="translate(4366.281 -133.49) rotate(-45)" fill="none">
        <path d="M1.928-3.467C2.736-2.136,3.855-.329,3.855.99A2.195,2.195,0,0,1,1.928,3.377,2.195,2.195,0,0,1,0,.99C0-.329.936-1.869,1.928-3.467Z" stroke="none"/>
        <path d="M 1.919212698936462 -1.513241291046143 C 1.405338525772095 -0.6023832559585571 1.000001668930054 0.291356235742569 1.000001668930054 0.9896225929260254 C 1.000001668930054 1.728662610054016 1.433521747589111 2.37694263458252 1.927741646766663 2.37694263458252 C 2.421961784362793 2.37694263458252 2.855481624603271 1.728662610054016 2.855481624603271 0.9896225929260254 C 2.855481624603271 0.3344021141529083 2.415343761444092 -0.6176966428756714 1.919212698936462 -1.513241291046143 M 1.927741646766663 -3.466797351837158 C 2.736011505126953 -2.136167287826538 3.855481624603271 -0.3288673758506775 3.855481624603271 0.9896225929260254 C 3.855481624603271 2.308102607727051 2.992401599884033 3.37694263458252 1.927741646766663 3.37694263458252 C 0.863081693649292 3.37694263458252 1.668930053710938e-06 2.308102607727051 1.668930053710938e-06 0.9896225929260254 C 1.668930053710938e-06 -0.3288673758506775 0.9361617565155029 -1.869367361068726 1.927741646766663 -3.466797351837158 Z" stroke="none" fill="#0393d6"/>
      </g>
    </g>
  </g>
</svg>
