<svg xmlns="http://www.w3.org/2000/svg" viewBox="0 0 103.69 19.19"><defs><style>.cls-1{fill:#8a2d02;}</style></defs><title>3_1</title><g id="图层_2" data-name="图层 2"><g id="图层_2-2" data-name="图层 2"><polygon class="cls-1" points="44.53 19.19 52.86 10.87 52.86 10.87 54.13 9.6 52.86 8.32 44.53 0 43.26 1.27 51.59 9.6 43.26 17.92 44.53 19.19"/><polygon class="cls-1" points="50.53 19.19 58.86 10.87 58.86 10.87 60.13 9.6 58.86 8.32 50.53 0 49.26 1.27 57.59 9.6 49.26 17.92 50.53 19.19"/><rect class="cls-1" x="50.85" y="-42.25" width="2" height="103.69" transform="translate(61.44 -42.25) rotate(90)"/><path class="cls-1" d="M23.69,18.6a9,9,0,1,1,9-9A9,9,0,0,1,23.69,18.6Zm0-16a7,7,0,1,0,7,7A7,7,0,0,0,23.69,2.6Z"/><path class="cls-1" d="M73.69,18.55V.65l15.5,9Zm1.87-14.8v11.7L85.69,9.6Z"/></g></g></svg>