<svg xmlns="http://www.w3.org/2000/svg" width="50" height="36" viewBox="0 0 50 36">
  <g id="组_31" data-name="组 31" transform="translate(0 -7)">
    <g id="矩形_16" data-name="矩形 16" transform="translate(0 12)" fill="none" stroke="#0393d6" stroke-width="1">
      <rect width="50" height="31" stroke="none"/>
      <rect x="0.5" y="0.5" width="49" height="30" fill="none"/>
    </g>
    <g id="矩形_19" data-name="矩形 19" transform="translate(7 21)" fill="none" stroke="#0393d6" stroke-width="1">
      <rect width="36" height="22" stroke="none"/>
      <rect x="0.5" y="0.5" width="35" height="21" fill="none"/>
    </g>
    <g id="矩形_17" data-name="矩形 17" transform="translate(10 7)" fill="none" stroke="#0393d6" stroke-width="1">
      <rect width="7" height="6" stroke="none"/>
      <rect x="0.5" y="0.5" width="6" height="5" fill="none"/>
    </g>
    <g id="路径_35" data-name="路径 35" transform="translate(11 22)" fill="none">
      <path d="M-2.769,11.064,3.237.051,3.451,7.7H6.505L0,20l.172-8.936Z" stroke="none"/>
      <path d="M 1.080908417701721 15.81792831420898 L 4.844869613647461 8.702275276184082 L 3.450684070587158 8.702275276184082 L 2.478234052658081 8.702275276184082 L 2.451074123382568 7.730195045471191 L 2.340801239013672 3.782751083374023 L -1.084468483924866 10.06407451629639 L 0.1724840551614761 10.06407451629639 L 1.19197404384613 10.06407451629639 L 1.172294020652771 11.08337497711182 L 1.080908417701721 15.81792831420898 M 4.062500011059456e-06 20.0000057220459 L 0.1724840551614761 11.06407451629639 L -2.768795967102051 11.06407451629639 L 3.236933946609497 0.0506548210978508 L 3.450684070587158 7.702274799346924 L 6.505124092102051 7.702274799346924 L 4.062500011059456e-06 20.0000057220459 Z" stroke="none" fill="#0393d6"/>
    </g>
    <g id="路径_36" data-name="路径 36" transform="translate(19.495 22)" fill="none">
      <path d="M-2.769,11.064,3.237.051,3.451,7.7H6.505L0,20l.172-8.936Z" stroke="none"/>
      <path d="M 1.080908417701721 15.81792831420898 L 4.844869613647461 8.702275276184082 L 3.450684070587158 8.702275276184082 L 2.478234052658081 8.702275276184082 L 2.451074123382568 7.730195045471191 L 2.340801239013672 3.782751083374023 L -1.084468483924866 10.06407451629639 L 0.1724840551614761 10.06407451629639 L 1.19197404384613 10.06407451629639 L 1.172294020652771 11.08337497711182 L 1.080908417701721 15.81792831420898 M 4.062500011059456e-06 20.0000057220459 L 0.1724840551614761 11.06407451629639 L -2.768795967102051 11.06407451629639 L 3.236933946609497 0.0506548210978508 L 3.450684070587158 7.702274799346924 L 6.505124092102051 7.702274799346924 L 4.062500011059456e-06 20.0000057220459 Z" stroke="none" fill="#0393d6"/>
    </g>
    <g id="路径_37" data-name="路径 37" transform="translate(27.769 22)" fill="none">
      <path d="M-2.769,11.064,3.237.051,3.451,7.7H6.505L0,20l.172-8.936Z" stroke="none"/>
      <path d="M 1.080908417701721 15.81792831420898 L 4.844869613647461 8.702275276184082 L 3.450684070587158 8.702275276184082 L 2.478234052658081 8.702275276184082 L 2.451074123382568 7.730195045471191 L 2.340801239013672 3.782751083374023 L -1.084468483924866 10.06407451629639 L 0.1724840551614761 10.06407451629639 L 1.19197404384613 10.06407451629639 L 1.172294020652771 11.08337497711182 L 1.080908417701721 15.81792831420898 M 4.062500011059456e-06 20.0000057220459 L 0.1724840551614761 11.06407451629639 L -2.768795967102051 11.06407451629639 L 3.236933946609497 0.0506548210978508 L 3.450684070587158 7.702274799346924 L 6.505124092102051 7.702274799346924 L 4.062500011059456e-06 20.0000057220459 Z" stroke="none" fill="#0393d6"/>
    </g>
    <g id="路径_38" data-name="路径 38" transform="translate(35.769 22)" fill="none">
      <path d="M-2.769,11.064,3.237.051,3.451,7.7H6.505L0,20l.172-8.936Z" stroke="none"/>
      <path d="M 1.080908417701721 15.81792831420898 L 4.844869613647461 8.702275276184082 L 3.450684070587158 8.702275276184082 L 2.478234052658081 8.702275276184082 L 2.451074123382568 7.730195045471191 L 2.340801239013672 3.782751083374023 L -1.084468483924866 10.06407451629639 L 0.1724840551614761 10.06407451629639 L 1.19197404384613 10.06407451629639 L 1.172294020652771 11.08337497711182 L 1.080908417701721 15.81792831420898 M 4.062500011059456e-06 20.0000057220459 L 0.1724840551614761 11.06407451629639 L -2.768795967102051 11.06407451629639 L 3.236933946609497 0.0506548210978508 L 3.450684070587158 7.702274799346924 L 6.505124092102051 7.702274799346924 L 4.062500011059456e-06 20.0000057220459 Z" stroke="none" fill="#0393d6"/>
    </g>
    <g id="矩形_18" data-name="矩形 18" transform="translate(33 7)" fill="none" stroke="#0393d6" stroke-width="1">
      <rect width="7" height="6" stroke="none"/>
      <rect x="0.5" y="0.5" width="6" height="5" fill="none"/>
    </g>
    <line id="直线_63" data-name="直线 63" x2="5" transform="translate(34 16.5)" fill="none" stroke="#000" stroke-width="1"/>
    <line id="直线_64" data-name="直线 64" x2="5" transform="translate(11 16)" fill="none" stroke="#000" stroke-width="1"/>
    <line id="直线_65" data-name="直线 65" y2="5" transform="translate(13.5 13.5)" fill="none" stroke="#000" stroke-width="1"/>
  </g>
</svg>
