<svg xmlns="http://www.w3.org/2000/svg" width="50" height="47.501" viewBox="0 0 50 47.501">
  <g id="组_60" data-name="组 60" transform="translate(0 -2.5)">
    <path id="减去_14" data-name="减去 14" d="M-41-143.419h0a18.993,18.993,0,0,1-3.394-1.073,18.932,18.932,0,0,1-6.04-4.072,18.937,18.937,0,0,1-4.072-6.039A18.882,18.882,0,0,1-56-162a18.873,18.873,0,0,1,1.493-7.4,18.932,18.932,0,0,1,4.072-6.04,18.932,18.932,0,0,1,6.04-4.072A18.873,18.873,0,0,1-37-181a18.882,18.882,0,0,1,7.4,1.493,18.93,18.93,0,0,1,6.039,4.072,18.95,18.95,0,0,1,4.073,6.04A18.873,18.873,0,0,1-18-162a18.882,18.882,0,0,1-1.493,7.4,18.955,18.955,0,0,1-4.073,6.039,18.93,18.93,0,0,1-6.039,4.072,18.91,18.91,0,0,1-3.4,1.072v-1.024a17.932,17.932,0,0,0,3.007-.97,17.938,17.938,0,0,0,5.721-3.857,17.938,17.938,0,0,0,3.857-5.721A17.888,17.888,0,0,0-19-162a17.888,17.888,0,0,0-1.415-7.006,17.938,17.938,0,0,0-3.857-5.721,17.938,17.938,0,0,0-5.721-3.857A17.888,17.888,0,0,0-37-180a17.888,17.888,0,0,0-7.007,1.415,17.938,17.938,0,0,0-5.721,3.857,17.938,17.938,0,0,0-3.857,5.721A17.888,17.888,0,0,0-55-162a17.888,17.888,0,0,0,1.415,7.007,17.938,17.938,0,0,0,3.857,5.721,17.938,17.938,0,0,0,5.721,3.857,17.938,17.938,0,0,0,3.006.97v1.024Z" transform="translate(62 190)" fill="#0393d6"/>
    <path id="路径_40" data-name="路径 40" d="M0,0" transform="translate(24.5 49.5)" fill="none" stroke="#0393d6" stroke-width="1"/>
    <line id="直线_73" data-name="直线 73" y1="7" transform="translate(25.5 2.5)" fill="none" stroke="#0393d6" stroke-width="1"/>
    <path id="减去_16" data-name="减去 16" d="M-55-170h-1v-11h21v6.5h-1v-5.714H-55V-170Z" transform="translate(56 220)" fill="#0393d6"/>
    <path id="减去_18" data-name="减去 18" d="M21,14H0V3H1V13.215H20V7.5h1V14Z" transform="translate(50 53.001) rotate(180)" fill="#0393d6"/>
  </g>
</svg>
