<?xml version="1.0" standalone="no"?><!DOCTYPE svg PUBLIC "-//W3C//DTD SVG 1.1//EN" "http://www.w3.org/Graphics/SVG/1.1/DTD/svg11.dtd"><svg t="1569396065695" class="icon" viewBox="0 0 2037 1024" version="1.1" xmlns="http://www.w3.org/2000/svg" p-id="33583" xmlns:xlink="http://www.w3.org/1999/xlink" width="397.8515625" height="200"><defs><style type="text/css"></style></defs><path d="M1402.09860625 117.00168576l-783.84345777 0C400.9933385 117.00168576 223.15885415 294.79697775 223.15885414 512.07838471c0 217.30100235 177.83448435 395.09629433 395.11589053 395.09629433l783.84345775 1e-8c217.28140617 0 395.07669893-177.795292 395.07669817-395.09629435C1797.17530518 294.79697775 1619.38001242 117.00168576 1402.09860625 117.00168576zM1720.29985763 512.33313345c0 180.51914812-147.6957037 328.21485182-328.21485182 328.21485182L619.74445171 840.54798527c-180.51914812 0-328.21485182-147.6957037-328.21485184-328.21485183 0-180.53874428 147.6957037-328.23444801 328.21485183-328.234448l772.3405541 0c180.51914811-0.01959617 328.21485182 147.6957037 328.21485183 328.234448z" fill="#cdcdcd" p-id="33584"></path><path d="M1376.66969064 514.27314639m-238.09245023 0a238.09245023 238.09245023 0 1 0 476.18490045 0 238.09245023 238.09245023 0 1 0-476.18490046 0Z" fill="#cdcdcd" p-id="33585"></path></svg>