<svg xmlns="http://www.w3.org/2000/svg" width="14.332" height="50" viewBox="0 0 14.332 50">
  <g id="组_40" data-name="组 40" transform="translate(-15.168)">
    <line id="直线_1" data-name="直线 1" y2="7" transform="translate(24.5 4.5)" fill="none" stroke="#0393d6" stroke-width="1"/>
    <line id="直线_3" data-name="直线 3" x1="10" transform="translate(19.5 11.5)" fill="none" stroke="#0393d6" stroke-width="1"/>
    <g id="椭圆_3" data-name="椭圆 3" transform="translate(21.5 12)" fill="none" stroke="#0393d6" stroke-width="1">
      <circle cx="3" cy="3" r="3" stroke="none"/>
      <circle cx="3" cy="3" r="2.5" fill="none"/>
    </g>
    <g id="减去_11" data-name="减去 11" transform="translate(81.9)" fill="none">
      <path d="M-61.53,5.587h-.029L-62.4,5l5-5,5,5-.725.586h-.032L-57.343,1.4l-4.186,4.186Z" stroke="none"/>
      <path d="M -61.52970123291016 5.586595058441162 L -61.53012084960938 5.586595058441162 L -61.55910873413086 5.586305141448975 L -62.39970016479492 5.00039529800415 L -57.40019989013672 5.14503472004435e-06 L -52.39979934692383 5.00039529800415 L -53.12493133544922 5.586085319519043 L -53.15694046020508 5.586305141448975 L -57.34349822998047 1.400405168533325 L -61.52939987182617 5.586305141448975 L -61.52970123291016 5.586595058441162 Z" stroke="none" fill="#0393d6"/>
    </g>
    <g id="减去_8" data-name="减去 8" transform="translate(-32.9 50) rotate(180)" fill="none">
      <path d="M-61.53,5.587h-.029L-62.4,5l5-5,5,5-.725.586h-.032L-57.343,1.4l-4.186,4.186Z" stroke="none"/>
      <path d="M -61.52970123291016 5.586595058441162 L -61.53012084960938 5.586595058441162 L -61.55910873413086 5.586305141448975 L -62.39970016479492 5.00039529800415 L -57.40019989013672 5.14503472004435e-06 L -52.39979934692383 5.00039529800415 L -53.12493133544922 5.586085319519043 L -53.15694046020508 5.586305141448975 L -57.34349822998047 1.400405168533325 L -61.52939987182617 5.586305141448975 L -61.52970123291016 5.586595058441162 Z" stroke="none" fill="#0393d6"/>
    </g>
    <g id="减去_10" data-name="减去 10" transform="translate(81.9 4)" fill="none">
      <path d="M-61.53,5.587h-.029L-62.4,5l5-5,5,5-.725.586h-.032L-57.343,1.4l-4.186,4.186Z" stroke="none"/>
      <path d="M -61.52970123291016 5.586595058441162 L -61.53012084960938 5.586595058441162 L -61.55910873413086 5.586305141448975 L -62.39970016479492 5.00039529800415 L -57.40019989013672 5.14503472004435e-06 L -52.39979934692383 5.00039529800415 L -53.12493133544922 5.586085319519043 L -53.15694046020508 5.586305141448975 L -57.34349822998047 1.400405168533325 L -61.52939987182617 5.586305141448975 L -61.52970123291016 5.586595058441162 Z" stroke="none" fill="#0393d6"/>
    </g>
    <g id="减去_9" data-name="减去 9" transform="translate(-32.9 46) rotate(180)" fill="none">
      <path d="M-61.53,5.587h-.029L-62.4,5l5-5,5,5-.725.586h-.032L-57.343,1.4l-4.186,4.186Z" stroke="none"/>
      <path d="M -61.52970123291016 5.586595058441162 L -61.53012084960938 5.586595058441162 L -61.55910873413086 5.586305141448975 L -62.39970016479492 5.00039529800415 L -57.40019989013672 5.14503472004435e-06 L -52.39979934692383 5.00039529800415 L -53.12493133544922 5.586085319519043 L -53.15694046020508 5.586305141448975 L -57.34349822998047 1.400405168533325 L -61.52939987182617 5.586305141448975 L -61.52970123291016 5.586595058441162 Z" stroke="none" fill="#0393d6"/>
    </g>
    <path id="路径_67" data-name="路径 67" d="M-.057,26.1v.681L-.117,4.127" transform="translate(24.557 18.382)" fill="none" stroke="#0393d6" stroke-width="1"/>
    <line id="直线_98" data-name="直线 98" x1="9" y1="8" transform="translate(15.5 14.5)" fill="none" stroke="#0393d6" stroke-width="1"/>
  </g>
</svg>
