<svg xmlns="http://www.w3.org/2000/svg" width="10" height="50" viewBox="0 0 10 50">
  <g id="组_4" data-name="组 4" transform="translate(-19.5 0)">
    <g id="矩形_4" data-name="矩形 4" transform="translate(20 14)" fill="none" stroke="#0393d6" stroke-width="1">
      <rect width="9" height="22" stroke="none"/>
      <rect x="0.5" y="0.5" width="8" height="21" fill="none"/>
    </g>
    <line id="直线_1" data-name="直线 1" y2="13.5" transform="translate(24.5 1)" fill="none" stroke="#0393d6" stroke-width="1"/>
    <line id="直线_2" data-name="直线 2" y1="13.5" transform="translate(24.5 35.5)" fill="none" stroke="#0393d6" stroke-width="1"/>
    <g id="减去_4" data-name="减去 4" transform="translate(81.9)" fill="none">
      <path d="M-61.53,5.587h-.029L-62.4,5l5-5,5,5-.725.586h-.032L-57.343,1.4l-4.186,4.186Z" stroke="none"/>
      <path d="M -61.52970123291016 5.586595058441162 L -61.53012084960938 5.586595058441162 L -61.55910873413086 5.586305141448975 L -62.39970016479492 5.00039529800415 L -57.40019989013672 5.14503472004435e-06 L -52.39979934692383 5.00039529800415 L -53.12493133544922 5.586085319519043 L -53.15694046020508 5.586305141448975 L -57.34349822998047 1.400405168533325 L -61.52939987182617 5.586305141448975 L -61.52970123291016 5.586595058441162 Z" stroke="none" fill="#0393d6"/>
    </g>
    <g id="减去_6" data-name="减去 6" transform="translate(-32.9 50) rotate(180)" fill="none">
      <path d="M-61.53,5.587h-.029L-62.4,5l5-5,5,5-.725.586h-.032L-57.343,1.4l-4.186,4.186Z" stroke="none"/>
      <path d="M -61.52970123291016 5.586595058441162 L -61.53012084960938 5.586595058441162 L -61.55910873413086 5.586305141448975 L -62.39970016479492 5.00039529800415 L -57.40019989013672 5.14503472004435e-06 L -52.39979934692383 5.00039529800415 L -53.12493133544922 5.586085319519043 L -53.15694046020508 5.586305141448975 L -57.34349822998047 1.400405168533325 L -61.52939987182617 5.586305141448975 L -61.52970123291016 5.586595058441162 Z" stroke="none" fill="#0393d6"/>
    </g>
    <g id="减去_5" data-name="减去 5" transform="translate(81.9 5)" fill="none">
      <path d="M-61.53,5.587h-.029L-62.4,5l5-5,5,5-.725.586h-.032L-57.343,1.4l-4.186,4.186Z" stroke="none"/>
      <path d="M -61.52970123291016 5.586595058441162 L -61.53012084960938 5.586595058441162 L -61.55910873413086 5.586305141448975 L -62.39970016479492 5.00039529800415 L -57.40019989013672 5.14503472004435e-06 L -52.39979934692383 5.00039529800415 L -53.12493133544922 5.586085319519043 L -53.15694046020508 5.586305141448975 L -57.34349822998047 1.400405168533325 L -61.52939987182617 5.586305141448975 L -61.52970123291016 5.586595058441162 Z" stroke="none" fill="#0393d6"/>
    </g>
    <g id="减去_7" data-name="减去 7" transform="translate(-32.9 45) rotate(180)" fill="none">
      <path d="M-61.53,5.587h-.029L-62.4,5l5-5,5,5-.725.586h-.032L-57.343,1.4l-4.186,4.186Z" stroke="none"/>
      <path d="M -61.52970123291016 5.586595058441162 L -61.53012084960938 5.586595058441162 L -61.55910873413086 5.586305141448975 L -62.39970016479492 5.00039529800415 L -57.40019989013672 5.14503472004435e-06 L -52.39979934692383 5.00039529800415 L -53.12493133544922 5.586085319519043 L -53.15694046020508 5.586305141448975 L -57.34349822998047 1.400405168533325 L -61.52939987182617 5.586305141448975 L -61.52970123291016 5.586595058441162 Z" stroke="none" fill="#0393d6"/>
    </g>
  </g>
</svg>
