<svg xmlns="http://www.w3.org/2000/svg" width="10.455" height="50" viewBox="0 0 10.455 50">
  <g id="组_9" data-name="组 9" transform="translate(-19.045 0)">
    <path id="路径_10" data-name="路径 10" d="M-.057,26.1v.681L-.117,4.127" transform="translate(24.557 18.382)" fill="none" stroke="#0393d6" stroke-width="1"/>
    <g id="矩形_4" data-name="矩形 4" transform="translate(20 22)" fill="none" stroke="#0393d6" stroke-width="1">
      <rect width="9" height="17" stroke="none"/>
      <rect x="0.5" y="0.5" width="8" height="16" fill="none"/>
    </g>
    <line id="直线_1" data-name="直线 1" y2="7" transform="translate(24.5 4.5)" fill="none" stroke="#0393d6" stroke-width="1"/>
    <line id="直线_3" data-name="直线 3" x1="10" transform="translate(19.5 11.5)" fill="none" stroke="#0393d6" stroke-width="1"/>
    <g id="椭圆_3" data-name="椭圆 3" transform="translate(21.5 12)" fill="none" stroke="#0393d6" stroke-width="1">
      <circle cx="3" cy="3" r="3" stroke="none"/>
      <circle cx="3" cy="3" r="2.5" fill="none"/>
    </g>
    <g id="减去_11" data-name="减去 11" transform="translate(-32.9 9.587) rotate(180)" fill="none">
      <path d="M-61.53,5.587h-.029L-62.4,5l5-5,5,5-.725.586h-.032L-57.343,1.4l-4.186,4.186Z" stroke="none"/>
      <path d="M -61.52970123291016 5.586595058441162 L -61.53012084960938 5.586595058441162 L -61.55910873413086 5.586305141448975 L -62.39970016479492 5.00039529800415 L -57.40019989013672 5.14503472004435e-06 L -52.39979934692383 5.00039529800415 L -53.12493133544922 5.586085319519043 L -53.15694046020508 5.586305141448975 L -57.34349822998047 1.400405168533325 L -61.52939987182617 5.586305141448975 L -61.52970123291016 5.586595058441162 Z" stroke="none" fill="#0393d6"/>
    </g>
    <g id="减去_8" data-name="减去 8" transform="translate(81.9 40.413)" fill="none">
      <path d="M-61.53,5.587h-.029L-62.4,5l5-5,5,5-.725.586h-.032L-57.343,1.4l-4.186,4.186Z" stroke="none"/>
      <path d="M -61.52970123291016 5.586595058441162 L -61.53012084960938 5.586595058441162 L -61.55910873413086 5.586305141448975 L -62.39970016479492 5.00039529800415 L -57.40019989013672 5.14503472004435e-06 L -52.39979934692383 5.00039529800415 L -53.12493133544922 5.586085319519043 L -53.15694046020508 5.586305141448975 L -57.34349822998047 1.400405168533325 L -61.52939987182617 5.586305141448975 L -61.52970123291016 5.586595058441162 Z" stroke="none" fill="#0393d6"/>
    </g>
    <g id="减去_10" data-name="减去 10" transform="translate(-32.9 5.587) rotate(180)" fill="none">
      <path d="M-61.53,5.587h-.029L-62.4,5l5-5,5,5-.725.586h-.032L-57.343,1.4l-4.186,4.186Z" stroke="none"/>
      <path d="M -61.52970123291016 5.586595058441162 L -61.53012084960938 5.586595058441162 L -61.55910873413086 5.586305141448975 L -62.39970016479492 5.00039529800415 L -57.40019989013672 5.14503472004435e-06 L -52.39979934692383 5.00039529800415 L -53.12493133544922 5.586085319519043 L -53.15694046020508 5.586305141448975 L -57.34349822998047 1.400405168533325 L -61.52939987182617 5.586305141448975 L -61.52970123291016 5.586595058441162 Z" stroke="none" fill="#0393d6"/>
    </g>
    <g id="减去_9" data-name="减去 9" transform="translate(81.9 44.413)" fill="none">
      <path d="M-61.53,5.587h-.029L-62.4,5l5-5,5,5-.725.586h-.032L-57.343,1.4l-4.186,4.186Z" stroke="none"/>
      <path d="M -61.52970123291016 5.586595058441162 L -61.53012084960938 5.586595058441162 L -61.55910873413086 5.586305141448975 L -62.39970016479492 5.00039529800415 L -57.40019989013672 5.14503472004435e-06 L -52.39979934692383 5.00039529800415 L -53.12493133544922 5.586085319519043 L -53.15694046020508 5.586305141448975 L -57.34349822998047 1.400405168533325 L -61.52939987182617 5.586305141448975 L -61.52970123291016 5.586595058441162 Z" stroke="none" fill="#0393d6"/>
    </g>
    <line id="直线_88" data-name="直线 88" x1="5" y1="11" transform="translate(19.5 11.5)" fill="none" stroke="#0393d6" stroke-width="1"/>
  </g>
</svg>
