<svg xmlns="http://www.w3.org/2000/svg" width="44" height="51" viewBox="0 0 44 51">
  <g id="组_61" data-name="组 61" transform="translate(-2 0.5)">
    <path id="减去_13" data-name="减去 13" d="M27-137h0v-1h.009a20.844,20.844,0,0,0,8.165-1.65,20.936,20.936,0,0,0,6.675-4.5,20.932,20.932,0,0,0,4.5-6.675A20.868,20.868,0,0,0,48-159a20.859,20.859,0,0,0-1.651-8.174,20.924,20.924,0,0,0-4.5-6.675,20.923,20.923,0,0,0-6.675-4.5A20.866,20.866,0,0,0,27-180a20.868,20.868,0,0,0-8.175,1.651,20.928,20.928,0,0,0-6.674,4.5,20.924,20.924,0,0,0-4.5,6.675A20.859,20.859,0,0,0,6-159H5a21.874,21.874,0,0,1,1.728-8.563,21.94,21.94,0,0,1,4.715-6.993,21.935,21.935,0,0,1,6.993-4.714A21.853,21.853,0,0,1,27-181a21.86,21.86,0,0,1,8.563,1.729,21.922,21.922,0,0,1,6.993,4.714,21.94,21.94,0,0,1,4.715,6.993A21.875,21.875,0,0,1,49-159a21.875,21.875,0,0,1-1.729,8.563,21.94,21.94,0,0,1-4.715,6.993,21.923,21.923,0,0,1-6.993,4.715A21.86,21.86,0,0,1,27-137Z" transform="translate(-3 184)" fill="#0393d6"/>
    <line id="直线_70" data-name="直线 70" y1="26" transform="translate(24.5 -0.5)" fill="none" stroke="#0393d6" stroke-width="1"/>
    <line id="直线_72" data-name="直线 72" y1="4" transform="translate(24.5 46.5)" fill="none" stroke="#0393d6" stroke-width="1"/>
    <line id="直线_71" data-name="直线 71" x2="23" transform="translate(2 25.5)" fill="none" stroke="#0393d6" stroke-width="1"/>
  </g>
</svg>
