<svg xmlns="http://www.w3.org/2000/svg" width="50" height="38" viewBox="0 0 50 38">
  <g id="组_19" data-name="组 19" transform="translate(0 -11.5)">
    <g id="矩形_13" data-name="矩形 13" transform="translate(13 19)" fill="none" stroke="#0393d6" stroke-width="1">
      <rect width="17" height="9" stroke="none"/>
      <rect x="0.5" y="0.5" width="16" height="8" fill="none"/>
    </g>
    <line id="直线_37" data-name="直线 37" y2="7" transform="translate(22 12)" fill="none" stroke="#0393d6" stroke-width="1"/>
    <line id="直线_39" data-name="直线 39" y2="8" transform="translate(44 20)" fill="none" stroke="#0393d6" stroke-width="1"/>
    <path id="路径_21" data-name="路径 21" d="M12.782,4.383h-6" transform="translate(-5.782 22.774)" fill="none" stroke="#0393d6" stroke-width="1"/>
    <line id="直线_40" data-name="直线 40" x1="6" transform="translate(44 24)" fill="none" stroke="#0393d6" stroke-width="1"/>
    <line id="直线_41" data-name="直线 41" x1="6" transform="translate(1 45)" fill="none" stroke="#0393d6" stroke-width="1"/>
    <line id="直线_42" data-name="直线 42" x1="4" transform="translate(2 47)" fill="none" stroke="#0393d6" stroke-width="1"/>
    <line id="直线_43" data-name="直线 43" x1="2" transform="translate(3 49)" fill="none" stroke="#0393d6" stroke-width="1"/>
    <path id="路径_19" data-name="路径 19" d="M14.169,8.109,14.02,0H-.494" transform="translate(22 12)" fill="none" stroke="#0393d6" stroke-width="1" stroke-dasharray="2"/>
    <path id="路径_23" data-name="路径 23" d="M13.9-.094,5.188,0H.131" transform="translate(22.675 35.109) rotate(180)" fill="none" stroke="#0393d6" stroke-width="1" stroke-dasharray="2"/>
    <line id="直线_38" data-name="直线 38" y2="7" transform="translate(22 28)" fill="none" stroke="#0393d6" stroke-width="1"/>
    <path id="路径_22" data-name="路径 22" d="M6.883,4.165,0,13.628" transform="translate(4 27)" fill="none" stroke="#0393d6" stroke-width="1"/>
    <g id="椭圆_7" data-name="椭圆 7" transform="translate(38 21)" fill="none" stroke="#0393d6" stroke-width="1">
      <circle cx="3" cy="3" r="3" stroke="none"/>
      <circle cx="3" cy="3" r="2.5" fill="none"/>
    </g>
    <path id="路径_59" data-name="路径 59" d="M40.394-5.156,28.641,0" transform="translate(1.5 23.5)" fill="none" stroke="#0393d6" stroke-width="1"/>
    <path id="路径_60" data-name="路径 60" d="M37.282,4.383H6.782" transform="translate(-6.782 19.117)" fill="none" stroke="#0393d6" stroke-width="1"/>
  </g>
</svg>
