<svg xmlns="http://www.w3.org/2000/svg" width="40" height="40" viewBox="0 0 40 40">
  <g id="组_1518" data-name="组 1518" transform="translate(-1807 -221)">
    <g id="椭圆_1162" data-name="椭圆 1162" transform="translate(1807 221)" fill="none" stroke="#006e6b" stroke-width="2">
      <circle cx="20" cy="20" r="20" stroke="none"/>
      <circle cx="20" cy="20" r="19" fill="none"/>
    </g>
    <g id="减去_621" data-name="减去 621" transform="translate(1811.321 225.408)" fill="none">
      <path d="M14.828,31.247h0A15.68,15.68,0,0,1,3.93,5.207,1.73,1.73,0,0,0,6.213,3.088,15.553,15.553,0,0,1,15-.074V1.994H16.44V-.07a15.557,15.557,0,0,1,8.7,3.158,1.73,1.73,0,0,0,2.283,2.119,15.679,15.679,0,0,1-10.9,26.039v-.858a.85.85,0,1,0-1.7,0v.858Z" stroke="none"/>
      <path d="M 13.84292507171631 30.15607261657715 C 13.95761489868164 29.24502563476562 14.73725032806396 28.53800582885742 15.67890071868896 28.53800582885742 C 16.62015151977539 28.53800582885742 17.39944648742676 29.24508285522461 17.51400184631348 30.15539169311523 C 20.7364387512207 29.75302505493164 23.73880958557129 28.28896903991699 26.05799102783203 25.96979522705078 C 28.83019065856934 23.19760513305664 30.35690116882324 19.51157569885254 30.35690116882324 15.59070587158203 C 30.35690116882324 12.19772434234619 29.18837356567383 8.925835609436035 27.0551586151123 6.313266754150391 C 26.9698429107666 6.321276187896729 26.8839054107666 6.325295448303223 26.79750061035156 6.325295448303223 C 26.10437965393066 6.325295448303223 25.4434700012207 6.064975738525391 24.93678092956543 5.592525482177734 C 24.35473251342773 5.050166130065918 24.04860687255859 4.305936336517334 24.06663513183594 3.540181159973145 C 22.09393310546875 2.161796808242798 19.83024787902832 1.30046808719635 17.44029998779297 1.015917420387268 L 17.44029998779297 1.994405627250671 L 17.44029998779297 2.994405746459961 L 16.44029998779297 2.994405746459961 L 15.00480079650879 2.994405746459961 L 14.00480079650879 2.994405746459961 L 14.00480079650879 1.994405627250671 L 14.00480079650879 1.006001114845276 C 11.5823221206665 1.279506802558899 9.287960052490234 2.144525766372681 7.290312767028809 3.54041862487793 C 7.308309555053711 4.305895328521729 7.002424716949463 5.050082206726074 6.420280456542969 5.593205451965332 C 5.912610530853271 6.065305709838867 5.252050399780273 6.325295448303223 4.560300350189209 6.325295448303223 C 4.473592758178711 6.325295448303223 4.387392044067383 6.321259498596191 4.301797866821289 6.313211917877197 C 2.168565511703491 8.925060272216797 1.000000596046448 12.19697666168213 1.000000596046448 15.59070587158203 C 1.000000596046448 19.51157569885254 2.526710510253906 23.19760513305664 5.298790454864502 25.96968650817871 C 7.61868953704834 28.28881645202637 10.62110900878906 29.75315475463867 13.84292507171631 30.15607261657715 M 14.82840061187744 31.24715614318848 L 14.8274507522583 31.24710655212402 C 10.96880054473877 31.04097557067871 7.333710670471191 29.41791534423828 4.591800689697266 26.67690658569336 C 1.630730628967285 23.71583557128906 5.844116230946383e-07 19.7786750793457 5.844116230946383e-07 15.59070587158203 C 5.844116230946383e-07 11.75761604309082 1.395690560340881 8.069995880126953 3.929970502853394 5.207145690917969 C 4.13101053237915 5.285455703735352 4.342710494995117 5.325295448303223 4.560300350189209 5.325295448303223 C 4.998550415039062 5.325295448303223 5.417260646820068 5.160375595092773 5.739300727844238 4.860905647277832 C 6.227020740509033 4.405875682830811 6.408520698547363 3.726685762405396 6.212950706481934 3.088385581970215 C 8.759090423583984 1.154815673828125 11.79914093017578 0.06172564253211021 15.00480079650879 -0.07379435747861862 L 15.00480079650879 1.994405627250671 L 16.44029998779297 1.994405627250671 L 16.44029998779297 -0.07019435614347458 C 19.61427116394043 0.0816156417131424 22.62361145019531 1.174105644226074 25.1440315246582 3.088165760040283 C 24.94828033447266 3.726825714111328 25.12995147705078 4.405675411224365 25.61849975585938 4.860905647277832 C 25.93967056274414 5.160375595092773 26.3583812713623 5.325295448303223 26.79750061035156 5.325295448303223 C 27.01407051086426 5.325295448303223 27.22589111328125 5.285555839538574 27.42708015441895 5.207165718078613 C 29.96166038513184 8.071305274963379 31.35690116882324 11.75882530212402 31.35690116882324 15.59070587158203 C 31.35690116882324 19.7786750793457 29.72617149353027 23.71583557128906 26.76510047912598 26.67690658569336 C 24.02374076843262 29.41825485229492 20.38862991333008 31.04100608825684 16.52939987182617 31.24620628356934 L 16.52850151062012 30.38850593566895 C 16.52850151062012 29.91953659057617 16.14737129211426 29.53800582885742 15.67890071868896 29.53800582885742 C 15.20993041992188 29.53800582885742 14.82840061187744 29.91953659057617 14.82840061187744 30.38850593566895 L 14.82840061187744 31.2461051940918 L 14.82840061187744 31.24715614318848 Z" stroke="none" fill="#006e6b"/>
    </g>
    <g id="路径_2131" data-name="路径 2131" transform="translate(1825.326 222.351)" fill="none">
      <path d="M0-.924S.846-1,1.725-1s1.709.079,1.709.079V6.05H0Z" stroke="none"/>
      <path d="M 1.629021048545837 0.004207134246826172 C 1.411709308624268 0.004207134246826172 1.197311878204346 0.009334087371826172 1.000822782516479 0.01675796508789062 L 1.000137329101562 5.050387382507324 L 2.435089111328125 5.050387382507324 L 2.434627532958984 0.02308464050292969 C 2.212344169616699 0.01354598999023438 1.966743230819702 0.006159305572509766 1.718531012535095 0.004507541656494141 C 1.688601016998291 0.004307270050048828 1.658831000328064 0.004207134246826172 1.629021048545837 0.004207134246826172 M 1.629017949104309 -0.99578857421875 C 1.66101336479187 -0.99578857421875 1.692947149276733 -0.9956860542297363 1.72507107257843 -0.9954729080200195 C 2.60374116897583 -0.9896225929260254 3.434540987014771 -0.9166727066040039 3.434540987014771 -0.9166727066040039 L 3.435181140899658 6.050387382507324 L 9.5367431640625e-07 6.050387382507324 L 0.0009510517120361328 -0.9242424964904785 C 0.0009510517120361328 -0.9242424964904785 0.7858667373657227 -0.99578857421875 1.629017949104309 -0.99578857421875 Z" stroke="none" fill="#006e6b"/>
    </g>
    <g id="路径_2132" data-name="路径 2132" transform="translate(1825.15 253.946)" fill="none">
      <path d="M1.762,0h.176A1.762,1.762,0,0,1,3.7,1.762V6.606s-.84.085-1.764.085S0,6.606,0,6.606V1.762A1.762,1.762,0,0,1,1.762,0Z" stroke="none"/>
      <path d="M 1.761633396148682 0.9999971389770508 C 1.341673374176025 0.9999971389770508 1.000003337860107 1.341667175292969 1.000003337860107 1.761637210845947 L 1.000003337860107 5.667116165161133 C 1.29127311706543 5.680685520172119 1.619841814041138 5.69129753112793 1.935003399848938 5.69129753112793 C 2.203319311141968 5.69129753112793 2.465477705001831 5.68356990814209 2.699423313140869 5.672915458679199 L 2.699423313140869 1.761637210845947 C 2.699423313140869 1.341667175292969 2.357753276824951 0.9999971389770508 1.937793493270874 0.9999971389770508 L 1.761633396148682 0.9999971389770508 M 1.761633396148682 -2.86102294921875e-06 L 1.937793493270874 -2.86102294921875e-06 C 2.91071343421936 -2.86102294921875e-06 3.699423551559448 0.7887072563171387 3.699423551559448 1.761637210845947 L 3.699423551559448 6.606137275695801 C 3.699423551559448 6.606137275695801 2.859853506088257 6.69129753112793 1.935003399848938 6.69129753112793 C 1.010143518447876 6.69129753112793 3.337860107421875e-06 6.606137275695801 3.337860107421875e-06 6.606137275695801 L 3.337860107421875e-06 1.761637210845947 C 3.337860107421875e-06 0.7887072563171387 0.7887134552001953 -2.86102294921875e-06 1.761633396148682 -2.86102294921875e-06 Z" stroke="none" fill="#006e6b"/>
    </g>
    <g id="路径_2133" data-name="路径 2133" transform="translate(1819.028 229.616) rotate(138)" fill="none">
      <path d="M1.806,0A1.806,1.806,0,0,1,3.611,1.806L3.62,5.753s-.875.069-1.8.089A17.819,17.819,0,0,1,0,5.775V1.806A1.806,1.806,0,0,1,1.806,0Z" stroke="none"/>
      <path d="M 1.805676460266113 1.000002861022949 C 1.36142635345459 1.000002861022949 0.9999964237213135 1.361432552337646 0.9999964237213135 1.805392742156982 L 1.000866413116455 4.834082126617432 C 1.170895576477051 4.840100288391113 1.354694128036499 4.84410285949707 1.542776346206665 4.84410285949707 C 1.628316402435303 4.84410285949707 1.714966416358948 4.843272686004639 1.801746368408203 4.841442584991455 C 2.086067676544189 4.835404872894287 2.367336273193359 4.824398517608643 2.618114471435547 4.812242031097412 L 2.611346244812012 1.805662631988525 C 2.611346244812012 1.590462684631348 2.527546405792236 1.388142585754395 2.375376462936401 1.235972881317139 C 2.223206520080566 1.083802700042725 2.020886421203613 1.000002861022949 1.805676460266113 1.000002861022949 M 1.805676460266113 2.86102294921875e-06 C 2.802926540374756 2.86102294921875e-06 3.611356496810913 0.8084225654602051 3.611346483230591 1.805672645568848 L 3.620236396789551 5.752652645111084 C 3.620236396789551 5.752652645111084 2.745056390762329 5.821632862091064 1.822976350784302 5.841212749481201 C 1.729046225547791 5.843206405639648 1.635316014289856 5.844101905822754 1.542776584625244 5.844101905822754 C 0.7268886566162109 5.844101905822754 0.001136302947998047 5.77452278137207 0.001136302947998047 5.77452278137207 L -3.576278686523438e-06 1.80568265914917 C -3.576278686523438e-06 0.8084325790405273 0.8084263801574707 2.86102294921875e-06 1.805676460266113 2.86102294921875e-06 Z" stroke="none" fill="#006e6b"/>
    </g>
    <g id="路径_2134" data-name="路径 2134" transform="translate(1838.886 225.272) rotate(42)" fill="none">
      <path d="M1.806,5.844A1.806,1.806,0,0,0,3.611,4.038L3.62.091S2.745.022,1.823,0A17.819,17.819,0,0,0,0,.07V4.038A1.806,1.806,0,0,0,1.806,5.844Z" stroke="none"/>
      <path d="M 1.805679798126221 4.844112396240234 C 2.249929666519165 4.844112396240234 2.611359834671021 4.482682228088379 2.611359834671021 4.036182403564453 L 2.61811900138855 1.031865358352661 C 2.367348194122314 1.019710183143616 2.086104869842529 1.00870680809021 1.801799774169922 1.00267231464386 C 1.714969754219055 1.000832319259644 1.628199696540833 1.000002264976501 1.542649745941162 1.000002264976501 C 1.354613423347473 1.000002264976501 1.170846700668335 1.004002809524536 1.000869631767273 1.010017037391663 L 0.9999997615814209 4.038432121276855 C 0.9999997615814209 4.482682228088379 1.361429691314697 4.844112396240234 1.805679798126221 4.844112396240234 M 1.805679798126221 5.844112396240234 C 0.8084297776222229 5.844112396240234 -2.518844723908842e-07 5.035672187805176 -2.518844723908842e-07 4.038432121276855 L 0.001139748143032193 0.06957226246595383 C 0.001139748143032193 0.06957226246595383 0.7267645001411438 4.271697946478525e-07 1.542652487754822 4.271697946478525e-07 C 1.635191917419434 4.271697946478525e-07 1.729049563407898 0.0008976940298452973 1.822979688644409 0.002892263000831008 C 2.745059728622437 0.02247226238250732 3.620239734649658 0.09145226329565048 3.620239734649658 0.09145226329565048 L 3.611359834671021 4.038432121276855 C 3.611359834671021 5.035682201385498 2.802929639816284 5.844112396240234 1.805679798126221 5.844112396240234 Z" stroke="none" fill="#006e6b"/>
    </g>
    <path id="减去_623" data-name="减去 623" d="M10.945,26.778h0A13.631,13.631,0,0,1,0,15.673H2.429a11.244,11.244,0,0,0,8.516,8.668v2.435Zm5.235-.055h0V24.27a11.292,11.292,0,0,0,8.23-8.6h2.43A13.633,13.633,0,0,1,16.181,26.722ZM26.711,10.437H24.253A11.261,11.261,0,0,0,16.18,2.5V.055A13.639,13.639,0,0,1,26.71,10.436Zm-24.123,0H.129A13.636,13.636,0,0,1,10.945,0V2.436a11.252,11.252,0,0,0-8.358,8Z" transform="translate(1813.58 227.609)" fill="#006e6b"/>
    <g id="椭圆_1166" data-name="椭圆 1166" transform="translate(1817 231)" fill="none" stroke="#006e6b" stroke-width="2">
      <circle cx="10" cy="10" r="10" stroke="none"/>
      <circle cx="10" cy="10" r="9" fill="none"/>
    </g>
  </g>
</svg>
