<svg xmlns="http://www.w3.org/2000/svg" width="20.323" height="21.336" viewBox="0 0 20.323 21.336">
  <path id="水泵-4" d="M35.448,11.194a1.391,1.391,0,0,0,1.383-1.383,1.437,1.437,0,0,0-1.383-1.383,1.391,1.391,0,0,0-1.383,1.383A1.437,1.437,0,0,0,35.448,11.194Zm-7.77-6.256c.132.2.2.329.329.527l.988,3.227L25.9,7.441a2.864,2.864,0,0,1-.461-.4,1.733,1.733,0,0,1-.066-2.371C25.9,4.017,26.954,4.214,27.678,4.939ZM35.185,19.03a1.324,1.324,0,0,1,.263-.527l2.3-2.436.461,3.358a1.923,1.923,0,0,1-.132.593,1.7,1.7,0,0,1-2.041,1.251,1.756,1.756,0,0,1-.856-2.239ZM43.613,5.465a1.823,1.823,0,0,1-.593.066l-3.292-.79L42.362,2.7a2.093,2.093,0,0,1,.593-.2,1.754,1.754,0,0,1,2.107,1.119,1.648,1.648,0,0,1-1.449,1.844ZM39.267,18.833,39,16.923a8.068,8.068,0,0,0,4.412-7.112,8.21,8.21,0,0,0-.658-3.161h.132a4.049,4.049,0,0,0,.922-.066,3.712,3.712,0,0,0,.79-.263,10.265,10.265,0,0,1,.658,3.49,9.674,9.674,0,0,1-5.992,9.021ZM32.682,6.717c.329-.263,1.054-.724,1.054-.724a12.269,12.269,0,0,1,1.58-2.107,1.12,1.12,0,0,1,1.449-.263h.066a1.059,1.059,0,0,1,.4,1.449l-.461.724a3.66,3.66,0,0,1,1.119.593c.132-.066.2-.066,2.634.263a1.131,1.131,0,0,1,.988,1.119V7.9a1.04,1.04,0,0,1-1.054,1.054H39.6a5.733,5.733,0,0,1,.066,1.251,12.92,12.92,0,0,1,1.054,2.371,1.092,1.092,0,0,1-.527,1.383h-.066a1.076,1.076,0,0,1-1.449-.4l-.461-.724a5.967,5.967,0,0,1-1.054.724c0,.132-.2.461-1.58,2.107a1.12,1.12,0,0,1-1.449.263h-.066a1.059,1.059,0,0,1-.4-1.449l.461-.724a3.66,3.66,0,0,1-1.119-.593c-.132.066-.2.066-2.634-.263a1.083,1.083,0,0,1-.922-1.119v-.066a1.04,1.04,0,0,1,1.054-1.054h.856a3.755,3.755,0,0,1-.066-.856v-.4a12.919,12.919,0,0,1-1.054-2.371,1.092,1.092,0,0,1,.527-1.383h.066a.917.917,0,0,1,1.383.263ZM27.875,3.622a9.789,9.789,0,0,1,13.5-1.646L39.86,3.161a7.685,7.685,0,0,0-4.346-1.317A7.858,7.858,0,0,0,29.127,5.07l-.066-.132c-.2-.263-.329-.527-.527-.79a4.613,4.613,0,0,0-.658-.527Zm-2.107,5,1.778.724v.461a7.976,7.976,0,0,0,7.046,7.9l-.066.132a2.041,2.041,0,0,0-.4.856,3.336,3.336,0,0,0-.132.856,9.959,9.959,0,0,1-8.363-9.746A7.256,7.256,0,0,1,25.768,8.626Z" transform="translate(-24.937)" fill="#0f92d6"/>
</svg>
