<svg xmlns="http://www.w3.org/2000/svg" xmlns:xlink="http://www.w3.org/1999/xlink" viewBox="0 0 167 167"><defs><style>.cls-1{fill:url(#未命名的渐变);}.cls-2{fill:url(#未命名的渐变_2);}.cls-10,.cls-11,.cls-12,.cls-13,.cls-15,.cls-16,.cls-17,.cls-18,.cls-19,.cls-20,.cls-21,.cls-23,.cls-3,.cls-5,.cls-6,.cls-8{fill-rule:evenodd;}.cls-3{opacity:0.73;fill:url(#未命名的渐变_3);}.cls-11,.cls-12,.cls-13,.cls-16,.cls-17,.cls-18,.cls-19,.cls-20,.cls-21,.cls-26,.cls-27,.cls-28,.cls-3{isolation:isolate;}.cls-4{fill:none;stroke:#006862;stroke-linecap:round;}.cls-14,.cls-15,.cls-20,.cls-21,.cls-26,.cls-28,.cls-6{fill:#fff;}.cls-6{fill-opacity:0.25;stroke:#025754;stroke-opacity:0.16;}.cls-7,.cls-8{fill:#f38602;}.cls-9{opacity:0.98;}.cls-10{fill:#ff8c00;}.cls-11,.cls-12,.cls-13,.cls-16,.cls-17,.cls-18,.cls-19{opacity:0.17;}.cls-11{fill:url(#未命名的渐变_10);}.cls-12{fill:url(#未命名的渐变_10-2);}.cls-13{fill:url(#未命名的渐变_10-3);}.cls-14{fill-opacity:0.38;}.cls-15{fill-opacity:0.3;}.cls-16{fill:url(#未命名的渐变_10-4);}.cls-17{fill:url(#未命名的渐变_10-5);}.cls-18{fill:url(#未命名的渐变_10-6);}.cls-19{fill:url(#未命名的渐变_10-7);}.cls-20{opacity:0.35;}.cls-21{opacity:0.18;}.cls-22{opacity:0.94;}.cls-23{fill:#da7700;}.cls-24{opacity:0.34;}.cls-25{fill:#f98d08;}.cls-26{opacity:0.43;}.cls-28{font-size:11px;font-family:SourceHanSansCN-Bold-GBpc-EUC-H, Source Han Sans CN;}.cls-29{opacity:0.6;}.cls-30{fill:#be5000;}.cls-31{fill:#008078;}</style><linearGradient id="未命名的渐变" x1="-871.16" y1="620.39" x2="-871.64" y2="621.29" gradientTransform="matrix(167, 0, 0, -167, 145605.3, 103761.81)" gradientUnits="userSpaceOnUse"><stop offset="0" stop-color="#91fff1"/><stop offset="1" stop-color="#c9d3ff"/></linearGradient><radialGradient id="未命名的渐变_2" cx="-872.94" cy="617.92" r="0.63" gradientTransform="matrix(128.36, -71.65, -71.21, -127.57, 156130.96, 16365.76)" gradientUnits="userSpaceOnUse"><stop offset="0" stop-color="#00a6a9"/><stop offset="0.61" stop-color="#00b9a5"/><stop offset="1" stop-color="#1cc1ba"/></radialGradient><linearGradient id="未命名的渐变_3" x1="-870.61" y1="617.95" x2="-870.49" y2="617.68" gradientTransform="matrix(146.05, 0, 0, -79, 127241.85, 48922.72)" gradientUnits="userSpaceOnUse"><stop offset="0" stop-color="#003330"/><stop offset="1" stop-color="#2ba39c"/></linearGradient><linearGradient id="未命名的渐变_10" x1="-701.99" y1="593.78" x2="-701.99" y2="592.78" gradientTransform="matrix(5, 0, 0, -15, 3590.47, 8969.74)" gradientUnits="userSpaceOnUse"><stop offset="0" stop-color="#ff8f00"/><stop offset="1" stop-color="#d59800"/></linearGradient><linearGradient id="未命名的渐变_10-2" x1="-701.99" y1="593.78" x2="-701.99" y2="592.78" gradientTransform="matrix(5, 0, 0, -15, 3597.47, 8968.74)" xlink:href="#未命名的渐变_10"/><linearGradient id="未命名的渐变_10-3" x1="-701.99" y1="593.78" x2="-701.99" y2="592.78" gradientTransform="matrix(5, 0, 0, -15, 3583.47, 8969.74)" xlink:href="#未命名的渐变_10"/><linearGradient id="未命名的渐变_10-4" x1="-585.58" y1="589.13" x2="-585.58" y2="588.13" gradientTransform="matrix(3, 0, 0, -13, 1841.23, 7722.65)" xlink:href="#未命名的渐变_10"/><linearGradient id="未命名的渐变_10-5" x1="-585.58" y1="605.89" x2="-585.58" y2="604.89" gradientTransform="matrix(3, 0, 0, -25, 1847.23, 15208.21)" xlink:href="#未命名的渐变_10"/><linearGradient id="未命名的渐变_10-6" x1="-1167.66" y1="605.89" x2="-1167.66" y2="604.89" gradientTransform="translate(-3432.47 15208.21) rotate(180) scale(3 25)" xlink:href="#未命名的渐变_10"/><linearGradient id="未命名的渐变_10-7" x1="-585.58" y1="589.13" x2="-585.58" y2="588.13" gradientTransform="matrix(3, 0, 0, -13, 1834.23, 7722.65)" xlink:href="#未命名的渐变_10"/></defs><title>编组3232</title><g id="图层_2" data-name="图层 2"><g id="图层_1-2" data-name="图层 1"><g id="编组"><g id="椭圆形"><circle id="path-2" cx="83.5" cy="83.5" r="83.5"/><circle class="cls-1" cx="83.5" cy="83.5" r="83.5"/></g><circle class="cls-2" cx="81.78" cy="83.15" r="73.5"/><path id="路径-2" class="cls-3" d="M8,84.77c8.2,4.06,18.2,14.86,43,14.86S95.9,77,117.76,77,152.09,78.63,154,95.06c-2.62,13.74-14.56,58.79-73,60.94C23.53,155,6.85,102.7,8,84.77Z"/><path id="路径-3" class="cls-4" d="M8.51,85.05Q32.39,101,51.91,99.94c19.51-1,19.91-10.18,56.25-21Q146.82,71.57,154,92"/><g id="形状结合"><path id="path-9" class="cls-5" d="M82.23,28A9.78,9.78,0,0,1,92,37.77V95.92A25,25,0,0,1,105,118a24.5,24.5,0,1,1-49,0A25.07,25.07,0,0,1,69,95.92V37.77A9.78,9.78,0,0,1,78.77,28Z"/><path class="cls-6" d="M92.5,95.62a25.58,25.58,0,0,1,13,22.38,25,25,0,1,1-50,0,25.58,25.58,0,0,1,13-22.38V37.77A10.27,10.27,0,0,1,78.77,27.5h3.46A10.27,10.27,0,0,1,92.5,37.77Z"/></g><circle id="path-11" class="cls-7" cx="80.5" cy="118" r="25"/><g id="矩形"><path id="path-13" class="cls-8" d="M69,62q1.6,2.34,11.5,2.33T92,62V96q-3,3.41-12,2.87T69,96Z"/><path class="cls-5" d="M69,62q1.6,2.34,11.5,2.33T92,62V96q-3,3.41-12,2.87T69,96Z"/></g><g class="cls-9"><path id="path-15" class="cls-10" d="M80.17,65C86.52,65,92,63.72,92,62.4S86.85,60,80.5,60,69,61.07,69,62.4,73.82,65,80.17,65Z"/><path class="cls-5" d="M80.17,65C86.52,65,92,63.72,92,62.4S86.85,60,80.5,60,69,61.07,69,62.4,73.82,65,80.17,65Z"/></g><path class="cls-11" d="M78,63h5V75.67C81.86,77.22,81,78,80.44,78s-1.37-.78-2.44-2.33Z"/><path id="矩形备份-2" class="cls-12" d="M85,62.67a11.53,11.53,0,0,0,2.44-.21c1.12-.19,2-.34,2.56-.46V74.81C88.86,76.27,88,77,87.44,77s-1.37-.73-2.44-2.19Z"/><path id="矩形备份" class="cls-13" d="M71,63a18.11,18.11,0,0,0,2.5.43c1.09.13,1.92.21,2.5.25V78a7,7,0,0,1-2.56-.69A20.6,20.6,0,0,1,71,75.22Z"/><rect class="cls-14" x="87" y="37" width="3" height="59"/><path class="cls-15" d="M75.09,32h.13l2,.53a1,1,0,0,1,0,1.88l-.11,0-.85.3A2,2,0,0,0,75,36.46V95H71V35.15a3,3,0,0,1,2.64-3L75.09,32h0Z"/><polygon class="cls-16" points="83 64.18 86 64 86 77 83 77 83 64.18"/><path id="矩形备份-4" class="cls-17" d="M89,62.35a9,9,0,0,0,2.19-.6A1.5,1.5,0,0,0,92,61V86H89Z"/><path id="矩形备份-5" class="cls-18" d="M72,62.35a9,9,0,0,1-2.19-.6A1.5,1.5,0,0,1,69,61V86h3Z"/><polygon id="矩形备份-3" class="cls-19" points="76 64 79 64.18 79 77 76 77 76 64"/><path class="cls-20" d="M61.54,108.77l4.82,2.91c0,.5,0,1,0,1.61,1.13,8.73,7.57,11.39,4.63,15.62-11.29,1.05-12.49-7.08-11.78-13.64A17.14,17.14,0,0,1,61.54,108.77ZM72,100c-3,4.67-4.58,6.88-5.25,9.35l-4-2.43C65.47,103.06,69.21,100,72,100Z"/><path class="cls-21" d="M98.13,130c1.12,0,3.87-6.41,3.87-11.26S99.71,107.63,97,105a34.42,34.42,0,0,1,2.71,13.74C99.71,125.84,97,130,98.13,130Z"/><g id="椭圆形备份" class="cls-22"><path id="path-20" class="cls-5" d="M71.94,136.68c.06,1.12,5.58,3.58,9.65,3.37s9.2-2.77,11.26-5.6a25.14,25.14,0,0,1-11.38,3.32C75.51,138.08,71.88,135.57,71.94,136.68Z"/><path class="cls-23" d="M71.94,136.68c.06,1.12,5.58,3.58,9.65,3.37s9.2-2.77,11.26-5.6a25.14,25.14,0,0,1-11.38,3.32C75.51,138.08,71.88,135.57,71.94,136.68Z"/></g><g class="cls-24"><ellipse id="path-22" cx="80.5" cy="116.5" rx="9.5" ry="10.5"/><ellipse class="cls-25" cx="80.5" cy="116.5" rx="9.5" ry="10.5"/></g><rect class="cls-26" x="51" y="88" width="7" height="3"/><rect id="矩形备份-11" class="cls-26" x="103" y="88" width="7" height="3"/><rect id="矩形备份-17" class="cls-26" x="51" y="84" width="7" height="3"/><rect id="矩形备份-24" class="cls-26" x="103" y="84" width="7" height="3"/><rect id="矩形备份-7" class="cls-26" x="51" y="70" width="7" height="3"/><rect id="矩形备份-12" class="cls-26" x="103" y="70" width="7" height="3"/><rect id="矩形备份-6" class="cls-26" x="40" y="79" width="19" height="3"/><rect id="矩形备份-13" class="cls-26" x="102" y="79" width="19" height="3"/><rect id="矩形备份-23" class="cls-26" x="40" y="93" width="19" height="3"/><rect id="矩形备份-25" class="cls-26" x="102" y="93" width="19" height="3"/><rect id="矩形备份-19" class="cls-26" x="40" y="65" width="19" height="3"/><rect id="矩形备份-26" class="cls-26" x="102" y="65" width="19" height="3"/><rect id="矩形备份-18" class="cls-26" x="51" y="75" width="7" height="3"/><rect id="矩形备份-27" class="cls-26" x="103" y="75" width="7" height="3"/><rect id="矩形备份-8" class="cls-26" x="51" y="61" width="7" height="3"/><rect id="矩形备份-14" class="cls-26" x="103" y="61" width="7" height="3"/><rect id="矩形备份-20" class="cls-26" x="51" y="56" width="7" height="3"/><rect id="矩形备份-28" class="cls-26" x="103" y="56" width="7" height="3"/><rect id="矩形备份-9" class="cls-26" x="40" y="52" width="19" height="3"/><rect id="矩形备份-15" class="cls-26" x="102" y="52" width="19" height="3"/><rect id="矩形备份-22" class="cls-26" x="40" y="39" width="19" height="3"/><rect id="矩形备份-29" class="cls-26" x="102" y="39" width="19" height="3"/><rect id="矩形备份-10" class="cls-26" x="51" y="44" width="7" height="3"/><rect id="矩形备份-16" class="cls-26" x="103" y="44" width="7" height="3"/><rect id="矩形备份-21" class="cls-26" x="51" y="48" width="7" height="3"/><rect id="矩形备份-30" class="cls-26" x="103" y="48" width="7" height="3"/><g id="C" class="cls-27"><text class="cls-28" transform="translate(50 32)">C</text></g><g id="F" class="cls-27"><text class="cls-28" transform="translate(104 32)">F</text></g><g class="cls-29"><circle id="path-24" class="cls-30" cx="82.5" cy="114.5" r="2.5"/><circle cx="82.5" cy="114.5" r="2.5"/></g><g id="椭圆形备份-5" class="cls-29"><circle id="path-26" class="cls-31" cx="125.5" cy="124.5" r="2.5"/><circle cx="125.5" cy="124.5" r="2.5"/></g><g id="椭圆形备份-13" class="cls-29"><circle id="path-28" class="cls-31" cx="87.5" cy="149.5" r="2.5"/><circle cx="87.5" cy="149.5" r="2.5"/></g><g id="椭圆形备份-11" class="cls-29"><circle id="path-30" class="cls-31" cx="42.5" cy="106.5" r="2.5"/><circle cx="42.5" cy="106.5" r="2.5"/></g><g id="椭圆形备份-8" class="cls-29"><circle id="path-32" class="cls-31" cx="55.5" cy="142.5" r="2.5"/><circle cx="55.5" cy="142.5" r="2.5"/></g><g id="椭圆形备份-2" class="cls-29"><circle id="path-34" class="cls-30" cx="77.5" cy="105.5" r="1.5"/><circle cx="77.5" cy="105.5" r="1.5"/></g><g id="椭圆形备份-6" class="cls-29"><circle id="path-36" class="cls-31" cx="48.5" cy="134.5" r="1.5"/><circle cx="48.5" cy="134.5" r="1.5"/></g><g id="椭圆形备份-12" class="cls-29"><circle id="path-38" class="cls-31" cx="140.5" cy="113.5" r="1.5"/><circle cx="140.5" cy="113.5" r="1.5"/></g><g id="椭圆形备份-10" class="cls-29"><circle id="path-40" class="cls-31" cx="126.5" cy="92.5" r="1.5"/><circle cx="126.5" cy="92.5" r="1.5"/></g><g id="椭圆形备份-9" class="cls-29"><circle id="path-42" class="cls-31" cx="65.5" cy="152.5" r="1.5"/><circle cx="65.5" cy="152.5" r="1.5"/></g><g id="椭圆形备份-3" class="cls-29"><circle id="path-44" class="cls-30" cx="72.5" cy="116.5" r="1.5"/><circle cx="72.5" cy="116.5" r="1.5"/></g><g id="椭圆形备份-7" class="cls-29"><circle id="path-46" class="cls-31" cx="114.5" cy="105.5" r="1.5"/><circle cx="114.5" cy="105.5" r="1.5"/></g><g id="椭圆形备份-4" class="cls-29"><circle id="path-48" class="cls-30" cx="88.5" cy="103.5" r="1.5"/><circle cx="88.5" cy="103.5" r="1.5"/></g></g></g></g></svg>