<svg xmlns="http://www.w3.org/2000/svg" xmlns:xlink="http://www.w3.org/1999/xlink" width="108.156" height="138.208" viewBox="0 0 108.156 138.208">
  <defs>
    <filter id="减去_296" x="0" y="0" width="108.156" height="138.208" filterUnits="userSpaceOnUse">
      <feOffset input="SourceAlpha"/>
      <feGaussianBlur stdDeviation="3" result="blur"/>
      <feFlood flood-color="#003145"/>
      <feComposite operator="in" in2="blur"/>
      <feComposite in="SourceGraphic"/>
    </filter>
    <filter id="减去_297" x="0" y="0" width="108.156" height="138.208" filterUnits="userSpaceOnUse">
      <feOffset input="SourceAlpha"/>
      <feGaussianBlur stdDeviation="3" result="blur-2"/>
      <feFlood flood-color="#0e3bf7" flood-opacity="0.161"/>
      <feComposite operator="in" in2="blur-2"/>
      <feComposite in="SourceGraphic"/>
    </filter>
  </defs>
  <g id="组_535" data-name="组 535" transform="translate(-6091.392 -4569.221)">
    <g transform="matrix(1, 0, 0, 1, 6091.39, 4569.22)" filter="url(#减去_296)">
      <path id="减去_296-2" data-name="减去 296" d="M116.208,90.156H4a4,4,0,0,1-4-4V73.842l3.005-1.717c.354-.191.718-.379,1.071-.561a16.059,16.059,0,0,0,3.407-2.119,4.313,4.313,0,0,0,1.533-3.33V24.042c0-2.847-2.321-4.064-4.778-5.352-.4-.212-.824-.432-1.232-.659L0,16.313V4A4,4,0,0,1,4,0H116.208a4,4,0,0,1,4,4V86.156A4,4,0,0,1,116.208,90.156Z" transform="translate(99.16 9) rotate(90)" fill="rgba(10,132,181,0.2)"/>
    </g>
    <path id="路径_1319" data-name="路径 1319" d="M0,0,6.01,3.005V45.078L0,48.083Z" transform="translate(6169.512 4578.221) rotate(90)" fill="#8ddeff"/>
    <g transform="matrix(1, 0, 0, 1, 6091.39, 4569.22)" filter="url(#减去_297)">
      <g id="减去_297-2" data-name="减去 297" transform="translate(99.16 9) rotate(90)" fill="none" opacity="0.625">
        <path d="M116.208,90.156H4a4,4,0,0,1-4-4V73.842l3.005-1.717c.354-.191.718-.379,1.071-.561a16.059,16.059,0,0,0,3.407-2.119,4.313,4.313,0,0,0,1.533-3.33V24.042c0-2.847-2.321-4.064-4.778-5.352-.4-.212-.824-.432-1.232-.659L0,16.313V4A4,4,0,0,1,4,0H116.208a4,4,0,0,1,4,4V86.156A4,4,0,0,1,116.208,90.156Z" stroke="none"/>
        <path d="M 116.2080001831055 88.15570068359375 C 117.3106002807617 88.15570068359375 118.2076110839844 87.25868225097656 118.2076110839844 86.15612030029297 L 118.2076110839844 3.999600410461426 C 118.2076110839844 2.897017002105713 117.3106002807617 2.000000238418579 116.2080001831055 2.000000238418579 L 3.999613285064697 2.000000238418579 C 2.897029876708984 2.000000238418579 2.000013113021851 2.897017002105713 2.000013113021851 3.999600410461426 L 2.000013113021851 15.15282249450684 L 3.986659288406372 16.28799438476562 C 4.370691776275635 16.50135803222656 4.774641990661621 16.71314239501953 5.166196346282959 16.91839981079102 C 6.472896575927734 17.60341644287109 7.824113368988037 18.3117504119873 8.906179428100586 19.31306648254395 C 10.30569648742676 20.60810089111328 11.01531314849854 22.19905090332031 11.01531314849854 24.04170036315918 L 11.01531314849854 66.11399841308594 C 11.01531314849854 67.98660278320312 10.27936363220215 69.60503387451172 8.827896118164062 70.92434692382812 C 7.710713386535645 71.93980407714844 6.328996658325195 72.65215301513672 4.990063190460205 73.34245300292969 C 4.65355396270752 73.51594543457031 4.305830478668213 73.69522857666016 3.975677251815796 73.87308502197266 L 2.000013113021851 75.00215911865234 L 2.000013113021851 86.15612030029297 C 2.000013113021851 87.25868225097656 2.897029876708984 88.15570068359375 3.999613285064697 88.15570068359375 L 116.2080001831055 88.15570068359375 M 116.2080001831055 90.15570068359375 L 3.999613285064697 90.15570068359375 C 1.794229865074158 90.15570068359375 1.317138685408281e-05 88.36150360107422 1.317138685408281e-05 86.15612030029297 L 1.317138685408281e-05 73.84158325195312 L 3.005113124847412 72.12419891357422 C 3.358879804611206 71.93326568603516 3.723513126373291 71.74528503417969 4.076113224029541 71.56348419189453 C 5.297479629516602 70.93379974365234 6.560229778289795 70.28279876708984 7.482679843902588 69.44435119628906 C 8.513979911804199 68.50695037841797 9.015313148498535 67.41758728027344 9.015313148498535 66.11399841308594 L 9.015313148498535 24.04170036315918 C 9.015313148498535 21.19440078735352 6.694579601287842 19.977783203125 4.23759651184082 18.68976783752441 C 3.832613229751587 18.47744941711426 3.413846492767334 18.2579174041748 3.005113124847412 18.03059959411621 L 1.317138685408281e-05 16.31348419189453 L 1.317138685408281e-05 3.999600410461426 C 1.317138685408281e-05 1.794216990470886 1.794229865074158 3.41796862812771e-07 3.999613285064697 3.41796862812771e-07 L 116.2080001831055 3.41796862812771e-07 C 118.4133987426758 3.41796862812771e-07 120.2076110839844 1.794216990470886 120.2076110839844 3.999600410461426 L 120.2076110839844 86.15612030029297 C 120.2076110839844 88.36150360107422 118.4133987426758 90.15570068359375 116.2080001831055 90.15570068359375 Z" stroke="none" fill="#8ddeff"/>
      </g>
    </g>
  </g>
</svg>
