<svg xmlns="http://www.w3.org/2000/svg" xmlns:xlink="http://www.w3.org/1999/xlink" width="217" height="174" viewBox="0 0 217 174">
  <defs>
    <filter id="减去_168" x="0" y="0" width="217" height="174" filterUnits="userSpaceOnUse">
      <feOffset input="SourceAlpha"/>
      <feGaussianBlur stdDeviation="7.5" result="blur"/>
      <feFlood flood-color="#0036c9"/>
      <feComposite operator="in" in2="blur"/>
      <feComposite in="SourceGraphic"/>
    </filter>
    <filter id="减去_543" x="13.5" y="13.5" width="189.664" height="147" filterUnits="userSpaceOnUse">
      <feOffset input="SourceAlpha"/>
      <feGaussianBlur stdDeviation="3" result="blur-2"/>
      <feFlood flood-color="#0e3bf7" flood-opacity="0.161"/>
      <feComposite operator="in" in2="blur-2"/>
      <feComposite in="SourceGraphic"/>
    </filter>
  </defs>
  <g id="组_888" data-name="组 888" transform="translate(-3325.5 -2331)">
    <g id="组_887" data-name="组 887" transform="translate(2062 1906)">
      <g transform="matrix(1, 0, 0, 1, 1263.5, 425)" filter="url(#减去_168)">
        <path id="减去_168-2" data-name="减去 168" d="M168,129H4a4,4,0,0,1-4-4V105.657L4.3,103.2c.506-.273,1.028-.542,1.532-.8a22.981,22.981,0,0,0,4.875-3.033A6.17,6.17,0,0,0,12.9,94.6V34.4c0-4.073-3.321-5.814-6.837-7.658-.579-.3-1.178-.618-1.763-.943L0,23.342V4A4,4,0,0,1,4,0H168a4,4,0,0,1,4,4V23.342L167.7,25.8c-.584.325-1.183.639-1.763.943-3.516,1.843-6.837,3.584-6.837,7.658V94.6a6.17,6.17,0,0,0,2.192,4.764,22.969,22.969,0,0,0,4.872,3.032c.507.262,1.029.531,1.535.8l4.3,2.457V125A4,4,0,0,1,168,129Z" transform="translate(22.5 22.5)" fill="#001755"/>
      </g>
    </g>
    <g id="组_885" data-name="组 885">
      <path id="路径_1846" data-name="路径 1846" d="M0-2,8.6,2.3V62.5L0,66.8Z" transform="translate(3348 2385.6)" fill="#336aff"/>
      <path id="路径_1847" data-name="路径 1847" d="M8.655-2,0,2.3V62.5l8.655,4.3Z" transform="translate(3511.009 2385.6)" fill="#336aff"/>
      <g transform="matrix(1, 0, 0, 1, 3325.5, 2331)" filter="url(#减去_543)">
        <g id="减去_543-2" data-name="减去 543" transform="translate(22.5 22.5)" fill="none" opacity="0.625">
          <path d="M167.664,129H4a4,4,0,0,1-4-4V105.657L4.291,103.2c.505-.273,1.027-.543,1.531-.8a22.924,22.924,0,0,0,4.864-3.032A6.1,6.1,0,0,0,12.875,94.6V34.4c0-4.074-3.315-5.815-6.825-7.658-.578-.3-1.175-.617-1.759-.942L0,23.343V4A4,4,0,0,1,4,0H167.664a4,4,0,0,1,4,4V23.342L167.372,25.8c-.583.325-1.181.639-1.759.943-3.509,1.843-6.823,3.584-6.823,7.658V94.6a6.176,6.176,0,0,0,2.188,4.764,22.918,22.918,0,0,0,4.863,3.032c.5.261,1.026.53,1.532.8l4.292,2.457V125A4,4,0,0,1,167.664,129Z" stroke="none"/>
          <path d="M 167.6637268066406 124.9997024536133 L 167.6614379882812 124.9997024536133 C 167.6623840332031 124.9988632202148 167.663330078125 124.9979248046875 167.6641998291016 124.9969863891602 L 167.6641998291016 107.9758834838867 L 165.4279174804688 106.6954803466797 C 164.9683380126953 106.4475021362305 164.479736328125 106.1950378417969 164.0038757324219 105.9491577148438 C 162.1225280761719 104.9770812988281 159.9901428222656 103.8753051757812 158.2838745117188 102.3211059570312 C 157.1519470214844 101.2900314331055 156.2814178466797 100.1214065551758 155.6965026855469 98.84765625 C 155.0948028564453 97.53737640380859 154.7897033691406 96.10823059082031 154.7897033691406 94.59990692138672 L 154.7897033691406 34.39980316162109 C 154.7897033691406 31.43487930297852 155.9256439208984 28.87837982177734 158.1660308837891 26.80130577087402 C 159.8225708007812 25.26550483703613 161.8206176757812 24.21590423583984 163.7529449462891 23.20085525512695 C 164.3026123046875 22.912109375 164.8707580566406 22.61366844177246 165.4051513671875 22.31635093688965 L 167.6641845703125 21.02305221557617 L 167.6640930175781 4.002616882324219 C 167.6632690429688 4.00171422958374 167.6623382568359 4.000813961029053 167.6637268066406 4.00000524520874 L 4.002357959747314 4.000104904174805 C 4.001549243927002 4.000851154327393 4.000740528106689 4.001662254333496 4 4.002470970153809 L 4 21.02347946166992 L 6.257475852966309 22.31595802307129 C 6.793120384216309 22.61391639709473 7.360617160797119 22.91195869445801 7.909749984741211 23.20035552978516 C 9.842374801635742 24.21540451049805 11.84077453613281 25.26500511169434 13.49757480621338 26.80083084106445 C 15.73834991455078 28.87797927856445 16.87452507019043 31.43462944030762 16.87452507019043 34.39980316162109 L 16.87452507019043 94.59990692138672 C 16.87452507019043 97.61157989501953 15.6987247467041 100.2095336914062 13.37972450256348 102.3216018676758 C 11.67307472229004 103.8759307861328 9.539950370788574 104.9778518676758 7.656700134277344 105.9507293701172 C 7.18367862701416 106.1950912475586 6.695005893707275 106.4475326538086 6.235490798950195 106.695426940918 L 4.000011920928955 107.9754409790039 L 4.000099658966064 124.9973449707031 C 4.000846385955811 124.9981536865234 4.001657485961914 124.9989624023438 3.999599933624268 124.9997024536133 L 167.6637268066406 124.9997024536133 M 167.6637268066406 128.9997100830078 L 3.999599933624268 128.9997100830078 C 1.79419994354248 128.9997100830078 -8.544922991404746e-08 127.2055053710938 -8.544922991404746e-08 125.0001068115234 L -8.544922991404746e-08 105.6565017700195 L 4.291199684143066 103.1994018554688 C 4.796499729156494 102.9260787963867 5.317899703979492 102.6567306518555 5.822099685668945 102.3962554931641 C 7.566249847412109 101.4952545166016 9.369250297546387 100.5638275146484 10.68634986877441 99.36428070068359 C 12.17920017242432 98.00463104248047 12.87452507019043 96.49070739746094 12.87452507019043 94.59990692138672 L 12.87452507019043 34.39980316162109 C 12.87452507019043 30.32610511779785 9.559474945068359 28.58498001098633 6.049799919128418 26.74163055419922 C 5.472099781036377 26.43823051452637 4.874750137329102 26.12447929382324 4.291199684143066 25.79940414428711 L -8.544922991404746e-08 23.34255409240723 L -8.544922991404746e-08 3.999604940414429 C -8.544922991404746e-08 1.794205069541931 1.79419994354248 5.041503754910082e-06 3.999599933624268 5.041503754910082e-06 L 167.6637268066406 5.041503754910082e-06 C 169.8695678710938 5.041503754910082e-06 171.6641998291016 1.794205069541931 171.6641998291016 3.999604940414429 L 171.6641998291016 23.3421802520752 L 167.3721008300781 25.79940414428711 C 166.7888793945312 26.12438011169434 166.1911773681641 26.4383544921875 165.6131286621094 26.74200439453125 C 162.1041259765625 28.58530426025391 158.7897033691406 30.32637977600098 158.7897033691406 34.39980316162109 L 158.7897033691406 94.59990692138672 C 158.7897033691406 96.46465301513672 159.5053253173828 98.02300262451172 160.9774932861328 99.36400604248047 C 162.2943267822266 100.5634765625 164.0969543457031 101.4948577880859 165.8401794433594 102.3955535888672 C 166.3446502685547 102.6562271118164 166.8663024902344 102.9257583618164 167.3721008300781 103.1994018554688 L 171.6641998291016 105.6568832397461 L 171.6641998291016 125.0001068115234 C 171.6641998291016 127.2055053710938 169.8695678710938 128.9997100830078 167.6637268066406 128.9997100830078 Z" stroke="none" fill="#336aff"/>
        </g>
      </g>
    </g>
  </g>
</svg>
