<svg xmlns="http://www.w3.org/2000/svg" xmlns:xlink="http://www.w3.org/1999/xlink" width="77.999" height="98" viewBox="0 0 77.999 98">
  <defs>
    <filter id="减去_72" x="0" y="0" width="77.999" height="98" filterUnits="userSpaceOnUse">
      <feOffset input="SourceAlpha"/>
      <feGaussianBlur stdDeviation="3" result="blur"/>
      <feFlood flood-color="#0036c9"/>
      <feComposite operator="in" in2="blur"/>
      <feComposite in="SourceGraphic"/>
    </filter>
    <filter id="减去_73" x="0" y="0" width="77.999" height="98" filterUnits="userSpaceOnUse">
      <feOffset input="SourceAlpha"/>
      <feGaussianBlur stdDeviation="3" result="blur-2"/>
      <feFlood flood-color="#0e3bf7" flood-opacity="0.161"/>
      <feComposite operator="in" in2="blur-2"/>
      <feComposite in="SourceGraphic"/>
    </filter>
  </defs>
  <g id="组_883" data-name="组 883" transform="translate(-2995 194)">
    <g transform="matrix(1, 0, 0, 1, 2995, -194)" filter="url(#减去_72)">
      <path id="减去_72-2" data-name="减去 72" d="M85-1283H13a4,4,0,0,1-4-4v-6.857L11-1295c.237-.128.478-.252.712-.373,1.691-.872,3.289-1.7,3.289-3.627v-28c0-1.9-1.545-2.7-3.18-3.562l0,0c-.268-.141-.545-.286-.815-.436l-2-1.143V-1339a4,4,0,0,1,4-4H85a4,4,0,0,1,4,4v52A4,4,0,0,1,85-1283Z" transform="translate(-1274) rotate(90)" fill="#001755"/>
    </g>
    <path id="路径_171" data-name="路径 171" d="M0-2,4,0V28L0,30Z" transform="translate(3048 -185) rotate(90)" fill="#336aff"/>
    <g transform="matrix(1, 0, 0, 1, 2995, -194)" filter="url(#减去_73)">
      <g id="减去_73-2" data-name="减去 73" transform="translate(-1274) rotate(90)" fill="none" opacity="0.625">
        <path d="M85-1283H13a4,4,0,0,1-4-4v-6.857L11-1295c.237-.128.478-.252.712-.373,1.691-.872,3.289-1.7,3.289-3.627v-28c0-1.9-1.545-2.7-3.18-3.562l0,0c-.268-.141-.545-.286-.815-.436l-2-1.143V-1339a4,4,0,0,1,4-4H85a4,4,0,0,1,4,4v52A4,4,0,0,1,85-1283Z" stroke="none"/>
        <path d="M 84.99960327148438 -1285.00048828125 C 86.10267639160156 -1285.00048828125 87.00009918212891 -1285.8974609375 87.00009918212891 -1287 L 87.00009918212891 -1339.000244140625 C 87.00009918212891 -1340.102783203125 86.10267639160156 -1340.999877929688 84.99960327148438 -1340.999877929688 L 12.99960231781006 -1340.999877929688 C 11.89701461791992 -1340.999877929688 11.00000286102295 -1340.102783203125 11.00000286102295 -1339.000244140625 L 11.00000286102295 -1333.303466796875 L 11.98168277740479 -1332.742553710938 C 12.22630977630615 -1332.606689453125 12.48748302459717 -1332.4697265625 12.74263286590576 -1332.3359375 L 12.74327278137207 -1332.335571289062 L 12.74616718292236 -1332.334106445312 L 12.74884986877441 -1332.332763671875 C 13.65721416473389 -1331.856567382812 14.59652042388916 -1331.3642578125 15.38184928894043 -1330.6376953125 C 16.45577812194824 -1329.64404296875 17.00030899047852 -1328.420043945312 17.00030899047852 -1326.999633789062 L 17.00030899047852 -1298.999755859375 C 17.00030899047852 -1297.556762695312 16.44069671630859 -1296.315307617188 15.33702564239502 -1295.31005859375 C 14.5308256149292 -1294.57568359375 13.56355571746826 -1294.0771484375 12.62744998931885 -1293.594604492188 C 12.42236804962158 -1293.489013671875 12.19075298309326 -1293.369750976562 11.97019672393799 -1293.251098632812 L 11.00000286102295 -1292.696655273438 L 11.00000286102295 -1287 C 11.00000286102295 -1285.8974609375 11.89701461791992 -1285.00048828125 12.99960231781006 -1285.00048828125 L 84.99960327148438 -1285.00048828125 M 84.99960327148438 -1283.00048828125 L 12.99960231781006 -1283.00048828125 C 10.79421424865723 -1283.00048828125 9.000002861022949 -1284.794677734375 9.000002861022949 -1287 L 9.000002861022949 -1293.857299804688 L 10.9998025894165 -1295.000122070312 C 11.23636722564697 -1295.127685546875 11.47806167602539 -1295.252319335938 11.71179103851318 -1295.372680664062 C 13.40295505523682 -1296.244384765625 15.0003080368042 -1297.067749023438 15.0003080368042 -1298.999755859375 L 15.0003080368042 -1326.999633789062 C 15.0003080368042 -1328.894653320312 13.45557880401611 -1329.704223632812 11.82016754150391 -1330.561401367188 L 11.8152379989624 -1330.56396484375 C 11.54723739624023 -1330.704467773438 11.27012062072754 -1330.849731445312 10.9998025894165 -1331.000122070312 L 9.000002861022949 -1332.142700195312 L 9.000002861022949 -1339.000244140625 C 9.000002861022949 -1341.205688476562 10.79421424865723 -1342.999877929688 12.99960231781006 -1342.999877929688 L 84.99960327148438 -1342.999877929688 C 87.20548248291016 -1342.999877929688 89.00009918212891 -1341.205688476562 89.00009918212891 -1339.000244140625 L 89.00009918212891 -1287 C 89.00009918212891 -1284.794677734375 87.20548248291016 -1283.00048828125 84.99960327148438 -1283.00048828125 Z" stroke="none" fill="#336aff"/>
      </g>
    </g>
  </g>
</svg>
