<?xml version="1.0" encoding="iso-8859-1"?>
<!-- Generator: Adobe Illustrator 16.0.0, SVG Export Plug-In . SVG Version: 6.00 Build 0)  -->
<!DOCTYPE svg PUBLIC "-//W3C//DTD SVG 1.1//EN" "http://www.w3.org/Graphics/SVG/1.1/DTD/svg11.dtd">
<svg version="1.1" id="&#x56FE;&#x5C42;_1" xmlns="http://www.w3.org/2000/svg" xmlns:xlink="http://www.w3.org/1999/xlink" x="0px"
	 y="0px" width="14.597px" height="1080px" viewBox="0 0 14.597 1080" style="enable-background:new 0 0 14.597 1080;"
	 xml:space="preserve">
<g id="&#x56FE;&#x5C42;_2">
	<g id="&#x56FE;&#x5C42;_1-2">
		<g id="&#x7EC4;_883">
			<path id="&#x8DEF;&#x5F84;_3026" style="fill:#1A53A7;" d="M14.597,48.958v14.691h-4.221V48.958H14.597z"/>
			<path id="&#x8DEF;&#x5F84;_3027" style="fill:#1A53A7;" d="M14.597,765.842v14.691h-4.221v-14.691H14.597z"/>
			<path id="&#x8DEF;&#x5F84;_3028" style="fill:#1A53A7;" d="M14.597,407.399v14.691h-4.221v-14.691H14.597z"/>
			<path id="&#x8DEF;&#x5F84;_3031" style="fill:#1A53A7;" d="M14.597,228.179v14.691h-4.221v-14.691H14.597z"/>
			<path id="&#x8DEF;&#x5F84;_3032" style="fill:#1A53A7;" d="M14.597,945.063v14.691h-4.221v-14.691H14.597z"/>
			<path id="&#x8DEF;&#x5F84;_3033" style="fill:#1A53A7;" d="M14.597,586.62v14.691h-4.221V586.62H14.597z"/>
			<path id="&#x8DEF;&#x5F84;_3036" style="fill:#1A53A7;" d="M14.597,138.568v14.691h-4.221v-14.691H14.597z"/>
			<path id="&#x8DEF;&#x5F84;_3037" style="fill:#1A53A7;" d="M14.597,855.452v14.691h-4.221v-14.691H14.597z"/>
			<path id="&#x8DEF;&#x5F84;_3038" style="fill:#1A53A7;" d="M14.597,497.01v14.691h-4.221V497.01H14.597z"/>
			<path id="&#x8DEF;&#x5F84;_3041" style="fill:#1A53A7;" d="M14.597,317.789v14.691h-4.221v-14.691H14.597z"/>
			<path id="&#x8DEF;&#x5F84;_3044" style="fill:#1A53A7;" d="M14.597,676.231v14.691h-4.221v-14.691H14.597z"/>
			<path id="&#x8DEF;&#x5F84;_3047" style="fill:#1A53A7;" d="M14.597,93.763v14.691h-4.221V93.763H14.597z"/>
			<path id="&#x8DEF;&#x5F84;_3048" style="fill:#1A53A7;" d="M14.597,810.646v14.691h-4.221v-14.691H14.597z"/>
			<path id="&#x8DEF;&#x5F84;_3049" style="fill:#1A53A7;" d="M14.597,452.205v14.691h-4.221v-14.691H14.597z"/>
			<path id="&#x8DEF;&#x5F84;_3052" style="fill:#1A53A7;" d="M14.597,272.983v14.692h-4.221v-14.692H14.597z"/>
			<path id="&#x8DEF;&#x5F84;_3053" style="fill:#1A53A7;" d="M14.597,989.868v14.691h-4.221v-14.691H14.597z"/>
			<path id="&#x8DEF;&#x5F84;_3054" style="fill:#1A53A7;" d="M14.597,631.426v14.691h-4.221v-14.691H14.597z"/>
			<path id="&#x8DEF;&#x5F84;_3057" style="fill:#1A53A7;" d="M14.597,183.373v14.691h-4.221v-14.691H14.597z"/>
			<path id="&#x8DEF;&#x5F84;_3058" style="fill:#1A53A7;" d="M14.597,900.258v14.691h-4.221v-14.691H14.597z"/>
			<path id="&#x8DEF;&#x5F84;_3059" style="fill:#1A53A7;" d="M14.597,541.815v14.691h-4.221v-14.691H14.597z"/>
			<path id="&#x8DEF;&#x5F84;_3062" style="fill:#1A53A7;" d="M14.597,362.594v14.691h-4.221v-14.691H14.597z"/>
			<path id="&#x8DEF;&#x5F84;_3065" style="fill:#1A53A7;" d="M14.597,721.036v14.691h-4.221v-14.691H14.597z"/>
			<path id="&#x8DEF;&#x5F84;_1841_1_" style="fill:#1A53A7;" d="M15.576,1028.601v-4.221"/>
			<path id="&#x8DEF;&#x5F84;_3068" style="fill:#1A53A7;" d="M14.597,41.27v6.709h-4.221V41.27H14.597z"/>
			<path id="&#x8DEF;&#x5F84;_2552_1_" style="fill:#1A53A7;" d="M15.576,45.243v-4.221"/>
			<path id="&#x8DEF;&#x5F84;_3069" style="fill:#1A53A7;" d="M14.597,756.893v7.971h-4.221v-7.971H14.597z"/>
			<path id="&#x8DEF;&#x5F84;_3070" style="fill:#1A53A7;" d="M14.597,396.823v9.598h-4.221v-9.598H14.597z"/>
			<path id="&#x8DEF;&#x5F84;_3073" style="fill:#1A53A7;" d="M14.597,219.064v8.088h-4.221v-8.088H14.597z"/>
			<path id="&#x8DEF;&#x5F84;_3074" style="fill:#1A53A7;" d="M14.597,935.948v8.089h-4.221v-8.089H14.597z"/>
			<path id="&#x8DEF;&#x5F84;_3075" style="fill:#1A53A7;" d="M14.597,577.506v8.089h-4.221v-8.089H14.597z"/>
			<path id="&#x8DEF;&#x5F84;_3078" style="fill:#1A53A7;" d="M14.597,129.736v7.854h-4.221v-7.854H14.597z"/>
			<path id="&#x8DEF;&#x5F84;_3079" style="fill:#1A53A7;" d="M14.597,846.621v7.853h-4.221v-7.853H14.597z"/>
			<path id="&#x8DEF;&#x5F84;_3080" style="fill:#1A53A7;" d="M14.597,488.179v7.853h-4.221v-7.853H14.597z"/>
			<path id="&#x8DEF;&#x5F84;_3083" style="fill:#1A53A7;" d="M14.597,308.958v7.853h-4.221v-7.853H14.597z"/>
			<path id="&#x8DEF;&#x5F84;_3084" style="fill:#1A53A7;" d="M14.597,1025.842v13.135h-4.221v-13.135H14.597z"/>
			<path id="&#x8DEF;&#x5F84;_3086" style="fill:#1A53A7;" d="M14.597,667.399v7.853h-4.221v-7.853H14.597z"/>
			<path id="&#x8DEF;&#x5F84;_3089" style="fill:#1A53A7;" d="M14.597,85.203v7.581h-4.221v-7.581H14.597z"/>
			<path id="&#x8DEF;&#x5F84;_3090" style="fill:#1A53A7;" d="M14.597,802.087v7.581h-4.221v-7.581H14.597z"/>
			<path id="&#x8DEF;&#x5F84;_3091" style="fill:#1A53A7;" d="M14.597,443.645v7.582h-4.221v-7.582H14.597z"/>
			<path id="&#x8DEF;&#x5F84;_3094" style="fill:#1A53A7;" d="M14.597,264.424v7.581h-4.221v-7.581H14.597z"/>
			<path id="&#x8DEF;&#x5F84;_3095" style="fill:#1A53A7;" d="M14.597,981.308v7.582h-4.221v-7.582H14.597z"/>
			<path id="&#x8DEF;&#x5F84;_3096" style="fill:#1A53A7;" d="M14.597,622.865v7.582h-4.221v-7.582H14.597z"/>
			<path id="&#x8DEF;&#x5F84;_3099" style="fill:#1A53A7;" d="M14.597,174.813v7.581h-4.221v-7.581H14.597z"/>
			<path id="&#x8DEF;&#x5F84;_3100" style="fill:#1A53A7;" d="M14.597,891.697v7.581h-4.221v-7.581H14.597z"/>
			<path id="&#x8DEF;&#x5F84;_3101" style="fill:#1A53A7;" d="M14.597,533.255v7.582h-4.221v-7.582H14.597z"/>
			<path id="&#x8DEF;&#x5F84;_3104" style="fill:#1A53A7;" d="M14.597,354.034v7.581h-4.221v-7.581H14.597z"/>
			<path id="&#x8DEF;&#x5F84;_3107" style="fill:#1A53A7;" d="M14.597,712.477v7.581h-4.221v-7.581H14.597z"/>
			<path id="&#x8DEF;&#x5F84;_1842_1_" style="fill:#1A53A7;" d="M15.552,1033.813v-4.233"/>
			<path id="&#x8DEF;&#x5F84;_3110" style="fill:#1A53A7;" d="M9.433,41.246v14.691H5.176V41.246H9.433z"/>
			<path id="&#x8DEF;&#x5F84;_2594_1_" style="fill:#1A53A7;" d="M15.552,50.455v-4.233"/>
			<path id="&#x8DEF;&#x5F84;_3111" style="fill:#1A53A7;" d="M9.433,756.326v16.508H5.176v-16.508H9.433z"/>
			<path id="&#x8DEF;&#x5F84;_3112" style="fill:#1A53A7;" d="M9.433,397.566v16.813H5.176v-16.813H9.433z"/>
			<path id="&#x8DEF;&#x5F84;_3115" style="fill:#1A53A7;" d="M9.433,218.063v17.097H5.176v-17.097H9.433z"/>
			<path id="&#x8DEF;&#x5F84;_3116" style="fill:#1A53A7;" d="M9.433,934.946v17.097H5.176v-17.097H9.433z"/>
			<path id="&#x8DEF;&#x5F84;_3117" style="fill:#1A53A7;" d="M9.433,576.504v17.097H5.176v-17.097H9.433z"/>
			<path id="&#x8DEF;&#x5F84;_3120" style="fill:#1A53A7;" d="M9.433,128.971v16.577H5.176v-16.577H9.433z"/>
			<path id="&#x8DEF;&#x5F84;_3121" style="fill:#1A53A7;" d="M9.433,845.854v16.578H5.176v-16.578H9.433z"/>
			<path id="&#x8DEF;&#x5F84;_3122" style="fill:#1A53A7;" d="M9.433,487.412v16.578H5.176v-16.578H9.433z"/>
			<path id="&#x8DEF;&#x5F84;_3125" style="fill:#1A53A7;" d="M9.433,308.191v16.578H5.176v-16.578H9.433z"/>
			<path id="&#x8DEF;&#x5F84;_3126" style="fill:#1A53A7;" d="M9.433,1025.075v13.901H5.176v-13.901H9.433z"/>
			<path id="&#x8DEF;&#x5F84;_3128" style="fill:#1A53A7;" d="M9.433,666.634v16.577H5.176v-16.577H9.433z"/>
			<path id="&#x8DEF;&#x5F84;_3131" style="fill:#1A53A7;" d="M9.433,84.755v15.988H5.176V84.755H9.433z"/>
			<path id="&#x8DEF;&#x5F84;_3132" style="fill:#1A53A7;" d="M9.433,801.639v15.988H5.176v-15.988H9.433z"/>
			<path id="&#x8DEF;&#x5F84;_3133" style="fill:#1A53A7;" d="M9.433,443.196v15.988H5.176v-15.988H9.433z"/>
			<path id="&#x8DEF;&#x5F84;_3136" style="fill:#1A53A7;" d="M9.433,263.976v15.988H5.176v-15.988H9.433z"/>
			<path id="&#x8DEF;&#x5F84;_3137" style="fill:#1A53A7;" d="M9.433,980.859v15.989H5.176v-15.989H9.433z"/>
			<path id="&#x8DEF;&#x5F84;_3138" style="fill:#1A53A7;" d="M9.433,622.418v15.988H5.176v-15.988H9.433z"/>
			<path id="&#x8DEF;&#x5F84;_3141" style="fill:#1A53A7;" d="M9.433,174.365v15.988H5.176v-15.988H9.433z"/>
			<path id="&#x8DEF;&#x5F84;_3142" style="fill:#1A53A7;" d="M9.433,891.249v15.988H5.176v-15.988H9.433z"/>
			<path id="&#x8DEF;&#x5F84;_3143" style="fill:#1A53A7;" d="M9.433,532.807v15.989H5.176v-15.989H9.433z"/>
			<path id="&#x8DEF;&#x5F84;_3146" style="fill:#1A53A7;" d="M9.433,353.586v15.988H5.176v-15.988H9.433z"/>
			<path id="&#x8DEF;&#x5F84;_3149" style="fill:#1A53A7;" d="M9.433,712.028v15.988H5.176v-15.988H9.433z"/>
			<path id="&#x8DEF;&#x5F84;_3152" style="fill:#1A53A7;" d="M9.433,56.928v6.709H5.176v-6.709H9.433z"/>
			<path id="&#x8DEF;&#x5F84;_3153" style="fill:#1A53A7;" d="M9.433,773.813v6.709H5.176v-6.709H9.433z"/>
			<path id="&#x8DEF;&#x5F84;_3154" style="fill:#1A53A7;" d="M9.433,415.37v6.709H5.176v-6.709H9.433z"/>
			<path id="&#x8DEF;&#x5F84;_3157" style="fill:#1A53A7;" d="M9.433,236.149v6.709H5.176v-6.709H9.433z"/>
			<path id="&#x8DEF;&#x5F84;_3158" style="fill:#1A53A7;" d="M9.433,953.033v6.709H5.176v-6.709H9.433z"/>
			<path id="&#x8DEF;&#x5F84;_3159" style="fill:#1A53A7;" d="M9.433,594.591v6.709H5.176v-6.709H9.433z"/>
			<path id="&#x8DEF;&#x5F84;_3162" style="fill:#1A53A7;" d="M9.433,146.539v6.709H5.176v-6.709H9.433z"/>
			<path id="&#x8DEF;&#x5F84;_3163" style="fill:#1A53A7;" d="M9.433,863.423v6.709H5.176v-6.709H9.433z"/>
			<path id="&#x8DEF;&#x5F84;_3164" style="fill:#1A53A7;" d="M9.433,504.98v6.709H5.176v-6.709H9.433z"/>
			<path id="&#x8DEF;&#x5F84;_3167" style="fill:#1A53A7;" d="M9.433,325.76v6.709H5.176v-6.709H9.433z"/>
			<path id="&#x8DEF;&#x5F84;_3170" style="fill:#1A53A7;" d="M9.433,684.202v6.709H5.176v-6.709H9.433z"/>
			<path id="&#x8DEF;&#x5F84;_3173" style="fill:#1A53A7;" d="M9.433,101.733v6.709H5.176v-6.709H9.433z"/>
			<path id="&#x8DEF;&#x5F84;_3174" style="fill:#1A53A7;" d="M9.433,818.617v6.709H5.176v-6.709H9.433z"/>
			<path id="&#x8DEF;&#x5F84;_3175" style="fill:#1A53A7;" d="M9.433,460.176v6.709H5.176v-6.709H9.433z"/>
			<path id="&#x8DEF;&#x5F84;_3178" style="fill:#1A53A7;" d="M9.433,280.954v6.709H5.176v-6.709H9.433z"/>
			<path id="&#x8DEF;&#x5F84;_3179" style="fill:#1A53A7;" d="M9.433,997.839v6.709H5.176v-6.709H9.433z"/>
			<path id="&#x8DEF;&#x5F84;_3180" style="fill:#1A53A7;" d="M9.433,639.396v6.709H5.176v-6.709H9.433z"/>
			<path id="&#x8DEF;&#x5F84;_3183" style="fill:#1A53A7;" d="M9.433,191.344v6.709H5.176v-6.709H9.433z"/>
			<path id="&#x8DEF;&#x5F84;_3184" style="fill:#1A53A7;" d="M9.433,908.228v6.71H5.176v-6.71H9.433z"/>
			<path id="&#x8DEF;&#x5F84;_3185" style="fill:#1A53A7;" d="M9.433,549.786v6.709H5.176v-6.709H9.433z"/>
			<path id="&#x8DEF;&#x5F84;_3188" style="fill:#1A53A7;" d="M9.433,370.564v6.709H5.176v-6.709H9.433z"/>
			<path id="&#x8DEF;&#x5F84;_3191" style="fill:#1A53A7;" d="M9.433,729.007v6.709H5.176v-6.709H9.433z"/>
			<path id="&#x8DEF;&#x5F84;_2857" style="fill:#1A53A7;" d="M4.233,48.934v14.691H0V48.934H4.233z"/>
			<path id="&#x8DEF;&#x5F84;_2858" style="fill:#1A53A7;" d="M4.233,765.818v14.691H0v-14.691H4.233z"/>
			<path id="&#x8DEF;&#x5F84;_2859" style="fill:#1A53A7;" d="M4.233,407.376v14.691H0v-14.691H4.233z"/>
			<path id="&#x8DEF;&#x5F84;_2862" style="fill:#1A53A7;" d="M4.233,228.155v14.691H0v-14.691H4.233z"/>
			<path id="&#x8DEF;&#x5F84;_2863" style="fill:#1A53A7;" d="M4.233,945.039v14.691H0v-14.691H4.233z"/>
			<path id="&#x8DEF;&#x5F84;_2864" style="fill:#1A53A7;" d="M4.233,586.597v14.691H0v-14.691H4.233z"/>
			<path id="&#x8DEF;&#x5F84;_2867" style="fill:#1A53A7;" d="M4.233,138.545v14.691H0v-14.691H4.233z"/>
			<path id="&#x8DEF;&#x5F84;_2868" style="fill:#1A53A7;" d="M4.233,855.429v14.691H0v-14.691H4.233z"/>
			<path id="&#x8DEF;&#x5F84;_2869" style="fill:#1A53A7;" d="M4.233,496.986v14.691H0v-14.691H4.233z"/>
			<path id="&#x8DEF;&#x5F84;_2872" style="fill:#1A53A7;" d="M4.233,317.766v14.691H0v-14.691H4.233z"/>
			<path id="&#x8DEF;&#x5F84;_2875" style="fill:#1A53A7;" d="M4.233,676.207v14.692H0v-14.692H4.233z"/>
			<path id="&#x8DEF;&#x5F84;_2878" style="fill:#1A53A7;" d="M4.233,93.739v14.691H0V93.739H4.233z"/>
			<path id="&#x8DEF;&#x5F84;_2879" style="fill:#1A53A7;" d="M4.233,810.623v14.691H0v-14.691H4.233z"/>
			<path id="&#x8DEF;&#x5F84;_2880" style="fill:#1A53A7;" d="M4.233,452.182v14.691H0v-14.691H4.233z"/>
			<path id="&#x8DEF;&#x5F84;_2883" style="fill:#1A53A7;" d="M4.233,272.96v14.691H0V272.96H4.233z"/>
			<path id="&#x8DEF;&#x5F84;_2884" style="fill:#1A53A7;" d="M4.233,989.845v14.691H0v-14.691H4.233z"/>
			<path id="&#x8DEF;&#x5F84;_2885" style="fill:#1A53A7;" d="M4.233,631.402v14.691H0v-14.691H4.233z"/>
			<path id="&#x8DEF;&#x5F84;_2888" style="fill:#1A53A7;" d="M4.233,183.35v14.691H0V183.35H4.233z"/>
			<path id="&#x8DEF;&#x5F84;_2889" style="fill:#1A53A7;" d="M4.233,900.233v14.692H0v-14.692H4.233z"/>
			<path id="&#x8DEF;&#x5F84;_2890" style="fill:#1A53A7;" d="M4.233,541.792v14.691H0v-14.691H4.233z"/>
			<path id="&#x8DEF;&#x5F84;_2893" style="fill:#1A53A7;" d="M4.233,362.57v14.691H0V362.57H4.233z"/>
			<path id="&#x8DEF;&#x5F84;_2896" style="fill:#1A53A7;" d="M4.233,721.013v14.691H0v-14.691H4.233z"/>
			<path id="&#x8DEF;&#x5F84;_1845_1_" style="fill:#1A53A7;" d="M15.552,1038.977v-4.232"/>
			<path id="&#x8DEF;&#x5F84;_2899" style="fill:#1A53A7;" d="M4.233,41.246v6.709H0v-6.709H4.233z"/>
			<path id="&#x8DEF;&#x5F84;_2680_1_" style="fill:#1A53A7;" d="M15.552,55.619v-4.232"/>
			<path id="&#x8DEF;&#x5F84;_2900" style="fill:#1A53A7;" d="M4.233,757.199v7.641H0v-7.641H4.233z"/>
			<path id="&#x8DEF;&#x5F84;_2901" style="fill:#1A53A7;" d="M4.233,398.285v8.136H0v-8.136H4.233z"/>
			<path id="&#x8DEF;&#x5F84;_2904" style="fill:#1A53A7;" d="M4.233,218.793v8.384H0v-8.384H4.233z"/>
			<path id="&#x8DEF;&#x5F84;_2905" style="fill:#1A53A7;" d="M4.233,935.677v8.384H0v-8.384H4.233z"/>
			<path id="&#x8DEF;&#x5F84;_2906" style="fill:#1A53A7;" d="M4.233,577.235v8.383H0v-8.383H4.233z"/>
			<path id="&#x8DEF;&#x5F84;_2909" style="fill:#1A53A7;" d="M4.233,129.183v8.383H0v-8.383H4.233z"/>
			<path id="&#x8DEF;&#x5F84;_2910" style="fill:#1A53A7;" d="M4.233,846.066v8.384H0v-8.384H4.233z"/>
			<path id="&#x8DEF;&#x5F84;_2911" style="fill:#1A53A7;" d="M4.233,487.624v8.384H0v-8.384H4.233z"/>
			<path id="&#x8DEF;&#x5F84;_2914" style="fill:#1A53A7;" d="M4.233,308.403v8.384H0v-8.384H4.233z"/>
			<path id="&#x8DEF;&#x5F84;_2915" style="fill:#1A53A7;" d="M4.233,1025.288v13.665H0v-13.665H4.233z"/>
			<path id="&#x8DEF;&#x5F84;_2917" style="fill:#1A53A7;" d="M4.233,666.846v8.383H0v-8.383H4.233z"/>
			<path id="&#x8DEF;&#x5F84;_2920" style="fill:#1A53A7;" d="M4.233,83.835v8.926H0v-8.926H4.233z"/>
			<path id="&#x8DEF;&#x5F84;_2921" style="fill:#1A53A7;" d="M4.233,800.719v8.926H0v-8.926H4.233z"/>
			<path id="&#x8DEF;&#x5F84;_2922" style="fill:#1A53A7;" d="M4.233,442.276v8.926H0v-8.926H4.233z"/>
			<path id="&#x8DEF;&#x5F84;_2925" style="fill:#1A53A7;" d="M4.233,263.056v8.926H0v-8.926H4.233z"/>
			<path id="&#x8DEF;&#x5F84;_2926" style="fill:#1A53A7;" d="M4.233,979.94v8.925H0v-8.925H4.233z"/>
			<path id="&#x8DEF;&#x5F84;_2927" style="fill:#1A53A7;" d="M4.233,621.498v8.926H0v-8.926H4.233z"/>
			<path id="&#x8DEF;&#x5F84;_2930" style="fill:#1A53A7;" d="M4.233,173.445v8.926H0v-8.926H4.233z"/>
			<path id="&#x8DEF;&#x5F84;_2931" style="fill:#1A53A7;" d="M4.233,890.329v8.926H0v-8.926H4.233z"/>
			<path id="&#x8DEF;&#x5F84;_2932" style="fill:#1A53A7;" d="M4.233,531.888v8.926H0v-8.926H4.233z"/>
			<path id="&#x8DEF;&#x5F84;_2935" style="fill:#1A53A7;" d="M4.233,352.666v8.926H0v-8.926H4.233z"/>
			<path id="&#x8DEF;&#x5F84;_2938" style="fill:#1A53A7;" d="M4.233,711.108v8.926H0v-8.926H4.233z"/>
			<path id="&#x8DEF;&#x5F84;_3194" style="fill:#1A53A7;" d="M14.597,78.341V48.958h-4.221v29.383H14.597z"/>
			<path id="&#x8DEF;&#x5F84;_3195" style="fill:#1A53A7;" d="M14.597,795.225v-29.383h-4.221v29.383H14.597z"/>
			<path id="&#x8DEF;&#x5F84;_3196" style="fill:#1A53A7;" d="M14.597,436.782v-29.383h-4.221v29.383H14.597z"/>
			<path id="&#x8DEF;&#x5F84;_3199" style="fill:#1A53A7;" d="M14.597,257.562v-29.383h-4.221v29.383H14.597z"/>
			<path id="&#x8DEF;&#x5F84;_3200" style="fill:#1A53A7;" d="M14.597,974.445v-29.383h-4.221v29.383H14.597z"/>
			<path id="&#x8DEF;&#x5F84;_3201" style="fill:#1A53A7;" d="M14.597,616.003V586.62h-4.221v29.383H14.597z"/>
			<path id="&#x8DEF;&#x5F84;_3204" style="fill:#1A53A7;" d="M14.597,167.951v-29.383h-4.221v29.383H14.597z"/>
			<path id="&#x8DEF;&#x5F84;_3205" style="fill:#1A53A7;" d="M14.597,884.835v-29.383h-4.221v29.383H14.597z"/>
			<path id="&#x8DEF;&#x5F84;_3206" style="fill:#1A53A7;" d="M14.597,526.393V497.01h-4.221v29.383H14.597z"/>
			<path id="&#x8DEF;&#x5F84;_3209" style="fill:#1A53A7;" d="M14.597,347.172v-29.383h-4.221v29.383H14.597z"/>
			<path id="&#x8DEF;&#x5F84;_3212" style="fill:#1A53A7;" d="M14.597,705.614v-29.383h-4.221v29.383H14.597z"/>
			<path id="&#x8DEF;&#x5F84;_3215" style="fill:#1A53A7;" d="M14.597,123.146V93.763h-4.221v29.383H14.597z"/>
			<path id="&#x8DEF;&#x5F84;_3216" style="fill:#1A53A7;" d="M14.597,840.029v-29.383h-4.221v29.383H14.597z"/>
			<path id="&#x8DEF;&#x5F84;_3217" style="fill:#1A53A7;" d="M14.597,481.588v-29.383h-4.221v29.383H14.597z"/>
			<path id="&#x8DEF;&#x5F84;_3220" style="fill:#1A53A7;" d="M14.597,302.366v-29.383h-4.221v29.383H14.597z"/>
			<path id="&#x8DEF;&#x5F84;_3221" style="fill:#1A53A7;" d="M14.597,1019.251v-29.383h-4.221v29.383H14.597z"/>
			<path id="&#x8DEF;&#x5F84;_3222" style="fill:#1A53A7;" d="M14.597,660.809v-29.383h-4.221v29.383H14.597z"/>
			<path id="&#x8DEF;&#x5F84;_3225" style="fill:#1A53A7;" d="M14.597,212.756v-29.383h-4.221v29.383H14.597z"/>
			<path id="&#x8DEF;&#x5F84;_3226" style="fill:#1A53A7;" d="M14.597,929.641v-29.383h-4.221v29.383H14.597z"/>
			<path id="&#x8DEF;&#x5F84;_3227" style="fill:#1A53A7;" d="M14.597,571.198v-29.383h-4.221v29.383H14.597z"/>
			<path id="&#x8DEF;&#x5F84;_3230" style="fill:#1A53A7;" d="M14.597,391.977v-29.383h-4.221v29.383H14.597z"/>
			<path id="&#x8DEF;&#x5F84;_3233" style="fill:#1A53A7;" d="M14.597,750.419v-29.383h-4.221v29.383H14.597z"/>
			<path id="&#x8DEF;&#x5F84;_3236" style="fill:#1A53A7;" d="M14.597,86.028v-6.709h-4.221v6.709H14.597z"/>
			<path id="&#x8DEF;&#x5F84;_3237" style="fill:#1A53A7;" d="M14.597,802.912v-6.709h-4.221v6.709H14.597z"/>
			<path id="&#x8DEF;&#x5F84;_3238" style="fill:#1A53A7;" d="M14.597,444.47v-6.709h-4.221v6.709H14.597z"/>
			<path id="&#x8DEF;&#x5F84;_3241" style="fill:#1A53A7;" d="M14.597,265.249v-6.709h-4.221v6.709H14.597z"/>
			<path id="&#x8DEF;&#x5F84;_3242" style="fill:#1A53A7;" d="M14.597,982.133v-6.709h-4.221v6.709H14.597z"/>
			<path id="&#x8DEF;&#x5F84;_3243" style="fill:#1A53A7;" d="M14.597,623.691v-6.709h-4.221v6.709H14.597z"/>
			<path id="&#x8DEF;&#x5F84;_3246" style="fill:#1A53A7;" d="M14.597,175.639v-6.709h-4.221v6.709H14.597z"/>
			<path id="&#x8DEF;&#x5F84;_3247" style="fill:#1A53A7;" d="M14.597,892.522v-6.709h-4.221v6.709H14.597z"/>
			<path id="&#x8DEF;&#x5F84;_3248" style="fill:#1A53A7;" d="M14.597,534.08v-6.709h-4.221v6.709H14.597z"/>
			<path id="&#x8DEF;&#x5F84;_3251" style="fill:#1A53A7;" d="M14.597,354.859v-6.709h-4.221v6.709H14.597z"/>
			<path id="&#x8DEF;&#x5F84;_3254" style="fill:#1A53A7;" d="M14.597,713.302v-6.709h-4.221v6.709H14.597z"/>
			<path id="&#x8DEF;&#x5F84;_3257" style="fill:#1A53A7;" d="M14.597,130.833v-6.709h-4.221v6.709H14.597z"/>
			<path id="&#x8DEF;&#x5F84;_3258" style="fill:#1A53A7;" d="M14.597,847.718v-6.709h-4.221v6.709H14.597z"/>
			<path id="&#x8DEF;&#x5F84;_3259" style="fill:#1A53A7;" d="M14.597,489.275v-6.709h-4.221v6.709H14.597z"/>
			<path id="&#x8DEF;&#x5F84;_3262" style="fill:#1A53A7;" d="M14.597,310.054v-6.709h-4.221v6.709H14.597z"/>
			<path id="&#x8DEF;&#x5F84;_3263" style="fill:#1A53A7;" d="M14.597,1026.938v-6.709h-4.221v6.709H14.597z"/>
			<path id="&#x8DEF;&#x5F84;_3265" style="fill:#1A53A7;" d="M14.597,668.496v-6.709h-4.221v6.709H14.597z"/>
			<path id="&#x8DEF;&#x5F84;_3268" style="fill:#1A53A7;" d="M14.597,220.443v-6.709h-4.221v6.709H14.597z"/>
			<path id="&#x8DEF;&#x5F84;_3269" style="fill:#1A53A7;" d="M14.597,937.328v-6.709h-4.221v6.709H14.597z"/>
			<path id="&#x8DEF;&#x5F84;_3270" style="fill:#1A53A7;" d="M14.597,578.886v-6.709h-4.221v6.709H14.597z"/>
			<path id="&#x8DEF;&#x5F84;_3273" style="fill:#1A53A7;" d="M14.597,399.665v-6.709h-4.221v6.709H14.597z"/>
			<path id="&#x8DEF;&#x5F84;_3276" style="fill:#1A53A7;" d="M14.597,758.106v-6.709h-4.221v6.709H14.597z"/>
			<path id="&#x8DEF;&#x5F84;_3279" style="fill:#1A53A7;" d="M9.433,86.052V71.36H5.176v14.691H9.433z"/>
			<path id="&#x8DEF;&#x5F84;_3280" style="fill:#1A53A7;" d="M9.433,802.936v-14.691H5.176v14.691H9.433z"/>
			<path id="&#x8DEF;&#x5F84;_3281" style="fill:#1A53A7;" d="M9.433,444.493v-14.691H5.176v14.691H9.433z"/>
			<path id="&#x8DEF;&#x5F84;_3284" style="fill:#1A53A7;" d="M9.433,265.272v-14.691H5.176v14.691H9.433z"/>
			<path id="&#x8DEF;&#x5F84;_3285" style="fill:#1A53A7;" d="M9.433,982.156v-14.691H5.176v14.691H9.433z"/>
			<path id="&#x8DEF;&#x5F84;_3286" style="fill:#1A53A7;" d="M9.433,623.715v-14.691H5.176v14.691H9.433z"/>
			<path id="&#x8DEF;&#x5F84;_3289" style="fill:#1A53A7;" d="M9.433,175.662v-14.691H5.176v14.691H9.433z"/>
			<path id="&#x8DEF;&#x5F84;_3290" style="fill:#1A53A7;" d="M9.433,892.546v-14.691H5.176v14.691H9.433z"/>
			<path id="&#x8DEF;&#x5F84;_3291" style="fill:#1A53A7;" d="M9.433,534.104v-14.691H5.176v14.691H9.433z"/>
			<path id="&#x8DEF;&#x5F84;_3294" style="fill:#1A53A7;" d="M9.433,354.883v-14.691H5.176v14.691H9.433z"/>
			<path id="&#x8DEF;&#x5F84;_3297" style="fill:#1A53A7;" d="M9.433,713.325v-14.691H5.176v14.691H9.433z"/>
			<path id="&#x8DEF;&#x5F84;_3300" style="fill:#1A53A7;" d="M9.433,130.856v-14.691H5.176v14.691H9.433z"/>
			<path id="&#x8DEF;&#x5F84;_3301" style="fill:#1A53A7;" d="M9.433,847.741V833.05H5.176v14.691H9.433z"/>
			<path id="&#x8DEF;&#x5F84;_3302" style="fill:#1A53A7;" d="M9.433,489.299v-14.691H5.176v14.691H9.433z"/>
			<path id="&#x8DEF;&#x5F84;_3305" style="fill:#1A53A7;" d="M9.433,310.078v-14.691H5.176v14.691H9.433z"/>
			<path id="&#x8DEF;&#x5F84;_3306" style="fill:#1A53A7;" d="M9.433,1026.962v-14.691H5.176v14.691H9.433z"/>
			<path id="&#x8DEF;&#x5F84;_3308" style="fill:#1A53A7;" d="M9.433,668.52v-14.691H5.176v14.691H9.433z"/>
			<path id="&#x8DEF;&#x5F84;_3311" style="fill:#1A53A7;" d="M9.433,220.468v-14.691H5.176v14.691H9.433z"/>
			<path id="&#x8DEF;&#x5F84;_3312" style="fill:#1A53A7;" d="M9.433,937.352V922.66H5.176v14.691H9.433z"/>
			<path id="&#x8DEF;&#x5F84;_3313" style="fill:#1A53A7;" d="M9.433,578.909v-14.691H5.176v14.691H9.433z"/>
			<path id="&#x8DEF;&#x5F84;_3316" style="fill:#1A53A7;" d="M9.433,399.688v-14.691H5.176v14.691H9.433z"/>
			<path id="&#x8DEF;&#x5F84;_3319" style="fill:#1A53A7;" d="M9.433,758.131v-14.692H5.176v14.692H9.433z"/>
			<path id="&#x8DEF;&#x5F84;_3322" style="fill:#1A53A7;" d="M9.433,70.37V56.928H5.176V70.37H9.433z"/>
			<path id="&#x8DEF;&#x5F84;_3323" style="fill:#1A53A7;" d="M9.433,787.254v-13.441H5.176v13.441H9.433z"/>
			<path id="&#x8DEF;&#x5F84;_3324" style="fill:#1A53A7;" d="M9.433,428.812V415.37H5.176v13.441H9.433z"/>
			<path id="&#x8DEF;&#x5F84;_3327" style="fill:#1A53A7;" d="M9.433,249.591v-13.441H5.176v13.441H9.433z"/>
			<path id="&#x8DEF;&#x5F84;_3328" style="fill:#1A53A7;" d="M9.433,966.475v-13.441H5.176v13.441H9.433z"/>
			<path id="&#x8DEF;&#x5F84;_3329" style="fill:#1A53A7;" d="M9.433,608.033v-13.442H5.176v13.442H9.433z"/>
			<path id="&#x8DEF;&#x5F84;_3332" style="fill:#1A53A7;" d="M9.433,159.98v-13.441H5.176v13.441H9.433z"/>
			<path id="&#x8DEF;&#x5F84;_3333" style="fill:#1A53A7;" d="M9.433,876.864v-13.441H5.176v13.441H9.433z"/>
			<path id="&#x8DEF;&#x5F84;_3334" style="fill:#1A53A7;" d="M9.433,518.422V504.98H5.176v13.441H9.433z"/>
			<path id="&#x8DEF;&#x5F84;_3337" style="fill:#1A53A7;" d="M9.433,339.201V325.76H5.176v13.441H9.433z"/>
			<path id="&#x8DEF;&#x5F84;_3340" style="fill:#1A53A7;" d="M9.433,697.644v-13.441H5.176v13.441H9.433z"/>
			<path id="&#x8DEF;&#x5F84;_3343" style="fill:#1A53A7;" d="M9.433,115.175v-13.441H5.176v13.441H9.433z"/>
			<path id="&#x8DEF;&#x5F84;_3344" style="fill:#1A53A7;" d="M9.433,832.06v-13.442H5.176v13.442H9.433z"/>
			<path id="&#x8DEF;&#x5F84;_3345" style="fill:#1A53A7;" d="M9.433,473.617v-13.441H5.176v13.441H9.433z"/>
			<path id="&#x8DEF;&#x5F84;_3348" style="fill:#1A53A7;" d="M9.433,294.396v-13.442H5.176v13.442H9.433z"/>
			<path id="&#x8DEF;&#x5F84;_3349" style="fill:#1A53A7;" d="M9.433,1011.28v-13.441H5.176v13.441H9.433z"/>
			<path id="&#x8DEF;&#x5F84;_3350" style="fill:#1A53A7;" d="M9.433,652.838v-13.441H5.176v13.441H9.433z"/>
			<path id="&#x8DEF;&#x5F84;_3353" style="fill:#1A53A7;" d="M9.433,204.785v-13.441H5.176v13.441H9.433z"/>
			<path id="&#x8DEF;&#x5F84;_3354" style="fill:#1A53A7;" d="M9.433,921.67v-13.442H5.176v13.442H9.433z"/>
			<path id="&#x8DEF;&#x5F84;_3355" style="fill:#1A53A7;" d="M9.433,563.228v-13.441H5.176v13.441H9.433z"/>
			<path id="&#x8DEF;&#x5F84;_3358" style="fill:#1A53A7;" d="M9.433,384.007v-13.442H5.176v13.442H9.433z"/>
			<path id="&#x8DEF;&#x5F84;_3361" style="fill:#1A53A7;" d="M9.433,742.448v-13.441H5.176v13.441H9.433z"/>
			<path id="&#x8DEF;&#x5F84;_2941" style="fill:#1A53A7;" d="M4.233,78.364V48.887H0v29.478H4.233z"/>
			<path id="&#x8DEF;&#x5F84;_2942" style="fill:#1A53A7;" d="M4.233,795.248v-29.478H0v29.478H4.233z"/>
			<path id="&#x8DEF;&#x5F84;_2943" style="fill:#1A53A7;" d="M4.233,436.806v-29.477H0v29.477H4.233z"/>
			<path id="&#x8DEF;&#x5F84;_2946" style="fill:#1A53A7;" d="M4.233,257.585v-29.478H0v29.478H4.233z"/>
			<path id="&#x8DEF;&#x5F84;_2947" style="fill:#1A53A7;" d="M4.233,974.469v-29.477H0v29.477H4.233z"/>
			<path id="&#x8DEF;&#x5F84;_2948" style="fill:#1A53A7;" d="M4.233,616.027V586.55H0v29.478H4.233z"/>
			<path id="&#x8DEF;&#x5F84;_2951" style="fill:#1A53A7;" d="M4.233,167.975v-29.478H0v29.478H4.233z"/>
			<path id="&#x8DEF;&#x5F84;_2952" style="fill:#1A53A7;" d="M4.233,884.858v-29.477H0v29.477H4.233z"/>
			<path id="&#x8DEF;&#x5F84;_2953" style="fill:#1A53A7;" d="M4.233,526.416v-29.477H0v29.477H4.233z"/>
			<path id="&#x8DEF;&#x5F84;_2956" style="fill:#1A53A7;" d="M4.233,347.195v-29.478H0v29.478H4.233z"/>
			<path id="&#x8DEF;&#x5F84;_2959" style="fill:#1A53A7;" d="M4.233,705.638V676.16H0v29.478H4.233z"/>
			<path id="&#x8DEF;&#x5F84;_2962" style="fill:#1A53A7;" d="M4.233,123.169V93.692H0v29.477H4.233z"/>
			<path id="&#x8DEF;&#x5F84;_2963" style="fill:#1A53A7;" d="M4.233,840.054v-29.478H0v29.478H4.233z"/>
			<path id="&#x8DEF;&#x5F84;_2964" style="fill:#1A53A7;" d="M4.233,481.611v-29.478H0v29.478H4.233z"/>
			<path id="&#x8DEF;&#x5F84;_2967" style="fill:#1A53A7;" d="M4.233,302.39v-29.477H0v29.477H4.233z"/>
			<path id="&#x8DEF;&#x5F84;_2968" style="fill:#1A53A7;" d="M4.233,1019.274v-29.478H0v29.478H4.233z"/>
			<path id="&#x8DEF;&#x5F84;_2969" style="fill:#1A53A7;" d="M4.233,660.832v-29.477H0v29.477H4.233z"/>
			<path id="&#x8DEF;&#x5F84;_2972" style="fill:#1A53A7;" d="M4.233,212.779v-29.477H0v29.477H4.233z"/>
			<path id="&#x8DEF;&#x5F84;_2973" style="fill:#1A53A7;" d="M4.233,929.664v-29.478H0v29.478H4.233z"/>
			<path id="&#x8DEF;&#x5F84;_2974" style="fill:#1A53A7;" d="M4.233,571.222v-29.478H0v29.478H4.233z"/>
			<path id="&#x8DEF;&#x5F84;_2977" style="fill:#1A53A7;" d="M4.233,392.001v-29.478H0v29.478H4.233z"/>
			<path id="&#x8DEF;&#x5F84;_2980" style="fill:#1A53A7;" d="M4.233,750.442v-29.477H0v29.477H4.233z"/>
			<path id="&#x8DEF;&#x5F84;_2983" style="fill:#1A53A7;" d="M4.233,86.052v-6.709H0v6.709H4.233z"/>
			<path id="&#x8DEF;&#x5F84;_2984" style="fill:#1A53A7;" d="M4.233,802.936v-6.709H0v6.709H4.233z"/>
			<path id="&#x8DEF;&#x5F84;_2985" style="fill:#1A53A7;" d="M4.233,444.493v-6.709H0v6.709H4.233z"/>
			<path id="&#x8DEF;&#x5F84;_2988" style="fill:#1A53A7;" d="M4.233,265.272v-6.709H0v6.709H4.233z"/>
			<path id="&#x8DEF;&#x5F84;_2989" style="fill:#1A53A7;" d="M4.233,982.156v-6.709H0v6.709H4.233z"/>
			<path id="&#x8DEF;&#x5F84;_2990" style="fill:#1A53A7;" d="M4.233,623.715v-6.709H0v6.709H4.233z"/>
			<path id="&#x8DEF;&#x5F84;_2993" style="fill:#1A53A7;" d="M4.233,175.662v-6.709H0v6.709H4.233z"/>
			<path id="&#x8DEF;&#x5F84;_2994" style="fill:#1A53A7;" d="M4.233,892.546v-6.709H0v6.709H4.233z"/>
			<path id="&#x8DEF;&#x5F84;_2995" style="fill:#1A53A7;" d="M4.233,534.104v-6.709H0v6.709H4.233z"/>
			<path id="&#x8DEF;&#x5F84;_2998" style="fill:#1A53A7;" d="M4.233,354.883v-6.709H0v6.709H4.233z"/>
			<path id="&#x8DEF;&#x5F84;_3001" style="fill:#1A53A7;" d="M4.233,713.325v-6.709H0v6.709H4.233z"/>
			<path id="&#x8DEF;&#x5F84;_3004" style="fill:#1A53A7;" d="M4.233,130.856v-6.709H0v6.709H4.233z"/>
			<path id="&#x8DEF;&#x5F84;_3005" style="fill:#1A53A7;" d="M4.233,847.741v-6.709H0v6.709H4.233z"/>
			<path id="&#x8DEF;&#x5F84;_3006" style="fill:#1A53A7;" d="M4.233,489.299v-6.709H0v6.709H4.233z"/>
			<path id="&#x8DEF;&#x5F84;_3009" style="fill:#1A53A7;" d="M4.233,310.078v-6.709H0v6.709H4.233z"/>
			<path id="&#x8DEF;&#x5F84;_3010" style="fill:#1A53A7;" d="M4.233,1026.962v-6.709H0v6.709H4.233z"/>
			<path id="&#x8DEF;&#x5F84;_3012" style="fill:#1A53A7;" d="M4.233,668.52v-6.709H0v6.709H4.233z"/>
			<path id="&#x8DEF;&#x5F84;_3015" style="fill:#1A53A7;" d="M4.233,220.468v-6.709H0v6.709H4.233z"/>
			<path id="&#x8DEF;&#x5F84;_3016" style="fill:#1A53A7;" d="M4.233,937.352v-6.709H0v6.709H4.233z"/>
			<path id="&#x8DEF;&#x5F84;_3017" style="fill:#1A53A7;" d="M4.233,578.909V572.2H0v6.709H4.233z"/>
			<path id="&#x8DEF;&#x5F84;_3020" style="fill:#1A53A7;" d="M4.233,399.688v-6.709H0v6.709H4.233z"/>
			<path id="&#x8DEF;&#x5F84;_3023" style="fill:#1A53A7;" d="M4.233,758.131v-6.709H0v6.709H4.233z"/>
		</g>
	</g>
</g>
</svg>
