<svg xmlns="http://www.w3.org/2000/svg" width="46" height="124" viewBox="0 0 46 124">
  <g id="组_68" data-name="组 68" transform="translate(257 -757.5)">
    <line id="直线_108" data-name="直线 108" y2="25" transform="translate(-238.5 757.5)" fill="none" stroke="red" stroke-width="1"/>
    <line id="直线_115" data-name="直线 115" y2="9" transform="translate(-238.5 790.5)" fill="none" stroke="red" stroke-width="1"/>
    <line id="直线_119" data-name="直线 119" y2="8" transform="translate(-251.5 834.5)" fill="none" stroke="red" stroke-width="1"/>
    <line id="直线_124" data-name="直线 124" y2="3" transform="translate(-251.5 844.5)" fill="none" stroke="red" stroke-width="1"/>
    <line id="直线_125" data-name="直线 125" y2="5" transform="translate(-251.5 856.5)" fill="none" stroke="red" stroke-width="1"/>
    <line id="直线_122" data-name="直线 122" x1="11" transform="translate(-257 842.5)" fill="none" stroke="red" stroke-width="1"/>
    <line id="直线_123" data-name="直线 123" x1="11" transform="translate(-257 844.5)" fill="none" stroke="red" stroke-width="1"/>
    <line id="直线_126" data-name="直线 126" x1="5" transform="translate(-255.5 863.5)" fill="none" stroke="red" stroke-width="1"/>
    <line id="直线_132" data-name="直线 132" x1="5" transform="translate(-229.5 857.5)" fill="none" stroke="red" stroke-width="1"/>
    <line id="直线_137" data-name="直线 137" x1="5" transform="translate(-217 859.5)" fill="none" stroke="red" stroke-width="1"/>
    <line id="直线_130" data-name="直线 130" x1="7" transform="translate(-256 861.5)" fill="none" stroke="red" stroke-width="1"/>
    <line id="直线_131" data-name="直线 131" x1="7" transform="translate(-230 855.5)" fill="none" stroke="red" stroke-width="1"/>
    <line id="直线_138" data-name="直线 138" x1="7" transform="translate(-218 857.5)" fill="none" stroke="red" stroke-width="1"/>
    <line id="直线_127" data-name="直线 127" x1="4" transform="translate(-254.5 864.5)" fill="none" stroke="red" stroke-width="1"/>
    <line id="直线_133" data-name="直线 133" x1="4" transform="translate(-228.5 858.5)" fill="none" stroke="red" stroke-width="1"/>
    <line id="直线_136" data-name="直线 136" x1="4" transform="translate(-217 861.5)" fill="none" stroke="red" stroke-width="1"/>
    <line id="直线_121" data-name="直线 121" y2="9" transform="translate(-226.5 834.5)" fill="none" stroke="red" stroke-width="1"/>
    <line id="直线_135" data-name="直线 135" y2="12" transform="translate(-214.5 834.5)" fill="none" stroke="red" stroke-width="1"/>
    <line id="直线_128" data-name="直线 128" y2="5" transform="translate(-226.5 850.5)" fill="none" stroke="red" stroke-width="1"/>
    <line id="直线_140" data-name="直线 140" y2="3" transform="translate(-214.5 854.5)" fill="none" stroke="red" stroke-width="1"/>
    <line id="直线_134" data-name="直线 134" x2="5" y2="6" transform="translate(-231.5 844.5)" fill="none" stroke="red" stroke-width="1"/>
    <line id="直线_129" data-name="直线 129" y2="4" transform="translate(-238.5 877.5)" fill="none" stroke="red" stroke-width="1"/>
    <line id="直线_120" data-name="直线 120" x1="38" transform="translate(-252 834.5)" fill="none" stroke="red" stroke-width="1"/>
    <line id="直线_117" data-name="直线 117" y2="31" transform="translate(-251.5 801.5)" fill="none" stroke="red" stroke-width="1"/>
    <line id="直线_139" data-name="直线 139" y2="33" transform="translate(-225.5 801.5)" fill="none" stroke="red" stroke-width="1"/>
    <line id="直线_118" data-name="直线 118" y2="69" transform="translate(-238.5 801.5)" fill="none" stroke="red" stroke-width="1"/>
    <line id="直线_116" data-name="直线 116" x2="12" y2="8" transform="translate(-250.5 783.5)" fill="none" stroke="red" stroke-width="1"/>
    <g id="组_64" data-name="组 64" transform="translate(-168)">
      <line id="直线_109" data-name="直线 109" x2="6" y2="5" transform="translate(-73.5 779.5)" fill="none" stroke="red" stroke-width="1"/>
      <line id="直线_110" data-name="直线 110" x1="6" y2="5" transform="translate(-73.5 779.5)" fill="none" stroke="red" stroke-width="1"/>
    </g>
    <g id="组_63" data-name="组 63" transform="translate(-168)">
      <line id="直线_111" data-name="直线 111" x1="7" y2="4" transform="translate(-77.5 772.5)" fill="none" stroke="red" stroke-width="1"/>
      <line id="直线_114" data-name="直线 114" x1="7" y2="4" transform="translate(-77.5 770.5)" fill="none" stroke="red" stroke-width="1"/>
      <line id="直线_112" data-name="直线 112" x2="7" y2="4" transform="translate(-70.5 772.5)" fill="none" stroke="red" stroke-width="1"/>
      <line id="直线_113" data-name="直线 113" x2="7" y2="4" transform="translate(-70.5 770.5)" fill="none" stroke="red" stroke-width="1"/>
    </g>
    <g id="组_65" data-name="组 65" transform="translate(-309 1572) rotate(-180)">
      <line id="直线_111-2" data-name="直线 111" x1="7" y2="4" transform="translate(-77.5 772.5)" fill="none" stroke="red" stroke-width="1"/>
      <line id="直线_114-2" data-name="直线 114" x1="7" y2="4" transform="translate(-77.5 770.5)" fill="none" stroke="red" stroke-width="1"/>
      <line id="直线_112-2" data-name="直线 112" x2="7" y2="4" transform="translate(-70.5 772.5)" fill="none" stroke="red" stroke-width="1"/>
      <line id="直线_113-2" data-name="直线 113" x2="7" y2="4" transform="translate(-70.5 770.5)" fill="none" stroke="red" stroke-width="1"/>
    </g>
    <g id="椭圆_20" data-name="椭圆 20" transform="translate(-256 803)" fill="none" stroke="red" stroke-width="1">
      <circle cx="4.5" cy="4.5" r="4.5" stroke="none"/>
      <circle cx="4.5" cy="4.5" r="4" fill="none"/>
    </g>
    <g id="椭圆_25" data-name="椭圆 25" transform="translate(-243 803)" fill="none" stroke="red" stroke-width="1">
      <circle cx="4.5" cy="4.5" r="4.5" stroke="none"/>
      <circle cx="4.5" cy="4.5" r="4" fill="none"/>
    </g>
    <g id="椭圆_28" data-name="椭圆 28" transform="translate(-230 803)" fill="none" stroke="red" stroke-width="1">
      <circle cx="4.5" cy="4.5" r="4.5" stroke="none"/>
      <circle cx="4.5" cy="4.5" r="4" fill="none"/>
    </g>
    <g id="椭圆_21" data-name="椭圆 21" transform="translate(-256 813)" fill="none" stroke="red" stroke-width="1">
      <circle cx="4.5" cy="4.5" r="4.5" stroke="none"/>
      <circle cx="4.5" cy="4.5" r="4" fill="none"/>
    </g>
    <g id="椭圆_24" data-name="椭圆 24" transform="translate(-243 813)" fill="none" stroke="red" stroke-width="1">
      <circle cx="4.5" cy="4.5" r="4.5" stroke="none"/>
      <circle cx="4.5" cy="4.5" r="4" fill="none"/>
    </g>
    <g id="椭圆_27" data-name="椭圆 27" transform="translate(-230 813)" fill="none" stroke="red" stroke-width="1">
      <circle cx="4.5" cy="4.5" r="4.5" stroke="none"/>
      <circle cx="4.5" cy="4.5" r="4" fill="none"/>
    </g>
    <g id="椭圆_22" data-name="椭圆 22" transform="translate(-256 823)" fill="none" stroke="red" stroke-width="1">
      <circle cx="4.5" cy="4.5" r="4.5" stroke="none"/>
      <circle cx="4.5" cy="4.5" r="4" fill="none"/>
    </g>
    <g id="组_67" data-name="组 67" transform="translate(-166.442 0.058)">
      <g id="组_66" data-name="组 66" transform="translate(-88.595 848.236)">
        <path id="路径_72" data-name="路径 72" d="M.3.384,1.647,1.647,6.59,6.59" transform="translate(0.243)" fill="red" stroke="red" stroke-width="1"/>
        <path id="路径_71" data-name="路径 71" d="M6.468-1.5-.295,4.756" transform="translate(0.295 1.913)" fill="red" stroke="red" stroke-width="1"/>
      </g>
      <g id="椭圆_29" data-name="椭圆 29" transform="translate(-90 847)" fill="none" stroke="red" stroke-width="1">
        <circle cx="4.942" cy="4.942" r="4.942" stroke="none"/>
        <circle cx="4.942" cy="4.942" r="4.442" fill="none"/>
      </g>
    </g>
    <g id="椭圆_23" data-name="椭圆 23" transform="translate(-243 823)" fill="none" stroke="red" stroke-width="1">
      <circle cx="4.5" cy="4.5" r="4.5" stroke="none"/>
      <circle cx="4.5" cy="4.5" r="4" fill="none"/>
    </g>
    <g id="椭圆_26" data-name="椭圆 26" transform="translate(-230 823)" fill="none" stroke="red" stroke-width="1">
      <circle cx="4.5" cy="4.5" r="4.5" stroke="none"/>
      <circle cx="4.5" cy="4.5" r="4" fill="none"/>
    </g>
    <g id="多边形_8" data-name="多边形 8" transform="translate(-233 877) rotate(180)" fill="none">
      <path d="M6,0l6,7H0Z" stroke="none"/>
      <path d="M 6 1.536593437194824 L 2.174222946166992 6 L 9.825777053833008 6 L 6 1.536593437194824 M 6 0 L 12 7 L 0 7 L 6 0 Z" stroke="none" fill="red"/>
    </g>
    <path id="减去_22" data-name="减去 22" d="M7,20H3a3,3,0,0,1-3-3V4A3,3,0,0,1,3,1H7V2H3A2,2,0,0,0,1,4V17a2,2,0,0,0,2,2H7v1Z" transform="translate(-245 861)" fill="red"/>
    <g id="矩形_33" data-name="矩形 33" transform="translate(-217 840)" fill="none" stroke="red" stroke-width="1">
      <rect width="5" height="13" stroke="none"/>
      <rect x="0.5" y="0.5" width="4" height="12" fill="none"/>
    </g>
    <g id="矩形_34" data-name="矩形 34" transform="translate(-216 846)" fill="none" stroke="red" stroke-width="1">
      <rect width="3" height="1" stroke="none"/>
      <rect x="0.5" y="0.5" width="2" fill="none"/>
    </g>
  </g>
</svg>
