<svg xmlns="http://www.w3.org/2000/svg" viewBox="0 0 26.57 25.01"><defs><style>.cls-1{fill:#d04848;fill-rule:evenodd;}</style></defs><title>矩形 2 (3)</title><g id="图层_2" data-name="图层 2"><g id="图层_1-2" data-name="图层 1"><path id="矩形_2" data-name="矩形 2" class="cls-1" d="M3.66,7.58s-1,1.89-2.28,4.54-2.37,6.63,0,9.09A19.3,19.3,0,0,0,6.69,25s-.65-3.2,0-4.54,3.79-6.82,3.79-6.82h.75v3.79H12s.88-2.81,1.52-3,0-3.79,0-3.79,4.79,2.18,6.06,6.82,0,5.3,0,5.3S16.86,25.16,18.05,25s7.9-4.31,8.34-6.82a25.59,25.59,0,0,0,0-6.06S22.61,5.59,21.08,5.3s-.75,0-.75,0a4.62,4.62,0,0,1,0,3.79,3.22,3.22,0,0,0-.76,0S19.05,5.85,13.51.76L11.23,0s.5,2.9,0,3.79a8.34,8.34,0,0,1-3,3.79c-2.44,1.94-2.27,3.78-2.27,3.78l-.76-.75S4.72,7.12,3.66,7.58Z"/></g></g></svg>