<svg xmlns="http://www.w3.org/2000/svg" viewBox="0 0 36 17"><defs><style>.cls-1{fill:#32bfd0;}.cls-2{fill:none;stroke:#32bfd0;stroke-miterlimit:10;stroke-width:2px;}</style></defs><title>资源 26</title><g id="图层_2" data-name="图层 2"><g id="图层_1-2" data-name="图层 1"><path class="cls-1" d="M34,2V13a2,2,0,0,1-2,2H4a2,2,0,0,1-2-2V2H34m0-2H2A2,2,0,0,0,0,2V13a4,4,0,0,0,4,4H32a4,4,0,0,0,4-4V2a2,2,0,0,0-2-2Z"/><path class="cls-1" d="M5,12H32a1,1,0,0,1,1,1v1a0,0,0,0,1,0,0H4a0,0,0,0,1,0,0V13A1,1,0,0,1,5,12Z"/><path class="cls-2" d="M4,1H32a0,0,0,0,1,0,0V5a4,4,0,0,1-4,4H8A4,4,0,0,1,4,5V1A0,0,0,0,1,4,1Z"/></g></g></svg>