<svg xmlns="http://www.w3.org/2000/svg" viewBox="0 0 17 19"><defs><style>.cls-1,.cls-2{fill:#a5a5a5;}.cls-1{fill-rule:evenodd;}</style></defs><title>资源 6</title><g id="图层_2" data-name="图层 2"><g id="图层_1-2" data-name="图层 1"><path class="cls-1" d="M8.5,0A8.26,8.26,0,0,0,0,8a8.26,8.26,0,0,0,8.5,8A8.26,8.26,0,0,0,17,8,8.26,8.26,0,0,0,8.5,0Zm0,13A5.27,5.27,0,0,1,3,8,5.27,5.27,0,0,1,8.5,3,5.27,5.27,0,0,1,14,8,5.27,5.27,0,0,1,8.5,13Z"/><path class="cls-1" d="M5.21,7A2.59,2.59,0,0,0,5,8a3.28,3.28,0,0,0,3.5,3A3.28,3.28,0,0,0,12,8a2.59,2.59,0,0,0-.21-1Z"/><path class="cls-2" d="M10.48,15l1.89,2H4.63l1.89-2h4m.87-2H5.65L0,19H17l-5.65-6Z"/></g></g></svg>