<svg xmlns="http://www.w3.org/2000/svg" viewBox="0 0 27.2 22.08"><defs><style>.cls-1{fill:#a5a5a5;fill-rule:evenodd;isolation:isolate;}</style></defs><title>资源 15</title><g id="图层_2" data-name="图层 2"><g id="图层_1-2" data-name="图层 1"><path class="cls-1" d="M1.09,7.08S-.82,6.33.41,4A46.3,46.3,0,0,0,5.18.07a10.44,10.44,0,0,1,1.37,0C7.26,1,9.28,3.18,9.28,3.18s1.54.07,2-.77a16.44,16.44,0,0,1,2-2.34,3.46,3.46,0,0,1,1.36,0,20.64,20.64,0,0,0,2.05,3.11h1.36L20.87.07h1.36L25,3.18h2s.45,2.3,0,3.12-2.72.78-2.72.78L22.23,4.74H20.87L18.82,7.08H16.09l-2-2.34H12.68s-.92,1.69-1.36,2.34H8.59l-2-2.34H5.18l-2,2.34Z"/><path class="cls-1" d="M1.09,15.08S-.82,14.33.41,12A46.3,46.3,0,0,0,5.18,8.07a10.44,10.44,0,0,1,1.37,0c.71.91,2.73,3.11,2.73,3.11s1.54.07,2-.77a16.44,16.44,0,0,1,2-2.34,3.46,3.46,0,0,1,1.36,0,20.64,20.64,0,0,0,2.05,3.11h1.36l2.73-3.11h1.36L25,11.18h2s.45,2.3,0,3.12-2.72.78-2.72.78l-2.05-2.34H20.87l-2.05,2.34H16.09l-2-2.34H12.68s-.92,1.69-1.36,2.34H8.59l-2-2.34H5.18l-2,2.34Z"/><path class="cls-1" d="M1.09,22.08S-.82,21.33.41,19a46.3,46.3,0,0,0,4.77-3.89,10.44,10.44,0,0,1,1.37,0c.71.91,2.73,3.11,2.73,3.11s1.54.07,2-.77a16.44,16.44,0,0,1,2-2.34,3.46,3.46,0,0,1,1.36,0,20.64,20.64,0,0,0,2.05,3.11h1.36l2.73-3.11h1.36L25,18.18h2s.45,2.3,0,3.12-2.72.78-2.72.78l-2.05-2.34H20.87l-2.05,2.34H16.09l-2-2.34H12.68s-.92,1.69-1.36,2.34H8.59l-2-2.34H5.18l-2,2.34Z"/></g></g></svg>