<svg xmlns="http://www.w3.org/2000/svg" viewBox="0 0 31 26"><defs><style>.cls-1,.cls-2{fill:#32bfd0;}.cls-1{fill-rule:evenodd;}</style></defs><title>资源 10</title><g id="图层_2" data-name="图层 2"><g id="图层_1-2" data-name="图层 1"><path class="cls-1" d="M9,0A5,5,0,0,0,4,5V15H6V6a3,3,0,0,1,6,0v9h2V5A5,5,0,0,0,9,0Z"/><path class="cls-1" d="M12,14.35v2.19c1.79.69,3,2,3,3.46,0,2.21-2.69,4-6,4s-6-1.79-6-4c0-1.48,1.21-2.77,3-3.46V14.35c-3.49.82-6,3-6,5.65,0,3.31,4,6,9,6s9-2.69,9-6C18,17.39,15.49,15.17,12,14.35Z"/><rect class="cls-2" x="6" y="6" width="4" height="1"/><rect class="cls-2" x="6" y="8" width="4" height="1"/><rect class="cls-2" x="6" y="10" width="4" height="1"/><rect class="cls-2" x="6" y="12" width="4" height="1"/><rect class="cls-2" x="6" y="14" width="4" height="1"/><rect class="cls-2" x="5" y="16" width="5" height="1"/><path class="cls-1" d="M5.06,19a2.73,2.73,0,0,0-.06.5A3.78,3.78,0,0,0,9,23a3.78,3.78,0,0,0,4-3.5,2.73,2.73,0,0,0-.06-.5Z"/><rect class="cls-2" x="12" y="2" width="19" height="2"/><path class="cls-1" d="M26,8c-.64-.85-1.44-2-2.5-2-.58,0-.76,1.1-1.5,2s-2,1.55-2,2a3.78,3.78,0,0,0,3.5,4A3.78,3.78,0,0,0,27,10C27,9,26.53,8.7,26,8Zm-3.75,3.08a4.64,4.64,0,0,0,.18,1.27,2.53,2.53,0,0,1-.87-1.95A2.25,2.25,0,0,1,23.62,8a1.58,1.58,0,0,1,.38.05C23,8.27,22.25,9.54,22.25,11.08Z"/><path class="cls-1" d="M26,18c-.64-.85-1.44-2-2.5-2-.58,0-.76,1.1-1.5,2s-2,1.55-2,2a3.78,3.78,0,0,0,3.5,4A3.78,3.78,0,0,0,27,20C27,19,26.53,18.7,26,18Zm-3.75,3.08a4.64,4.64,0,0,0,.18,1.27,2.53,2.53,0,0,1-.87-2A2.25,2.25,0,0,1,23.62,18a1.58,1.58,0,0,1,.38.05C23,18.27,22.25,19.54,22.25,21.08Z"/></g></g></svg>