<svg xmlns="http://www.w3.org/2000/svg" viewBox="0 0 26 34"><defs><style>.cls-1,.cls-2{fill:#a5a5a5;}.cls-2{fill-rule:evenodd;}</style></defs><title>资源 21</title><g id="图层_2" data-name="图层 2"><g id="图层_1-2" data-name="图层 1"><rect id="矩形_1" data-name="矩形 1" class="cls-1" x="5" y="30" width="16" height="4"/><rect class="cls-1" x="7" y="12" width="3" height="2"/><path class="cls-2" d="M26,13A13,13,0,1,0,5,23.23V28H21V23.23A13,13,0,0,0,26,13Zm-4,1H21v1H20v1H17V28H15V16H12V28H10V16H6V15H5V14H4V12H5V10h5v1h1v1h1v2h3V11h1V10h4v1h1v1h1Z"/><rect class="cls-1" x="17" y="12" width="2" height="2"/></g></g></svg>