<svg xmlns="http://www.w3.org/2000/svg" viewBox="0 0 22 28"><defs><style>.cls-1{fill:#d04848;}</style></defs><title>资源 20</title><g id="图层_2" data-name="图层 2"><g id="图层_1-2" data-name="图层 1"><path class="cls-1" d="M11,6.5c-3.59,0-6.5,1.79-6.5,4s2.91,4,6.5,4,6.5-1.79,6.5-4S14.59,6.5,11,6.5Zm4.5,5h-9v-2h9Z"/><rect class="cls-1" x="7" width="8" height="2"/><rect class="cls-1" x="9" y="2" width="4" height="2"/><rect class="cls-1" x="2.13" y="3" width="3" height="2" transform="translate(-1.58 2.57) rotate(-32.44)"/><rect class="cls-1" x="16.13" y="3" width="3" height="2" transform="translate(30.35 16.83) rotate(-147.56)"/><path class="cls-1" d="M22,10.5C22,6.36,17.08,3,11,3S0,6.36,0,10.5c0,3.68,3.88,6.73,9,7.37V28h4V17.87C18.12,17.23,22,14.18,22,10.5ZM11,16c-5,0-9-2.46-9-5.5S6,5,11,5s9,2.46,9,5.5S16,16,11,16Z"/></g></g></svg>