<svg xmlns="http://www.w3.org/2000/svg" viewBox="0 0 47.86 41.81"><defs><style>.cls-1{fill:#32bfd0;}.cls-2,.cls-3{fill:#fffa70;}.cls-2{fill-rule:evenodd;}</style></defs><title>资源 22</title><g id="图层_2" data-name="图层 2"><g id="图层_1-2" data-name="图层 1"><rect id="矩形_1" data-name="矩形 1" class="cls-1" x="15.75" y="37.81" width="16" height="4"/><path id="矩形_2" data-name="矩形 2" class="cls-2" d="M13.13,1.57l1.73-1,4.5,7.79-1.73,1ZM.83,14.22l.54-1.93L10,14.72,9.5,16.65Zm-.17,17L0,29.36l8.5-3,.66,1.88Zm38-2.74.66-1.89,8.5,3-.67,1.89Zm.58-11.75-.6-1.91,8.59-2.68.6,1.91ZM30.22,8.47,28.6,7.3,33.87,0l1.62,1.17Z"/><rect class="cls-3" x="17.75" y="20.81" width="3" height="2"/><path class="cls-2" d="M36.75,21.81A13,13,0,1,0,15.75,32v4.77h16V32A13,13,0,0,0,36.75,21.81Zm-4,1h-1v1h-1v1h-3v12h-2v-12h-3v12h-2v-12h-4v-1h-1v-1h-1v-2h1v-2h5v1h1v1h1v2h3v-3h1v-1h4v1h1v1h1Z"/><rect class="cls-3" x="27.75" y="20.81" width="2" height="2"/></g></g></svg>