<svg xmlns="http://www.w3.org/2000/svg" width="1579" height="821" viewBox="0 0 1579 821">
  <g id="减去_172" data-name="减去 172" transform="translate(0 1342)" fill="none" opacity="0.2">
    <path d="M1579-521H0v-821H115.073v23.019h23.014V-1342H1579v821Z" stroke="none"/>
    <path d="M 1569 -530.9999389648438 L 1569 -1332 L 148.0871124267578 -1332 L 148.0872344970703 -1318.9814453125 L 148.0872344970703 -1308.9814453125 L 138.0872344970703 -1308.9814453125 L 115.0730667114258 -1308.9814453125 L 105.0730667114258 -1308.9814453125 L 105.0730667114258 -1318.9814453125 L 105.0730667114258 -1332 L 10.00014495849609 -1332 L 9.999941825866699 -531.0011596679688 L 1569 -530.9999389648438 M 1579 -520.9999389648438 L 1579 -521.0011596679688 L -6.103515625e-05 -521.0011596679688 L 0.0001472981821279973 -1342 L 115.0730667114258 -1342 L 115.0730667114258 -1318.9814453125 L 138.0872344970703 -1318.9814453125 L 138.0870208740234 -1342 L 1579 -1342 L 1579 -521.0011596679688 L 1579 -520.9999389648438 Z" stroke="none" fill="#7ebaff"/>
  </g>
</svg>
